<svg viewBox="0 0 603 384" fill="none" xmlns="http://www.w3.org/2000/svg">
  <path d="M494.782 0L-2 0L-2 394H494.782C558.141 394 589.821 394 600.158 373.888C610.496 353.777 591.994 328.14 554.991 276.866L528.521 240.187C513.477 219.341 505.955 208.919 505.955 197C505.955 185.081 513.477 174.658 528.52 153.813L528.521 153.812L554.99 117.135C591.994 65.8604 610.496 40.2233 600.158 20.1117C589.821 0 558.141 0 494.782 0Z" fill="#F0F0F0"/>
  <path d="M379.568 134.242L340.448 123.759C337.566 122.987 334.495 123.391 331.911 124.883C329.327 126.375 327.442 128.832 326.669 131.714L321.428 151.274C320.965 153.004 321.207 154.846 322.103 156.396C322.998 157.947 324.472 159.078 326.201 159.541L339.241 163.035L333.701 175.14C333.649 175.254 333.607 175.372 333.574 175.493C332.956 177.799 333.279 180.255 334.473 182.322C335.666 184.39 337.632 185.898 339.938 186.516C342.243 187.134 344.7 186.81 346.767 185.617C348.834 184.423 350.343 182.457 350.96 180.152C350.993 180.031 351.015 179.907 351.027 179.782L352.281 166.529L365.321 170.024C367.05 170.487 368.893 170.244 370.443 169.349C371.994 168.454 373.125 166.98 373.588 165.251L381.159 136.997C381.313 136.421 381.232 135.807 380.934 135.29C380.636 134.773 380.144 134.396 379.568 134.242ZM339.283 128.106L367.536 135.676L364.625 146.543C364.47 147.12 364.551 147.734 364.849 148.251C365.148 148.767 365.639 149.144 366.216 149.299C366.792 149.453 367.406 149.372 367.923 149.074C368.44 148.776 368.817 148.284 368.971 147.708L371.883 136.841L376.23 138.006L370.989 157.566L327.522 145.919L331.016 132.879C331.479 131.15 332.611 129.675 334.161 128.78C335.711 127.885 337.554 127.643 339.283 128.106Z" fill="white"/>
  <path d="M275.062 216.501C275.465 218.006 275.413 219.596 274.912 221.071C274.412 222.546 273.485 223.839 272.249 224.787C271.014 225.735 269.524 226.296 267.97 226.398C266.416 226.499 264.867 226.138 263.518 225.359C262.169 224.581 261.081 223.419 260.392 222.022C259.703 220.626 259.444 219.056 259.648 217.512C259.851 215.967 260.508 214.518 261.534 213.347C262.561 212.176 263.913 211.336 265.417 210.933C267.434 210.392 269.584 210.675 271.393 211.719C273.201 212.764 274.521 214.484 275.062 216.501ZM229.422 228.73C229.019 227.226 228.179 225.875 227.008 224.848C225.837 223.821 224.387 223.164 222.843 222.961C221.299 222.758 219.729 223.017 218.332 223.706C216.935 224.395 215.774 225.482 214.995 226.831C214.216 228.18 213.855 229.729 213.957 231.284C214.059 232.838 214.619 234.327 215.568 235.563C216.516 236.798 217.809 237.725 219.284 238.226C220.759 238.726 222.349 238.778 223.853 238.375C225.871 237.835 227.591 236.515 228.635 234.706C229.679 232.897 229.962 230.748 229.422 228.73ZM233.399 221.841C234.904 221.438 236.255 220.598 237.282 219.427C238.309 218.256 238.965 216.807 239.169 215.262C239.372 213.718 239.113 212.148 238.424 210.752C237.735 209.355 236.647 208.193 235.299 207.415C233.95 206.636 232.4 206.275 230.846 206.376C229.292 206.478 227.803 207.039 226.567 207.987C225.331 208.935 224.405 210.228 223.904 211.703C223.403 213.178 223.351 214.768 223.754 216.273C224.295 218.29 225.615 220.01 227.424 221.055C229.232 222.099 231.382 222.382 233.399 221.841ZM252.959 216.6C254.464 216.197 255.815 215.357 256.842 214.186C257.869 213.015 258.525 211.566 258.729 210.021C258.932 208.477 258.673 206.907 257.984 205.51C257.295 204.114 256.207 202.952 254.859 202.174C253.51 201.395 251.96 201.033 250.406 201.135C248.852 201.237 247.363 201.798 246.127 202.746C244.891 203.694 243.965 204.987 243.464 206.462C242.963 207.937 242.911 209.527 243.314 211.032C243.855 213.049 245.175 214.769 246.984 215.813C248.792 216.858 250.942 217.141 252.959 216.6ZM263.67 231.451C262.403 231.138 261.21 230.578 260.16 229.803C259.109 229.028 258.222 228.054 257.549 226.936C256.16 224.644 254.065 222.865 251.579 221.866C249.093 220.867 246.35 220.702 243.762 221.396C241.174 222.089 238.881 223.604 237.228 225.712C235.574 227.82 234.65 230.408 234.593 233.087C234.548 235.712 233.464 238.212 231.578 240.038C229.761 241.758 228.568 244.035 228.19 246.508C227.812 248.982 228.268 251.511 229.489 253.695C230.709 255.88 232.622 257.595 234.927 258.571C237.231 259.546 239.795 259.725 242.213 259.079C243.662 258.695 245.019 258.022 246.201 257.099C249.983 254.206 254.756 252.927 259.477 253.542C262.353 253.972 265.283 253.272 267.654 251.589C270.024 249.906 271.651 247.37 272.194 244.514C272.736 241.658 272.151 238.702 270.563 236.267C268.974 233.833 266.504 232.107 263.671 231.454L263.67 231.451Z" fill="white"/>
  <path d="M103.508 186.391L95.714 181.891L99.089 176.046L104.935 179.421C105.231 179.591 105.562 179.693 105.903 179.716C106.244 179.74 106.586 179.686 106.903 179.558C107.22 179.429 107.504 179.231 107.732 178.977C107.961 178.722 108.129 178.419 108.223 178.091L118.428 142.414C118.566 141.931 118.539 141.417 118.35 140.952C118.162 140.487 117.824 140.098 117.39 139.848C116.955 139.597 116.45 139.498 115.953 139.568C115.456 139.637 114.997 139.871 114.648 140.231L88.8539 166.908C88.6163 167.154 88.4378 167.451 88.332 167.776C88.2261 168.101 88.1958 168.446 88.2433 168.784C88.2907 169.123 88.4147 169.446 88.6058 169.73C88.7969 170.013 89.0501 170.25 89.3462 170.421L95.1919 173.796L91.8169 179.641L76.2284 170.641L78.4784 166.744L80.427 167.869C80.9438 168.167 81.5579 168.248 82.1343 168.094C82.7107 167.939 83.2022 167.562 83.5005 167.046C83.7989 166.529 83.8797 165.915 83.7253 165.338C83.5709 164.762 83.1938 164.27 82.677 163.972L80.7284 162.847L82.9784 158.95L84.927 160.075C85.4438 160.373 86.0579 160.454 86.6343 160.3C87.2107 160.145 87.7022 159.768 88.0005 159.251C88.2989 158.734 88.3797 158.12 88.2253 157.544C88.0709 156.968 87.6938 156.476 87.177 156.178L65.7428 143.803C65.226 143.504 64.6119 143.423 64.0355 143.578C63.4591 143.732 62.9676 144.109 62.6693 144.626C62.3709 145.143 62.2901 145.757 62.4445 146.334C62.5989 146.91 62.976 147.401 63.4928 147.7L65.4414 148.825L63.1914 152.722L61.2428 151.597C60.726 151.299 60.1119 151.218 59.5355 151.372C58.9591 151.527 58.4676 151.904 58.1693 152.421C57.8709 152.937 57.7901 153.551 57.9445 154.128C58.0989 154.704 58.476 155.196 58.9928 155.494L60.9414 156.619L58.6914 160.516L52.8457 157.141C52.3289 156.843 51.7148 156.762 51.1384 156.916C50.562 157.071 50.0705 157.448 49.7722 157.965C49.4738 158.482 49.3929 159.096 49.5474 159.672C49.7018 160.248 50.0789 160.74 50.5957 161.038L101.258 190.288C101.775 190.587 102.389 190.668 102.966 190.513C103.542 190.359 104.033 189.982 104.332 189.465C104.63 188.948 104.711 188.334 104.557 187.757C104.402 187.181 104.025 186.69 103.508 186.391ZM72.3313 168.391L62.5885 162.766L64.8385 158.869L74.5813 164.494L72.3313 168.391ZM76.8313 160.597L67.0885 154.972L69.3385 151.075L79.0813 156.7L76.8313 160.597ZM88.7541 146.696C90.103 147.475 91.6525 147.836 93.2067 147.734C94.7609 147.632 96.25 147.072 97.4856 146.124C98.7213 145.176 99.6481 143.882 100.149 142.407C100.649 140.933 100.701 139.342 100.298 137.838C99.8952 136.333 99.055 134.982 97.884 133.955C96.713 132.928 95.2637 132.272 93.7195 132.068C92.1753 131.865 90.6055 132.124 89.2086 132.813C87.8117 133.502 86.6504 134.59 85.8717 135.939C84.8274 137.747 84.5444 139.897 85.085 141.914C85.6255 143.932 86.9454 145.652 88.7541 146.696ZM94.3791 136.953C94.9572 137.287 95.4233 137.785 95.7186 138.383C96.0138 138.982 96.1249 139.655 96.0378 140.317C95.9506 140.978 95.6692 141.599 95.2291 142.101C94.789 142.603 94.2099 142.963 93.5651 143.136C92.9204 143.309 92.2389 143.286 91.6068 143.072C90.9747 142.857 90.4204 142.46 90.0141 141.931C89.6077 141.401 89.3675 140.763 89.3239 140.097C89.2802 139.431 89.435 138.767 89.7688 138.189C90.2163 137.413 90.9535 136.848 91.8181 136.616C92.6827 136.384 93.6039 136.506 94.3791 136.953Z" fill="white"/>
  <path d="M437.732 292.844C432.722 289.951 426.966 288.609 421.194 288.988C415.421 289.366 409.89 291.448 405.3 294.969C400.711 298.491 397.268 303.295 395.409 308.773C393.549 314.251 393.356 320.157 394.853 325.745C396.351 331.333 399.471 336.352 403.821 340.166C408.17 343.981 413.553 346.42 419.289 347.175C425.024 347.93 430.855 346.967 436.044 344.409C441.232 341.85 445.545 337.81 448.438 332.8C452.308 326.08 453.355 318.099 451.348 310.608C449.34 303.117 444.444 296.728 437.732 292.844ZM418.838 305.318C419.416 305.652 419.882 306.15 420.178 306.748C420.473 307.347 420.584 308.02 420.497 308.682C420.41 309.343 420.128 309.965 419.688 310.466C419.248 310.968 418.669 311.328 418.024 311.501C417.379 311.674 416.698 311.652 416.066 311.437C415.434 311.222 414.879 310.825 414.473 310.296C414.067 309.766 413.827 309.128 413.783 308.462C413.739 307.796 413.894 307.132 414.228 306.554C414.675 305.778 415.413 305.213 416.277 304.981C417.142 304.749 418.063 304.871 418.838 305.318ZM430.597 331.593C425.589 334.479 419.989 334.561 415.232 331.815C410.475 329.068 407.744 324.179 407.741 318.397C407.728 318.094 407.776 317.791 407.884 317.507C407.991 317.223 408.154 316.964 408.364 316.745C408.574 316.525 408.826 316.351 409.105 316.232C409.384 316.113 409.684 316.051 409.988 316.051C410.291 316.051 410.591 316.112 410.871 316.231C411.15 316.35 411.402 316.524 411.612 316.743C411.822 316.962 411.986 317.221 412.093 317.505C412.201 317.789 412.249 318.091 412.237 318.395C412.241 322.589 414.103 325.967 417.482 327.918C420.86 329.868 424.718 329.79 428.351 327.698C428.608 327.536 428.894 327.427 429.194 327.378C429.493 327.329 429.799 327.341 430.094 327.413C430.389 327.486 430.666 327.617 430.908 327.8C431.151 327.982 431.354 328.211 431.506 328.474C431.657 328.737 431.754 329.028 431.79 329.329C431.827 329.631 431.802 329.936 431.717 330.227C431.632 330.519 431.489 330.79 431.297 331.025C431.104 331.259 430.866 331.453 430.597 331.593ZM433 321.289C432.422 320.955 431.956 320.458 431.661 319.859C431.365 319.26 431.254 318.587 431.342 317.926C431.429 317.264 431.71 316.643 432.15 316.141C432.59 315.639 433.169 315.279 433.814 315.106C434.459 314.933 435.14 314.956 435.773 315.17C436.405 315.385 436.959 315.782 437.365 316.312C437.772 316.841 438.012 317.479 438.055 318.145C438.099 318.811 437.944 319.476 437.61 320.054C437.163 320.829 436.426 321.394 435.561 321.626C434.697 321.858 433.775 321.736 433 321.289Z" fill="white"/>
  <path d="M138.991 278.834C138.068 278.911 137.19 279.27 136.479 279.864C135.767 280.458 135.256 281.257 135.016 282.152C135.002 282.206 134.991 282.255 134.981 282.306L133.575 289.58C127.708 289.372 121.9 290.818 116.816 293.753C111.732 296.689 107.575 300.995 104.822 306.181L97.8074 303.768C97.7585 303.751 97.711 303.736 97.6572 303.722C96.7619 303.482 95.8144 303.525 94.9443 303.844C94.0742 304.163 93.3239 304.743 92.7959 305.505C92.3103 306.229 92.0399 307.076 92.016 307.947C91.992 308.819 92.2155 309.679 92.6605 310.429L104.971 331.751C111.861 343.686 127.332 347.949 140.676 342.092C140.822 342.029 140.952 341.935 141.059 341.817C141.165 341.699 141.246 341.56 141.295 341.409C141.344 341.258 141.36 341.099 141.343 340.941C141.326 340.783 141.276 340.631 141.195 340.494L136.695 332.699L131.538 331.315C130.96 331.17 130.46 330.806 130.144 330.301C129.827 329.796 129.718 329.188 129.839 328.604C129.908 328.31 130.035 328.034 130.213 327.79C130.391 327.547 130.616 327.341 130.874 327.187C131.133 327.032 131.42 326.931 131.719 326.889C132.017 326.847 132.321 326.866 132.613 326.944L136.585 328.009L137.648 324.034C137.726 323.742 137.862 323.47 138.047 323.232C138.233 322.994 138.464 322.796 138.727 322.65C138.991 322.503 139.281 322.411 139.581 322.378C139.88 322.346 140.184 322.374 140.472 322.462C141.038 322.649 141.51 323.047 141.79 323.574C142.069 324.101 142.134 324.715 141.971 325.289L140.591 330.447L145.091 338.241C145.17 338.379 145.276 338.499 145.405 338.593C145.533 338.686 145.679 338.752 145.835 338.785C145.99 338.818 146.15 338.818 146.306 338.784C146.461 338.751 146.607 338.685 146.735 338.591C158.479 329.963 162.524 314.436 155.633 302.501L143.323 281.179C142.896 280.419 142.263 279.795 141.496 279.38C140.73 278.965 139.861 278.776 138.991 278.834ZM121.835 327.211C121.257 327.544 120.593 327.699 119.927 327.655C119.261 327.612 118.622 327.372 118.093 326.965C117.563 326.559 117.166 326.005 116.952 325.373C116.737 324.74 116.715 324.059 116.887 323.414C117.06 322.769 117.42 322.19 117.922 321.75C118.424 321.31 119.045 321.029 119.707 320.942C120.369 320.854 121.042 320.965 121.64 321.261C122.239 321.556 122.737 322.022 123.07 322.6C123.518 323.375 123.639 324.297 123.407 325.161C123.176 326.026 122.61 326.763 121.835 327.211ZM117.706 308.81C118.005 309.326 118.086 309.94 117.931 310.517C117.777 311.093 117.4 311.585 116.883 311.883C116.366 312.181 115.752 312.262 115.175 312.108C114.599 311.953 114.108 311.576 113.809 311.06L111.137 306.432C110.839 305.915 110.758 305.301 110.913 304.724C111.067 304.148 111.444 303.657 111.961 303.358C112.478 303.06 113.092 302.979 113.668 303.133C114.245 303.288 114.736 303.665 115.034 304.182L117.706 308.81ZM125.501 304.31C125.799 304.826 125.88 305.44 125.725 306.017C125.571 306.593 125.194 307.085 124.677 307.383C124.16 307.681 123.546 307.762 122.97 307.608C122.393 307.453 121.902 307.076 121.603 306.56L118.228 300.714C117.93 300.197 117.849 299.583 118.004 299.007C118.158 298.43 118.535 297.939 119.052 297.64C119.569 297.342 120.183 297.261 120.759 297.416C121.336 297.57 121.827 297.947 122.126 298.464L125.501 304.31ZM129.398 302.06L126.726 297.432C126.427 296.915 126.347 296.301 126.501 295.724C126.655 295.148 127.033 294.657 127.549 294.358C128.066 294.06 128.68 293.979 129.257 294.133C129.833 294.288 130.325 294.665 130.623 295.182L133.295 299.81C133.593 300.326 133.674 300.94 133.52 301.517C133.365 302.093 132.988 302.585 132.471 302.883C131.954 303.181 131.34 303.262 130.764 303.108C130.188 302.953 129.696 302.576 129.398 302.06ZM143.269 314.836C142.691 315.169 142.027 315.324 141.361 315.28C140.695 315.237 140.057 314.997 139.527 314.59C138.997 314.184 138.6 313.63 138.386 312.998C138.171 312.365 138.149 311.684 138.322 311.039C138.494 310.394 138.854 309.815 139.356 309.375C139.858 308.935 140.479 308.654 141.141 308.567C141.803 308.479 142.476 308.59 143.074 308.886C143.673 309.181 144.171 309.647 144.504 310.225C144.952 311 145.073 311.922 144.842 312.786C144.61 313.651 144.044 314.388 143.269 314.836Z" fill="white"/>
</svg>
