<svg width="32" height="32" viewBox="0 0 32 32" fill="none" xmlns="http://www.w3.org/2000/svg">
<rect width="32" height="32" rx="8" fill="#4BA4ED"/>
<path d="M25 8.5H7C6.60218 8.5 6.22064 8.65804 5.93934 8.93934C5.65804 9.22064 5.5 9.60218 5.5 10V22C5.5 22.3978 5.65804 22.7794 5.93934 23.0607C6.22064 23.342 6.60218 23.5 7 23.5H25C25.3978 23.5 25.7794 23.342 26.0607 23.0607C26.342 22.7794 26.5 22.3978 26.5 22V10C26.5 9.60218 26.342 9.22064 26.0607 8.93934C25.7794 8.65804 25.3978 8.5 25 8.5ZM16.75 20.5H15.25C15.0511 20.5 14.8603 20.421 14.7197 20.2803C14.579 20.1397 14.5 19.9489 14.5 19.75C14.5 19.5511 14.579 19.3603 14.7197 19.2197C14.8603 19.079 15.0511 19 15.25 19H16.75C16.9489 19 17.1397 19.079 17.2803 19.2197C17.421 19.3603 17.5 19.5511 17.5 19.75C17.5 19.9489 17.421 20.1397 17.2803 20.2803C17.1397 20.421 16.9489 20.5 16.75 20.5ZM22.75 20.5H19.75C19.5511 20.5 19.3603 20.421 19.2197 20.2803C19.079 20.1397 19 19.9489 19 19.75C19 19.5511 19.079 19.3603 19.2197 19.2197C19.3603 19.079 19.5511 19 19.75 19H22.75C22.9489 19 23.1397 19.079 23.2803 19.2197C23.421 19.3603 23.5 19.5511 23.5 19.75C23.5 19.9489 23.421 20.1397 23.2803 20.2803C23.1397 20.421 22.9489 20.5 22.75 20.5ZM7 12.25V10H25V12.25H7Z" fill="white"/>
</svg>
