<svg width="32" height="32" viewBox="0 0 32 32" fill="none" xmlns="http://www.w3.org/2000/svg">
<rect width="32" height="32" rx="8" fill="#F255A4"/>
<path d="M25.5934 17.2245C25.3482 17.0354 25.067 16.8983 24.7671 16.8215C24.4671 16.7446 24.1547 16.7295 23.8488 16.7773C25.6094 14.9998 26.5 13.2326 26.5 11.5001C26.5 9.01853 24.5041 7.00009 22.0506 7.00009C21.3996 6.996 20.7556 7.13445 20.1638 7.40573C19.5721 7.67701 19.0468 8.07454 18.625 8.5704C18.2032 8.07454 17.6779 7.67701 17.0862 7.40573C16.4944 7.13445 15.8504 6.996 15.1994 7.00009C12.7459 7.00009 10.75 9.01853 10.75 11.5001C10.75 12.5313 11.0537 13.5335 11.6931 14.5938C11.1695 14.7265 10.6916 14.9987 10.3103 15.3813L8.18969 17.5001H5.5C5.10218 17.5001 4.72064 17.6581 4.43934 17.9394C4.15804 18.2207 4 18.6023 4 19.0001V22.7501C4 23.1479 4.15804 23.5294 4.43934 23.8107C4.72064 24.0921 5.10218 24.2501 5.5 24.2501H15.25C15.3113 24.2501 15.3724 24.2426 15.4319 24.2276L21.4319 22.7276C21.4701 22.7185 21.5075 22.7059 21.5434 22.6901L25.1875 21.1395L25.2288 21.1207C25.579 20.9457 25.8789 20.6844 26.1002 20.3615C26.3215 20.0385 26.457 19.6646 26.4939 19.2748C26.5307 18.885 26.4678 18.4923 26.3109 18.1336C26.154 17.7749 25.9084 17.462 25.5972 17.2245H25.5934ZM24.5716 19.7698L21.0091 21.2866L15.1562 22.7501H9.25V18.5604L11.3716 16.4398C11.5103 16.2999 11.6756 16.189 11.8576 16.1135C12.0396 16.038 12.2348 15.9995 12.4319 16.0001H17.125C17.4234 16.0001 17.7095 16.1186 17.9205 16.3296C18.1315 16.5406 18.25 16.8267 18.25 17.1251C18.25 17.4235 18.1315 17.7096 17.9205 17.9206C17.7095 18.1316 17.4234 18.2501 17.125 18.2501H14.5C14.3011 18.2501 14.1103 18.3291 13.9697 18.4698C13.829 18.6104 13.75 18.8012 13.75 19.0001C13.75 19.199 13.829 19.3898 13.9697 19.5304C14.1103 19.6711 14.3011 19.7501 14.5 19.7501H17.5C17.5565 19.7499 17.6127 19.7436 17.6678 19.7313L23.9491 18.2866L23.9781 18.2791C24.1699 18.2259 24.3745 18.2455 24.5527 18.3341C24.7309 18.4227 24.87 18.574 24.9433 18.759C25.0167 18.944 25.0189 19.1496 24.9498 19.3362C24.8806 19.5228 24.7449 19.6772 24.5687 19.7698H24.5716Z" fill="white"/>
</svg>
