<svg width="55" height="55" viewBox="0 0 55 55" fill="none" xmlns="http://www.w3.org/2000/svg">
<path d="M40.5679 39.4453C40.5679 40.1128 40.3699 40.7653 39.9991 41.3204C39.6282 41.8754 39.1011 42.308 38.4844 42.5634C37.8677 42.8188 37.1891 42.8857 36.5344 42.7555C35.8798 42.6252 35.2784 42.3038 34.8064 41.8318C34.3344 41.3598 34.0129 40.7584 33.8827 40.1037C33.7525 39.4491 33.8193 38.7705 34.0748 38.1538C34.3302 37.5371 34.7628 37.01 35.3178 36.6391C35.8728 36.2683 36.5254 36.0703 37.1929 36.0703C38.088 36.0703 38.9464 36.4259 39.5794 37.0588C40.2123 37.6918 40.5679 38.5502 40.5679 39.4453ZM16.9429 18.0703C17.6104 18.0703 18.2629 17.8724 18.8179 17.5015C19.3729 17.1307 19.8055 16.6036 20.061 15.9869C20.3164 15.3702 20.3832 14.6916 20.253 14.0369C20.1228 13.3822 19.8014 12.7808 19.3294 12.3088C18.8574 11.8368 18.256 11.5154 17.6013 11.3852C16.9466 11.2549 16.268 11.3218 15.6513 11.5772C15.0346 11.8327 14.5075 12.2652 14.1367 12.8203C13.7658 13.3753 13.5679 14.0278 13.5679 14.6953C13.5679 15.5904 13.9235 16.4489 14.5564 17.0818C15.1893 17.7147 16.0478 18.0703 16.9429 18.0703ZM54.0679 4.57031V49.5703C54.0679 50.7638 53.5938 51.9084 52.7499 52.7523C51.9059 53.5962 50.7613 54.0703 49.5679 54.0703H4.56787C3.3744 54.0703 2.2298 53.5962 1.38589 52.7523C0.541977 51.9084 0.0678711 50.7638 0.0678711 49.5703L0.0678711 4.57031C0.0678711 3.37684 0.541977 2.23225 1.38589 1.38833C2.2298 0.544418 3.3744 0.0703125 4.56787 0.0703125L49.5679 0.0703125C50.7613 0.0703125 51.9059 0.544418 52.7499 1.38833C53.5938 2.23225 54.0679 3.37684 54.0679 4.57031ZM9.06787 14.6953C9.06787 16.2528 9.52973 17.7754 10.395 19.0704C11.2604 20.3655 12.4903 21.3748 13.9292 21.9709C15.3682 22.5669 16.9516 22.7229 18.4792 22.419C20.0068 22.1151 21.41 21.3651 22.5113 20.2638C23.6127 19.1624 24.3627 17.7593 24.6666 16.2316C24.9704 14.704 24.8145 13.1206 24.2184 11.6817C23.6224 10.2427 22.613 9.0128 21.318 8.14749C20.023 7.28217 18.5004 6.82031 16.9429 6.82031C14.8543 6.82031 12.8513 7.65 11.3744 9.12685C9.89756 10.6037 9.06787 12.6067 9.06787 14.6953ZM45.0679 39.4453C45.0679 37.8878 44.606 36.3652 43.7407 35.0702C42.8754 33.7752 41.6455 32.7658 40.2065 32.1698C38.7675 31.5737 37.1841 31.4178 35.6565 31.7216C34.1289 32.0255 32.7257 32.7755 31.6244 33.8768C30.5231 34.9782 29.773 36.3814 29.4692 37.909C29.1653 39.4366 29.3213 41.02 29.9173 42.4589C30.5134 43.8979 31.5227 45.1278 32.8178 45.9931C34.1128 46.8585 35.6353 47.3203 37.1929 47.3203C39.2815 47.3203 41.2845 46.4906 42.7613 45.0138C44.2382 43.5369 45.0679 41.5339 45.0679 39.4453ZM44.4097 9.72844C44.2008 9.51924 43.9526 9.35328 43.6795 9.24005C43.4063 9.12682 43.1136 9.06854 42.8179 9.06854C42.5222 9.06854 42.2294 9.12682 41.9563 9.24005C41.6831 9.35328 41.435 9.51924 41.226 9.72844L9.726 41.2284C9.3038 41.6506 9.06662 42.2232 9.06662 42.8203C9.06662 43.4174 9.3038 43.99 9.726 44.4122C10.1482 44.8344 10.7208 45.0716 11.3179 45.0716C11.9149 45.0716 12.4876 44.8344 12.9097 44.4122L44.4097 12.9122C44.6189 12.7032 44.7849 12.4551 44.8981 12.1819C45.0114 11.9088 45.0696 11.616 45.0696 11.3203C45.0696 11.0246 45.0114 10.7318 44.8981 10.4587C44.7849 10.1856 44.6189 9.9374 44.4097 9.72844Z" fill="white"/>
</svg>
