<svg width="64" height="55" viewBox="0 0 64 55" fill="none" xmlns="http://www.w3.org/2000/svg">
<path d="M46.4761 0.23291C40.6683 0.23291 35.5833 2.73041 32.4136 6.95197C29.2439 2.73041 24.1589 0.23291 18.3511 0.23291C13.728 0.238121 9.29569 2.07695 6.02666 5.34599C2.75762 8.61503 0.918785 13.0473 0.913574 17.6704C0.913574 37.3579 30.1045 53.2935 31.3476 53.9517C31.6753 54.1279 32.0415 54.2202 32.4136 54.2202C32.7856 54.2202 33.1519 54.1279 33.4795 53.9517C34.7226 53.2935 63.9136 37.3579 63.9136 17.6704C63.9084 13.0473 62.0695 8.61503 58.8005 5.34599C55.5315 2.07695 51.0992 0.238121 46.4761 0.23291ZM32.4136 49.3954C27.2779 46.4029 5.41357 32.7707 5.41357 17.6704C5.41804 14.2405 6.78253 10.9524 9.20781 8.52715C11.6331 6.10186 14.9212 4.73738 18.3511 4.73291C23.8214 4.73291 28.4142 7.64666 30.3323 12.3267C30.5018 12.7393 30.7902 13.0923 31.1608 13.3407C31.5314 13.5891 31.9674 13.7217 32.4136 13.7217C32.8597 13.7217 33.2958 13.5891 33.6664 13.3407C34.0369 13.0923 34.3253 12.7393 34.4948 12.3267C36.4129 7.63822 41.0058 4.73291 46.4761 4.73291C49.9059 4.73738 53.1941 6.10186 55.6193 8.52715C58.0446 10.9524 59.4091 14.2405 59.4136 17.6704C59.4136 32.7482 37.5436 46.4001 32.4136 49.3954Z" fill="white"/>
</svg>
