<svg width="60" height="60" viewBox="0 0 60 60" fill="none" xmlns="http://www.w3.org/2000/svg">
<path d="M29.9356 0.703125C25.7289 0.706342 21.5724 1.61691 17.7496 3.37272C13.9268 5.12853 10.5277 7.68826 7.78427 10.8773C5.04079 14.0663 3.01746 17.8096 1.85232 21.8517C0.687179 25.8939 0.407643 30.1398 1.03278 34.2998C1.65792 38.4598 3.17302 42.436 5.47472 45.9572C7.77642 49.4784 10.8106 52.4617 14.3702 54.7035C17.9297 56.9453 21.931 58.393 26.101 58.9477C30.271 59.5024 34.5116 59.1511 38.5335 57.9178C38.8846 57.8099 39.2035 57.6166 39.4616 57.3553L57.3406 39.4763C57.6015 39.2166 57.7946 38.897 57.9031 38.5453C59.242 34.1704 59.5368 29.5425 58.7639 25.033C57.9911 20.5236 56.172 16.258 53.4527 12.5786C50.7334 8.89915 47.1896 5.9083 43.1055 3.84597C39.0215 1.78363 34.5109 0.707234 29.9356 0.703125ZM19.8106 20.9531C20.4782 20.9531 21.1307 21.1511 21.6857 21.5219C22.2407 21.8928 22.6733 22.4199 22.9287 23.0366C23.1842 23.6533 23.251 24.3319 23.1208 24.9866C22.9906 25.6412 22.6691 26.2426 22.1971 26.7146C21.7251 27.1866 21.1238 27.5081 20.4691 27.6383C19.8144 27.7685 19.1358 27.7017 18.5191 27.4462C17.9024 27.1908 17.3753 26.7582 17.0044 26.2032C16.6336 25.6482 16.4356 24.9956 16.4356 24.3281C16.4356 23.433 16.7912 22.5746 17.4242 21.9416C18.0571 21.3087 18.9155 20.9531 19.8106 20.9531ZM43.1319 37.8281C40.2378 42.8316 35.4285 45.7031 29.9356 45.7031C24.4428 45.7031 19.6335 42.8344 16.7394 37.8281C16.5766 37.572 16.4673 37.2857 16.418 36.9862C16.3688 36.6868 16.3806 36.3805 16.4528 36.0858C16.525 35.791 16.6561 35.5139 16.8381 35.2711C17.0202 35.0284 17.2495 34.8249 17.5122 34.6731C17.7749 34.5212 18.0657 34.4241 18.3669 34.3875C18.6681 34.3509 18.9737 34.3756 19.2651 34.4602C19.5565 34.5447 19.8279 34.6873 20.0628 34.8795C20.2976 35.0716 20.4912 35.3092 20.6319 35.5781C22.7328 39.2091 26.0347 41.2031 29.9356 41.2031C33.8366 41.2031 37.1385 39.2062 39.2394 35.5781C39.3801 35.3092 39.5737 35.0716 39.8085 34.8795C40.0434 34.6873 40.3148 34.5447 40.6062 34.4602C40.8976 34.3756 41.2032 34.3509 41.5044 34.3875C41.8056 34.4241 42.0964 34.5212 42.3591 34.6731C42.6218 34.8249 42.8511 35.0284 43.0332 35.2711C43.2152 35.5139 43.3463 35.791 43.4185 36.0858C43.4907 36.3805 43.5025 36.6868 43.4533 36.9862C43.404 37.2857 43.2947 37.572 43.1319 37.8281ZM40.0606 27.7031C39.3931 27.7031 38.7406 27.5052 38.1856 27.1343C37.6306 26.7635 37.198 26.2364 36.9426 25.6197C36.6871 25.003 36.6203 24.3244 36.7505 23.6697C36.8807 23.015 37.2022 22.4136 37.6742 21.9416C38.1462 21.4696 38.7475 21.1482 39.4022 21.018C40.0569 20.8877 40.7355 20.9546 41.3522 21.21C41.9689 21.4655 42.496 21.8981 42.8669 22.4531C43.2377 23.0081 43.4356 23.6606 43.4356 24.3281C43.4356 25.2232 43.0801 26.0817 42.4471 26.7146C41.8142 27.3475 40.9558 27.7031 40.0606 27.7031Z" fill="white"/>
</svg>
