<svg width="25" height="24" viewBox="0 0 25 24" fill="none" xmlns="http://www.w3.org/2000/svg">
<path d="M24.7499 14.583C24.7398 13.7211 24.548 12.8709 24.1868 12.0882C23.8256 11.3055 23.3032 10.6078 22.6539 10.0408C22.8641 9.46778 22.9709 8.86194 22.9694 8.25152C22.9694 7.91642 22.9356 7.58575 22.8743 7.26753C22.4156 4.83999 20.2877 3 17.7375 3H11.5526V14.3964C11.5526 16.5901 9.67706 18.3768 7.37129 18.3768C7.29868 18.3762 7.22607 18.3745 7.15352 18.3715C4.94909 18.2648 3.1891 16.5217 3.1891 14.3982V6.36442C3.1891 5.83287 3.62732 5.40087 4.16509 5.40087H6.58641C6.74531 5.40228 6.90293 5.37234 7.05026 5.31278C7.19758 5.25321 7.33171 5.16518 7.44498 5.05373C7.55825 4.94228 7.64844 4.80958 7.71038 4.66324C7.77232 4.5169 7.8048 4.35979 7.80596 4.20088C7.80596 3.53866 7.25929 3.00089 6.58641 3.00089H4.16598C2.28155 3.00089 0.75 4.50932 0.75 6.36442V7.44175H0.750889H0.75V14.3982L0.750889 14.4862C0.803333 17.9635 3.75087 20.7777 7.37218 20.7777C11.0228 20.7777 13.9935 17.9155 13.9935 14.3982V5.39999H17.7383C17.7632 5.39999 17.7872 5.40087 17.8095 5.40443C19.3161 5.44265 20.5294 6.70487 20.5294 8.25152C20.5329 8.82028 20.3657 9.37699 20.0494 9.84974C19.6832 10.4151 19.7757 11.0373 20.3383 11.3519C20.9358 11.6724 21.4349 12.1491 21.7825 12.7312C22.13 13.3133 22.3129 13.9789 22.3116 14.6568C22.3116 16.5706 20.8841 18.1501 19.0583 18.3555C18.9252 18.3694 18.7914 18.3765 18.6574 18.3768H14.7144C14.0424 18.3768 13.4966 18.9155 13.4966 19.5777C13.4966 20.2417 14.0424 20.7777 14.7144 20.7777H18.6566C22.0139 20.7777 24.7481 18.031 24.7481 14.6577C24.7507 14.6319 24.7499 14.6079 24.7499 14.583Z" fill="#CC163F"/>
</svg>
