<svg width="25" height="24" viewBox="0 0 25 24" fill="none" xmlns="http://www.w3.org/2000/svg">
<path fill-rule="evenodd" clip-rule="evenodd" d="M12.9364 0C13.256 0 13.596 0.0132389 13.9723 0.0434992V2.34612C13.9723 12.4918 14.3591 16.8777 15.8589 23.6409C13.9425 24.1203 11.9099 24.1203 9.99687 23.6371C11.5066 16.8248 11.8962 12.4389 11.8962 2.34612V0.0434992C12.2763 0.0132389 12.6163 0 12.9364 0ZM24.5152 12.8588C24.5152 8.91262 22.3658 5.44308 19.1364 3.4667L19.1799 6.14569C21.0996 7.79582 22.3157 10.1958 22.3157 12.8588C22.3157 14.0748 22.0556 15.2351 21.5993 16.2952C20.2097 14.9751 19.2197 13.4224 18.6036 11.5888C17.8603 9.36936 17.6868 6.93907 17.6603 3.96978L17.6636 2.69317L17.3913 2.57969L17.1416 2.48324C16.6366 2.29411 16.1165 2.13808 15.5875 2.01988L15.5908 3.966C15.6608 14.2186 17.4371 18.4446 20.0797 21.621C22.7823 19.5813 24.5152 16.4153 24.5152 12.8588ZM10.2777 3.96789L10.281 2.02177C9.56802 2.18158 8.87156 2.40853 8.20489 2.69506L8.2082 3.97167C8.17841 6.93813 8.0082 9.37125 7.26493 11.5907C6.65215 13.4242 5.65876 14.9741 4.26915 16.2971C3.81288 15.237 3.55283 14.0767 3.55283 12.8606C3.55283 10.194 4.76561 7.79771 6.68856 6.14758L6.73206 3.46859C3.49941 5.44119 1.34998 8.91073 1.34998 12.8606C1.34998 16.4172 3.08616 19.5832 5.78548 21.6229C8.43468 18.4503 10.2077 14.2205 10.2777 3.96789Z" fill="#3B175C"/>
</svg>
