<svg width="32" height="32" viewBox="0 0 32 32" fill="none" xmlns="http://www.w3.org/2000/svg">
<rect width="32" height="32" rx="8" fill="#4FBA78"/>
<path d="M25.75 16C25.75 17.9284 25.1782 19.8134 24.1068 21.4168C23.0355 23.0202 21.5127 24.2699 19.7312 25.0078C17.9496 25.7458 15.9892 25.9389 14.0979 25.5627C12.2066 25.1865 10.4693 24.2579 9.10571 22.8943C7.74215 21.5307 6.81355 19.7934 6.43735 17.9021C6.06114 16.0108 6.25422 14.0504 6.99218 12.2688C7.73013 10.4873 8.97982 8.96451 10.5832 7.89317C12.1866 6.82183 14.0716 6.25 16 6.25C18.5849 6.25323 21.063 7.28149 22.8907 9.10927C24.7185 10.9371 25.7468 13.4151 25.75 16Z" fill="white"/>
</svg>
