<svg width="32" height="32" viewBox="0 0 32 32" fill="none" xmlns="http://www.w3.org/2000/svg">
<rect width="32" height="32" rx="8" fill="#EF546C"/>
<path d="M25.75 13C25.7504 12.9303 25.7409 12.8608 25.7219 12.7938L24.3766 8.0875C24.2861 7.77523 24.0971 7.50059 23.8378 7.30459C23.5784 7.10858 23.2626 7.00174 22.9375 7H9.0625C8.73741 7.00174 8.4216 7.10858 8.16223 7.30459C7.90287 7.50059 7.71386 7.77523 7.62344 8.0875L6.27906 12.7938C6.2597 12.8608 6.24991 12.9302 6.25 13V14.5C6.25 15.0822 6.38554 15.6563 6.6459 16.1771C6.90625 16.6978 7.28427 17.1507 7.75 17.5V23.5C7.75 23.8978 7.90804 24.2794 8.18934 24.5607C8.47064 24.842 8.85218 25 9.25 25H22.75C23.1478 25 23.5294 24.842 23.8107 24.5607C24.092 24.2794 24.25 23.8978 24.25 23.5V17.5C24.7157 17.1507 25.0937 16.6978 25.3541 16.1771C25.6145 15.6563 25.75 15.0822 25.75 14.5V13ZM12.25 14.5C12.2499 14.8869 12.15 15.2673 11.9599 15.6043C11.7699 15.9413 11.4962 16.2236 11.1652 16.424C10.8342 16.6244 10.4571 16.736 10.0704 16.7481C9.68368 16.7602 9.30037 16.6724 8.9575 16.4931C8.90533 16.4525 8.84794 16.4191 8.78688 16.3937C8.46913 16.1903 8.20764 15.9103 8.02645 15.5794C7.84527 15.2484 7.7502 14.8773 7.75 14.5V13.75H12.25V14.5ZM18.25 14.5C18.25 15.0967 18.0129 15.669 17.591 16.091C17.169 16.5129 16.5967 16.75 16 16.75C15.4033 16.75 14.831 16.5129 14.409 16.091C13.9871 15.669 13.75 15.0967 13.75 14.5V13.75H18.25V14.5ZM24.25 14.5C24.2497 14.8774 24.1545 15.2486 23.9731 15.5795C23.7918 15.9104 23.5301 16.1904 23.2122 16.3937C23.1519 16.4191 23.0952 16.4522 23.0434 16.4922C22.7006 16.6716 22.3173 16.7596 21.9305 16.7477C21.5437 16.7357 21.1666 16.6242 20.8355 16.424C20.5044 16.2237 20.2305 15.9414 20.0404 15.6044C19.8502 15.2673 19.7502 14.887 19.75 14.5V13.75H24.25V14.5Z" fill="white"/>
</svg>
