<svg width="32" height="32" viewBox="0 0 32 32" fill="none" xmlns="http://www.w3.org/2000/svg">
<rect width="32" height="32" rx="8" fill="#EBC74F"/>
<path d="M20.4998 23.4289C21.0171 23.225 21.5185 22.9828 21.9998 22.7042V26.5001C21.9998 26.699 21.9207 26.8898 21.7801 27.0304C21.6394 27.1711 21.4487 27.2501 21.2498 27.2501C21.0509 27.2501 20.8601 27.1711 20.7194 27.0304C20.5788 26.8898 20.4998 26.699 20.4998 26.5001V23.4289ZM21.6023 15.1386L16.3523 12.3382C16.1771 12.2488 15.9738 12.2317 15.7862 12.2907C15.5985 12.3497 15.4416 12.48 15.3491 12.6536C15.2567 12.8272 15.2361 13.0302 15.2919 13.2188C15.3476 13.4074 15.4753 13.5666 15.6473 13.662L20.031 16.0001L21.6248 15.1507L21.6023 15.1386ZM27.6023 12.3382L16.3523 6.33824C16.2438 6.28046 16.1227 6.25024 15.9998 6.25024C15.8768 6.25024 15.7558 6.28046 15.6473 6.33824L4.39727 12.3382C4.27727 12.4022 4.17692 12.4976 4.10694 12.6141C4.03696 12.7307 4 12.8641 4 13.0001C4 13.1361 4.03696 13.2695 4.10694 13.3861C4.17692 13.5027 4.27727 13.598 4.39727 13.662L6.99977 15.0504V19.5898C6.99899 19.9582 7.13457 20.3139 7.38039 20.5882C8.60852 21.9561 11.3601 24.2501 15.9998 24.2501C17.5382 24.2628 19.065 23.9842 20.4998 23.4289V16.2504L20.031 16.0001L15.9998 18.1498L8.10883 13.9376L6.34352 13.0001L15.9998 7.85043L25.656 13.0001L23.8954 13.9376H23.8898L21.6248 15.1507C21.7388 15.2166 21.8335 15.3113 21.8993 15.4253C21.9652 15.5394 21.9998 15.6687 21.9998 15.8004V22.7042C22.9778 22.1396 23.8616 21.4257 24.6191 20.5882C24.865 20.3139 25.0005 19.9582 24.9998 19.5898V15.0504L27.6023 13.662C27.7223 13.598 27.8226 13.5027 27.8926 13.3861C27.9626 13.2695 27.9995 13.1361 27.9995 13.0001C27.9995 12.8641 27.9626 12.7307 27.8926 12.6141C27.8226 12.4976 27.7223 12.4022 27.6023 12.3382Z" fill="white"/>
</svg>
