<svg width="32" height="32" viewBox="0 0 32 32" fill="none" xmlns="http://www.w3.org/2000/svg">
<rect width="32" height="32" rx="8" fill="#7C4EDA"/>
<path d="M25.2991 13.795C25.6379 13.7261 25.9425 13.5422 26.1613 13.2745C26.3802 13.0068 26.4998 12.6717 26.5 12.3259V10C26.5 9.60218 26.342 9.22064 26.0607 8.93934C25.7794 8.65804 25.3978 8.5 25 8.5H7C6.60218 8.5 6.22065 8.65804 5.93934 8.93934C5.65804 9.22064 5.5 9.60218 5.5 10V12.3259C5.50019 12.6717 5.61983 13.0068 5.83867 13.2745C6.05751 13.5422 6.36212 13.7261 6.70094 13.795C7.20757 13.9001 7.66251 14.1765 7.98912 14.5778C8.31573 14.9791 8.49406 15.4807 8.49406 15.9981C8.49406 16.5155 8.31573 17.0171 7.98912 17.4184C7.66251 17.8197 7.20757 18.0962 6.70094 18.2013C6.36148 18.2703 6.0564 18.4547 5.83748 18.7232C5.61857 18.9917 5.49933 19.3277 5.5 19.6741V22C5.5 22.3978 5.65804 22.7794 5.93934 23.0607C6.22065 23.342 6.60218 23.5 7 23.5H25C25.3978 23.5 25.7794 23.342 26.0607 23.0607C26.342 22.7794 26.5 22.3978 26.5 22V19.6741C26.4998 19.3283 26.3802 18.9932 26.1613 18.7255C25.9425 18.4578 25.6379 18.2739 25.2991 18.205C24.7924 18.0999 24.3375 17.8235 24.0109 17.4222C23.6843 17.0209 23.5059 16.5193 23.5059 16.0019C23.5059 15.4845 23.6843 14.9829 24.0109 14.5816C24.3375 14.1803 24.7924 13.9038 25.2991 13.7987V13.795ZM7 19.675C7.84722 19.5024 8.60876 19.0424 9.15573 18.3728C9.70269 17.7031 10.0015 16.8651 10.0015 16.0005C10.0015 15.1359 9.70269 14.2978 9.15573 13.6282C8.60876 12.9586 7.84722 12.4985 7 12.3259V10H12.25V22H7V19.675Z" fill="white"/>
</svg>
