<svg width="32" height="32" viewBox="0 0 32 32" fill="none" xmlns="http://www.w3.org/2000/svg">
<rect width="32" height="32" rx="8" fill="#55D679"/>
<path d="M25.75 22H22.75V19.75H25C25.114 19.75 25.2264 19.724 25.3288 19.674C25.4313 19.6241 25.5209 19.5514 25.5911 19.4616C25.6612 19.3717 25.7099 19.2671 25.7336 19.1556C25.7572 19.0441 25.7551 18.9287 25.7275 18.8182L22.7275 6.81816C22.6869 6.65599 22.5932 6.51205 22.4614 6.4092C22.3296 6.30635 22.1672 6.25049 22 6.25049C21.8328 6.25049 21.6704 6.30635 21.5386 6.4092C21.4068 6.51205 21.3131 6.65599 21.2725 6.81816L18.2725 18.8182C18.2449 18.9287 18.2428 19.0441 18.2664 19.1556C18.2901 19.2671 18.3388 19.3717 18.4089 19.4616C18.4791 19.5514 18.5687 19.6241 18.6712 19.674C18.7736 19.724 18.886 19.75 19 19.75H21.25V22H15.25V20.5H16C16.1989 20.5 16.3897 20.421 16.5303 20.2804C16.671 20.1397 16.75 19.9489 16.75 19.75C16.75 19.5511 16.671 19.3604 16.5303 19.2197C16.3897 19.0791 16.1989 19 16 19H15.25V17.5H16C16.1989 17.5 16.3897 17.421 16.5303 17.2804C16.671 17.1397 16.75 16.9489 16.75 16.75C16.75 16.5511 16.671 16.3604 16.5303 16.2197C16.3897 16.0791 16.1989 16 16 16H7.75C7.55109 16 7.36032 16.0791 7.21967 16.2197C7.07902 16.3604 7 16.5511 7 16.75C7 16.9489 7.07902 17.1397 7.21967 17.2804C7.36032 17.421 7.55109 17.5 7.75 17.5H8.5V19H7.75C7.55109 19 7.36032 19.0791 7.21967 19.2197C7.07902 19.3604 7 19.5511 7 19.75C7 19.9489 7.07902 20.1397 7.21967 20.2804C7.36032 20.421 7.55109 20.5 7.75 20.5H8.5V22H6.25C6.05109 22 5.86032 22.0791 5.71967 22.2197C5.57902 22.3604 5.5 22.5511 5.5 22.75C5.5 22.9489 5.57902 23.1397 5.71967 23.2804C5.86032 23.421 6.05109 23.5 6.25 23.5H25.75C25.9489 23.5 26.1397 23.421 26.2803 23.2804C26.421 23.1397 26.5 22.9489 26.5 22.75C26.5 22.5511 26.421 22.3604 26.2803 22.2197C26.1397 22.0791 25.9489 22 25.75 22ZM13.75 22H10V20.5H13.75V22ZM13.75 19H10V17.5H13.75V19ZM14.875 13C15.3942 13 15.9017 12.8461 16.3334 12.5576C16.7651 12.2692 17.1015 11.8592 17.3002 11.3796C17.4989 10.8999 17.5508 10.3721 17.4496 9.86292C17.3483 9.35372 17.0983 8.88599 16.7312 8.51888C16.364 8.15177 15.8963 7.90176 15.3871 7.80047C14.8779 7.69919 14.3501 7.75117 13.8705 7.94985C13.3908 8.14853 12.9808 8.48498 12.6924 8.91666C12.404 9.34834 12.25 9.85586 12.25 10.375C12.25 11.0712 12.5266 11.7389 13.0188 12.2312C13.5111 12.7235 14.1788 13 14.875 13ZM14.875 9.25003C15.0975 9.25003 15.315 9.31601 15.5 9.43963C15.685 9.56325 15.8292 9.73895 15.9144 9.94452C15.9995 10.1501 16.0218 10.3763 15.9784 10.5945C15.935 10.8127 15.8278 11.0132 15.6705 11.1705C15.5132 11.3279 15.3127 11.435 15.0945 11.4784C14.8762 11.5218 14.65 11.4995 14.4445 11.4144C14.2389 11.3293 14.0632 11.1851 13.9396 11.0001C13.816 10.815 13.75 10.5975 13.75 10.375C13.75 10.0767 13.8685 9.79052 14.0795 9.57954C14.2905 9.36856 14.5766 9.25003 14.875 9.25003Z" fill="white"/>
</svg>
