<svg width="32" height="32" viewBox="0 0 32 32" fill="none" xmlns="http://www.w3.org/2000/svg">
<rect width="32" height="32" rx="8" fill="#48CCA4"/>
<path d="M23.5 11.5H7C6.80109 11.5 6.61032 11.579 6.46967 11.7197C6.32902 11.8603 6.25 12.0511 6.25 12.25V16.75C6.25224 18.0269 6.52531 19.2887 7.05117 20.4523C7.57703 21.6158 8.34372 22.6546 9.30063 23.5H7C6.80109 23.5 6.61032 23.579 6.46967 23.7197C6.32902 23.8603 6.25 24.0511 6.25 24.25C6.25 24.4489 6.32902 24.6397 6.46967 24.7803C6.61032 24.921 6.80109 25 7 25H23.5C23.6989 25 23.8897 24.921 24.0303 24.7803C24.171 24.6397 24.25 24.4489 24.25 24.25C24.25 24.0511 24.171 23.8603 24.0303 23.7197C23.8897 23.579 23.6989 23.5 23.5 23.5H21.1994C22.348 22.482 23.219 21.1887 23.7306 19.7416C24.6832 19.6829 25.5776 19.2632 26.2315 18.568C26.8854 17.8728 27.2497 16.9544 27.25 16V15.25C27.25 14.2554 26.8549 13.3016 26.1516 12.5983C25.4484 11.8951 24.4946 11.5 23.5 11.5ZM25.75 16C25.7497 16.4852 25.5925 16.9574 25.3019 17.3459C25.0113 17.7345 24.6028 18.0188 24.1375 18.1562C24.2118 17.6912 24.2494 17.221 24.25 16.75V13.1294C24.6886 13.2844 25.0683 13.5716 25.3369 13.9514C25.6055 14.3311 25.7499 14.7848 25.75 15.25V16ZM14.5 9.25V6.25C14.5 6.05109 14.579 5.86032 14.7197 5.71967C14.8603 5.57902 15.0511 5.5 15.25 5.5C15.4489 5.5 15.6397 5.57902 15.7803 5.71967C15.921 5.86032 16 6.05109 16 6.25V9.25C16 9.44891 15.921 9.63968 15.7803 9.78033C15.6397 9.92098 15.4489 10 15.25 10C15.0511 10 14.8603 9.92098 14.7197 9.78033C14.579 9.63968 14.5 9.44891 14.5 9.25ZM17.5 9.25V6.25C17.5 6.05109 17.579 5.86032 17.7197 5.71967C17.8603 5.57902 18.0511 5.5 18.25 5.5C18.4489 5.5 18.6397 5.57902 18.7803 5.71967C18.921 5.86032 19 6.05109 19 6.25V9.25C19 9.44891 18.921 9.63968 18.7803 9.78033C18.6397 9.92098 18.4489 10 18.25 10C18.0511 10 17.8603 9.92098 17.7197 9.78033C17.579 9.63968 17.5 9.44891 17.5 9.25ZM11.5 9.25V6.25C11.5 6.05109 11.579 5.86032 11.7197 5.71967C11.8603 5.57902 12.0511 5.5 12.25 5.5C12.4489 5.5 12.6397 5.57902 12.7803 5.71967C12.921 5.86032 13 6.05109 13 6.25V9.25C13 9.44891 12.921 9.63968 12.7803 9.78033C12.6397 9.92098 12.4489 10 12.25 10C12.0511 10 11.8603 9.92098 11.7197 9.78033C11.579 9.63968 11.5 9.44891 11.5 9.25Z" fill="white"/>
</svg>
