<svg width="32" height="32" viewBox="0 0 32 32" fill="none" xmlns="http://www.w3.org/2000/svg">
<rect width="32" height="32" rx="8" fill="#F1704F"/>
<path d="M22.7497 10V22C22.7497 22.3978 22.5917 22.7794 22.3104 23.0607C22.0291 23.342 21.6475 23.5 21.2497 23.5H19.7497C19.3519 23.5 18.9703 23.342 18.689 23.0607C18.4077 22.7794 18.2497 22.3978 18.2497 22V16.75H13.7497V22C13.7497 22.3978 13.5917 22.7794 13.3104 23.0607C13.029 23.342 12.6475 23.5 12.2497 23.5H10.7497C10.3519 23.5 9.97034 23.342 9.68903 23.0607C9.40773 22.7794 9.24969 22.3978 9.24969 22V10C9.24969 9.60218 9.40773 9.22064 9.68903 8.93934C9.97034 8.65804 10.3519 8.5 10.7497 8.5H12.2497C12.6475 8.5 13.029 8.65804 13.3104 8.93934C13.5917 9.22064 13.7497 9.60218 13.7497 10V15.25H18.2497V10C18.2497 9.60218 18.4077 9.22064 18.689 8.93934C18.9703 8.65804 19.3519 8.5 19.7497 8.5H21.2497C21.6475 8.5 22.0291 8.65804 22.3104 8.93934C22.5917 9.22064 22.7497 9.60218 22.7497 10ZM7.37469 10.75H6.99969C6.60187 10.75 6.22034 10.908 5.93903 11.1893C5.65773 11.4706 5.49969 11.8522 5.49969 12.25V15.25H4.77501C4.58119 15.2471 4.39349 15.3178 4.24964 15.4477C4.1058 15.5776 4.0165 15.7572 3.99969 15.9503C3.99288 16.0529 4.00724 16.1558 4.04187 16.2526C4.0765 16.3494 4.13066 16.4381 4.20099 16.5131C4.27133 16.5881 4.35633 16.6478 4.45072 16.6885C4.54511 16.7293 4.64688 16.7502 4.74969 16.75H5.49969V19.75C5.49969 20.1478 5.65773 20.5294 5.93903 20.8107C6.22034 21.092 6.60187 21.25 6.99969 21.25H7.37469C7.47415 21.25 7.56953 21.2105 7.63986 21.1402C7.71019 21.0698 7.74969 20.9745 7.74969 20.875V11.125C7.74969 11.0255 7.71019 10.9302 7.63986 10.8598C7.56953 10.7895 7.47415 10.75 7.37469 10.75ZM27.9997 15.9503C27.9829 15.7575 27.8939 15.5782 27.7504 15.4483C27.607 15.3185 27.4197 15.2476 27.2263 15.25H26.4997V12.25C26.4997 11.8522 26.3417 11.4706 26.0604 11.1893C25.7791 10.908 25.3975 10.75 24.9997 10.75H24.6247C24.5252 10.75 24.4299 10.7895 24.3595 10.8598C24.2892 10.9302 24.2497 11.0255 24.2497 11.125V20.875C24.2497 20.9745 24.2892 21.0698 24.3595 21.1402C24.4299 21.2105 24.5252 21.25 24.6247 21.25H24.9997C25.3975 21.25 25.7791 21.092 26.0604 20.8107C26.3417 20.5294 26.4997 20.1478 26.4997 19.75V16.75H27.2497C27.3525 16.7502 27.4543 16.7293 27.5487 16.6885C27.6431 16.6478 27.7281 16.5881 27.7984 16.5131C27.8687 16.4381 27.9229 16.3494 27.9575 16.2526C27.9922 16.1558 28.0065 16.0529 27.9997 15.9503Z" fill="white"/>
</svg>
