<svg width="258" height="269" viewBox="0 0 258 269" fill="none" xmlns="http://www.w3.org/2000/svg">
<g opacity="0.1">
<path d="M258 122.997V247.227C258 252.929 255.735 258.398 251.703 262.43C247.671 266.462 242.202 268.727 236.5 268.727H182.75C177.048 268.727 171.579 266.462 167.547 262.43C163.515 258.398 161.25 252.929 161.25 247.227V193.477C161.25 190.626 160.117 187.892 158.101 185.876C156.085 183.86 153.351 182.727 150.5 182.727H107.5C104.649 182.727 101.915 183.86 99.8986 185.876C97.8826 187.892 96.75 190.626 96.75 193.477V247.227C96.75 252.929 94.4848 258.398 90.4528 262.43C86.4208 266.462 80.9522 268.727 75.25 268.727H21.5C15.7978 268.727 10.3292 266.462 6.2972 262.43C2.26517 258.398 2.4843e-07 252.929 2.4843e-07 247.227V122.997C-0.000452076 120.022 0.616771 117.079 1.8126 114.354C3.00844 111.629 4.75684 109.182 6.94719 107.168L114.447 5.74183L114.595 5.59402C118.553 1.99456 123.711 0 129.06 0C134.41 0 139.568 1.99456 143.526 5.59402C143.572 5.6466 143.621 5.69599 143.674 5.74183L251.174 107.168C253.342 109.193 255.068 111.644 256.243 114.369C257.418 117.093 258.016 120.031 258 122.997Z" fill="#8F8F8F"/>
</g>
</svg>
