<svg width="25" height="24" viewBox="0 0 25 24" fill="none" xmlns="http://www.w3.org/2000/svg">
<path fill-rule="evenodd" clip-rule="evenodd" d="M0.083374 12.0065C0.083374 5.38216 5.46749 0 12.0915 0C18.7006 0 24.0834 5.38216 24.0834 12.0065C24.0834 18.6172 18.7006 24 12.0915 24C5.46749 24 0.083374 18.6172 0.083374 12.0065ZM0.683309 12.0065C0.683309 18.2865 5.80082 23.3997 12.0915 23.3997C18.3695 23.3997 23.4834 18.2852 23.4834 12.0065C23.4834 5.71615 18.3715 0.60026 12.0915 0.60026C5.79887 0.60026 0.683309 5.71354 0.683309 12.0065ZM15.4965 4.46224C13.5974 3.61523 10.0586 3.53125 7.15987 4.82227C7.39164 4.65625 7.6335 4.50651 7.88448 4.3724C8.03748 4.29036 8.19405 4.21419 8.35323 4.14453C9.26599 3.7194 10.738 3.30729 12.5726 3.30729C12.6592 3.30729 12.7458 3.30794 12.8327 3.3099C14.4014 3.33789 16.2611 3.87956 17.3978 5.00391C17.5912 5.23958 17.7032 5.47461 17.7445 5.65625C18.6465 6.11458 19.1732 6.54427 19.4639 7.04427C19.5899 7.30729 19.6312 7.58398 19.5746 7.90365C19.8705 8.06966 20.127 8.29753 20.3265 8.57227C20.4493 8.77995 20.5466 9.01367 20.5752 9.22526C20.6159 9.50065 20.6433 9.81966 20.3519 10.1953C20.6573 10.3483 20.906 10.7767 20.9359 10.959C21.0886 11.6367 20.6433 12.3034 20.0752 12.8184C19.6501 13.1895 18.8985 13.6061 18.1 13.9388C17.6462 14.1276 17.1771 14.2897 16.7445 14.4004C15.0775 14.8223 13.5401 15.071 12.1944 15.2891C11.6384 15.3796 11.115 15.4642 10.6286 15.5534C11.072 15.6595 11.6081 15.7865 12.3145 15.8717C12.8008 15.931 13.3679 15.9701 14.0414 15.9701C17.5772 15.9701 20.6993 14.3027 20.6993 14.3027C20.6993 14.3027 20.6306 14.5124 20.5599 14.707C18.3132 16.0664 14.7487 16.6348 13.2214 16.5651C11.6814 16.4948 10.378 16.2598 9.10128 15.8704C8.7113 15.9805 8.32719 16.11 7.95056 16.2598C9.89392 17.1478 11.3633 17.3431 13.0147 17.4668C14.7058 17.5931 17.5098 17.1888 19.8659 16.3307C19.8132 16.3841 19.7728 16.4499 19.7334 16.5143C19.6901 16.5846 19.6475 16.6543 19.5899 16.7051C18.3825 17.3431 15.8314 17.9818 14.5407 18.0371C13.2634 18.0931 11.71 18.0371 10.35 17.7865C9.18461 17.5521 8.22595 17.1888 7.22791 16.7467C7.04919 16.8835 6.96586 17.0521 6.92257 17.2467C10.8233 19.2865 14.4558 19.3268 18.6058 18.0371L18.2299 18.3984C13.6654 20.2585 10.1 19.5358 7.33793 18.2031C7.24255 18.1615 7.13123 18.1191 7.04919 18.0645C7.31319 18.5091 9.41996 20.0495 11.7787 20.2441C12.6316 20.3171 13.5834 20.2747 14.4655 20.1504C15.2637 20.0378 16.0052 19.8574 16.5651 19.6341L15.8718 19.9941C15.3025 20.2721 13.7907 20.9121 11.6807 20.7721C8.86528 20.5768 7.28324 19.3275 6.57524 18.6764C6.24255 18.3691 6.09119 18.0234 5.99321 17.5931C5.35453 17.2598 4.95251 16.9115 4.62113 16.3848C4.42647 16.0938 4.46651 15.7474 4.50785 15.4538L4.59444 15.207C4.28715 14.9824 3.96847 14.7467 3.84379 14.5124C3.56449 14.0124 3.73376 13.5814 3.92712 13.248C3.8656 13.1771 3.80603 13.1061 3.75199 13.0352C3.6589 12.9121 3.58207 12.7891 3.54008 12.666C3.45577 12.444 3.44275 12.2194 3.46781 11.9707C3.52445 11.5553 3.74646 11.168 4.0378 10.8333C4.64718 10.125 5.62048 9.57031 7.26925 9.0293C8.52641 8.60938 9.20154 8.46419 10.0082 8.29102C10.2442 8.24023 10.4913 8.1875 10.7673 8.12435C12.196 7.79362 13.9027 7.68359 15.3304 7.18359C11.3487 6.49023 7.21521 7.1276 3.84379 9.44336L4.06515 8.79167C7.08923 6.82161 10.4333 5.65625 16.0931 6.64193C16.3985 6.46094 16.5785 6.27995 16.6631 5.91992C15.2471 5.4069 13.708 5.22656 11.7247 5.25326C9.94796 5.3099 6.7419 5.97331 5.02446 6.99023L5.54919 6.33659C6.7419 5.6263 9.86332 4.69792 12.21 4.65625C13.8594 4.61523 14.7058 4.71159 16.6765 5.23958C16.4945 4.9082 16.0931 4.74023 15.4965 4.46224ZM18.5205 7.35026C18.4665 6.96159 18.0225 6.58659 17.6332 6.33659C17.597 6.46289 17.4978 6.60612 17.3942 6.73307C17.3383 6.80208 17.281 6.86589 17.2318 6.91992C17.6618 7.0319 18.1058 7.19596 18.5205 7.35026ZM16.6218 7.47396C16.3425 7.69661 16.0251 7.88997 15.5518 8.07227C16.3304 8.20833 16.9131 8.43099 17.5772 8.61263C17.584 8.61589 17.5918 8.61719 17.5993 8.61654C17.7439 8.61654 18.2191 8.17708 18.3011 8.05664C18.044 7.94401 17.7552 7.83073 17.4457 7.72461C17.1836 7.63477 16.9069 7.54948 16.6218 7.47396ZM19.5899 9.51432C19.7692 9.16732 19.6586 8.94531 19.2852 8.62565C19.1319 8.80794 18.9652 8.95898 18.7852 9.09766C18.9161 9.16016 19.0417 9.21419 19.1631 9.27148C19.3112 9.34115 19.4532 9.41537 19.5899 9.51432ZM13.348 8.77995C11.5166 9.00195 9.48995 9.38867 7.75655 9.903L7.6641 9.93099C6.80375 10.1927 3.5505 11.1797 4.53845 12.5404L4.55017 12.5273C4.64457 12.4206 5.33044 11.6413 7.4919 11.013C9.01241 10.5664 10.5713 10.2826 12.1547 9.99414C13.5769 9.73503 15.0189 9.47201 16.4698 9.08464C15.6062 8.85482 15.0176 8.71745 14.2813 8.7168C13.9997 8.7168 13.6967 8.73698 13.348 8.77995ZM15.3314 10.459C14.3467 10.7083 11.9594 11.0553 9.39392 11.61C8.58858 11.7904 6.38188 12.3034 5.29985 13.2201C5.47335 13.3633 5.61137 13.4427 5.75916 13.5202C5.87081 13.5788 5.98832 13.6367 6.13123 13.7201C6.57524 13.4277 7.18656 13.1504 8.08988 12.9134C9.51469 12.5352 10.6221 12.3529 11.8767 12.1465L12.2513 12.0846C13.6527 11.8724 16.3018 11.3177 17.7579 10.7904C18.0928 10.6771 18.4066 10.5365 18.6739 10.373C18.7953 10.2988 18.9069 10.2201 19.0066 10.1374C18.9092 10.028 17.9659 9.57031 17.9379 9.61263C17.3571 9.88932 16.5245 10.166 15.3314 10.459ZM16.3164 12.3464C13.348 13.1504 11.196 13.2598 8.75395 13.86C8.4727 13.931 8.18722 14.013 7.90824 14.1068C7.70512 14.1745 7.50525 14.2487 7.31319 14.3301C7.76925 14.5664 8.26925 14.7754 8.76794 14.9701C9.76664 14.6784 10.2406 14.5534 11.6807 14.3177L12.4805 14.1738C13.2432 14.0345 14.3083 13.8372 15.1491 13.6667C17.3571 13.1927 20.5892 12.1654 19.7292 10.8333C19.6862 10.8698 19.6433 10.903 19.6003 10.9362C19.5459 10.9792 19.4919 11.0221 19.4379 11.0697C18.7852 11.5664 17.7445 11.9707 16.3164 12.3464ZM5.0505 14.5664C5.14653 14.4701 5.2725 14.3861 5.36983 14.3027C5.14653 14.1875 4.99353 14.0898 4.81807 13.9779L4.71716 13.9134C4.60583 14.166 4.82979 14.4401 5.0505 14.5664ZM7.62992 15.3717C7.22791 15.1914 6.79854 15.0124 6.38188 14.8177C6.18787 14.9427 6.0085 15.0664 5.86918 15.1914C6.20186 15.3861 6.52185 15.5651 6.85518 15.748C7.1003 15.597 7.35974 15.4707 7.62992 15.3717ZM6.0085 16.6634C6.04854 16.5234 6.11918 16.4134 6.21651 16.2747C6.10681 16.2161 5.99744 16.1582 5.88806 16.0977C5.76111 16.0267 5.63481 15.9531 5.5085 15.8704C5.49321 16.1354 5.66117 16.3711 6.0085 16.6634Z" fill="#476BF0"/>
</svg>
