<svg width="25" height="24" viewBox="0 0 25 24" fill="none" xmlns="http://www.w3.org/2000/svg">
<path d="M18.4953 0L5.56677 1.70629V5.57143L18.4953 4.40583V0Z" fill="#E40038"/>
<path d="M13.5527 7.78564C11.4449 7.78564 9.73171 9.08395 9.30698 9.62143V8.06348H5.56677V23.9999H9.28354V18.3316C9.71988 18.8808 11.4212 20.1557 13.5408 20.1557C17.0582 20.1557 18.9953 18.2498 18.9953 13.9616C18.9953 9.67336 17.0608 7.78564 13.5527 7.78564ZM12.2212 17.0684C10.0066 17.0684 9.30959 16.2648 9.30959 13.9525C9.30959 11.6403 10.0014 10.8366 12.2212 10.8366C14.4409 10.8366 15.1197 11.6286 15.1197 13.9525C15.1197 16.2764 14.4514 17.0632 12.2212 17.0632V17.0684Z" fill="#00234D"/>
</svg>
