<svg width="24" height="24" viewBox="0 0 24 24" fill="none" xmlns="http://www.w3.org/2000/svg">
<path d="M21.211 4.66211C21.7735 5.39912 22.2497 6.19981 22.6299 7.04812L11.8438 15.1061L7.33606 12.2424V8.7971L11.8438 11.6609L21.211 4.66211Z" fill="#4FBA78"/>
<path d="M2.73556 11.9998C2.73556 11.8452 2.73928 11.6917 2.74672 11.539L0.0148781 11.4033C0.00557979 11.6012 3.3013e-06 11.801 3.3013e-06 12.0026C-0.00115902 13.5781 0.304613 15.1382 0.899786 16.5936C1.49495 18.049 2.36781 19.371 3.46827 20.4837L5.40603 18.5208C4.55894 17.6658 3.88693 16.6495 3.42864 15.5304C2.97035 14.4113 2.73481 13.2115 2.73556 11.9998Z" fill="#4FBA78"/>
<path d="M11.8414 2.77196C11.9939 2.77196 12.1454 2.77762 12.296 2.78515L12.4327 0.0156083C12.2369 0.00618488 12.0397 0.00147374 11.8414 0.00147374C10.2861 -0.000448406 8.74586 0.308991 7.30896 0.912024C5.87205 1.51506 4.56684 2.39981 3.46826 3.51548L5.40603 5.47932C6.24974 4.62054 7.25264 3.93924 8.35705 3.47462C9.46147 3.01 10.6456 2.7712 11.8414 2.77196Z" fill="#4FBA78"/>
<path d="M11.8414 21.2279C11.6889 21.2279 11.5374 21.2279 11.3858 21.2156L11.2491 23.9842C11.4456 23.9943 11.6431 23.9993 11.8414 23.9993C13.3961 24.0009 14.9356 23.6913 16.3717 23.0881C17.8079 22.4849 19.1122 21.6 20.21 20.4844L18.2759 18.5215C17.432 19.3798 16.4292 20.0607 15.325 20.5252C14.2208 20.9896 13.037 21.2285 11.8414 21.2279Z" fill="#4FBA78"/>
<path d="M16.9743 4.38191L19.2766 2.66214C17.1723 0.935255 14.5456 -0.00479364 11.8379 1.83827e-05V2.77145C13.6714 2.76914 15.4624 3.3307 16.9743 4.38191Z" fill="#4FBA78"/>
<path d="M23.6819 12C23.6834 11.2791 23.6212 10.5594 23.4959 9.84961L20.9473 11.7531C20.9473 11.8352 20.9473 11.9171 20.9473 12C20.9479 13.2894 20.6812 14.5646 20.1645 15.7428C19.6478 16.921 18.8925 17.9761 17.9476 18.8395L19.7859 20.8986C21.0143 19.7748 21.9959 18.4019 22.667 16.869C23.3382 15.336 23.684 13.6771 23.6819 12Z" fill="#4FBA78"/>
<path d="M11.8414 21.228C10.5691 21.2284 9.31078 20.9581 8.14803 20.4344C6.98534 19.9107 5.94411 19.1454 5.09178 18.188L3.06104 20.0501C4.16982 21.2951 5.52444 22.2901 7.03706 22.9705C8.54968 23.6508 10.1865 24.0014 11.8414 23.9994V21.228Z" fill="#4FBA78"/>
<path d="M5.7352 5.16009L3.89785 3.10107C2.66915 4.2247 1.68721 5.59752 1.01571 7.1305C0.344218 8.66346 -0.00183072 10.3224 7.2835e-06 11.9996H2.73557C2.735 10.7103 3.00174 9.43513 3.51847 8.2569C4.03521 7.0787 4.79043 6.02363 5.7352 5.16009Z" fill="#4FBA78"/>
</svg>
