<svg xmlns="http://www.w3.org/2000/svg" viewBox="0 0 24 24">
  <path d="M19.5 7.5H3C2.80109 7.5 2.61032 7.57902 2.46967 7.71967C2.32902 7.86032 2.25 8.05109 2.25 8.25V12.75C2.25224 14.0269 2.52531 15.2887 3.05117 16.4523C3.57703 17.6158 4.34372 18.6546 5.30063 19.5H3C2.80109 19.5 2.61032 19.579 2.46967 19.7197C2.32902 19.8603 2.25 20.0511 2.25 20.25C2.25 20.4489 2.32902 20.6397 2.46967 20.7803C2.61032 20.921 2.80109 21 3 21H19.5C19.6989 21 19.8897 20.921 20.0303 20.7803C20.171 20.6397 20.25 20.4489 20.25 20.25C20.25 20.0511 20.171 19.8603 20.0303 19.7197C19.8897 19.579 19.6989 19.5 19.5 19.5H17.1994C18.348 18.482 19.219 17.1887 19.7306 15.7416C20.6832 15.6829 21.5776 15.2632 22.2315 14.568C22.8854 13.8728 23.2497 12.9544 23.25 12V11.25C23.25 10.2554 22.8549 9.30161 22.1516 8.59835C21.4484 7.89509 20.4946 7.5 19.5 7.5ZM21.75 12C21.7497 12.4852 21.5925 12.9574 21.3019 13.3459C21.0113 13.7345 20.6028 14.0188 20.1375 14.1562C20.2118 13.6912 20.2494 13.221 20.25 12.75V9.12937C20.6886 9.28443 21.0683 9.57161 21.3369 9.95137C21.6055 10.3311 21.7499 10.7848 21.75 11.25V12ZM10.5 5.25V2.25C10.5 2.05109 10.579 1.86032 10.7197 1.71967C10.8603 1.57902 11.0511 1.5 11.25 1.5C11.4489 1.5 11.6397 1.57902 11.7803 1.71967C11.921 1.86032 12 2.05109 12 2.25V5.25C12 5.44891 11.921 5.63968 11.7803 5.78033C11.6397 5.92098 11.4489 6 11.25 6C11.0511 6 10.8603 5.92098 10.7197 5.78033C10.579 5.63968 10.5 5.44891 10.5 5.25ZM13.5 5.25V2.25C13.5 2.05109 13.579 1.86032 13.7197 1.71967C13.8603 1.57902 14.0511 1.5 14.25 1.5C14.4489 1.5 14.6397 1.57902 14.7803 1.71967C14.921 1.86032 15 2.05109 15 2.25V5.25C15 5.44891 14.921 5.63968 14.7803 5.78033C14.6397 5.92098 14.4489 6 14.25 6C14.0511 6 13.8603 5.92098 13.7197 5.78033C13.579 5.63968 13.5 5.44891 13.5 5.25ZM7.5 5.25V2.25C7.5 2.05109 7.57902 1.86032 7.71967 1.71967C7.86032 1.57902 8.05109 1.5 8.25 1.5C8.44891 1.5 8.63968 1.57902 8.78033 1.71967C8.92098 1.86032 9 2.05109 9 2.25V5.25C9 5.44891 8.92098 5.63968 8.78033 5.78033C8.63968 5.92098 8.44891 6 8.25 6C8.05109 6 7.86032 5.92098 7.71967 5.78033C7.57902 5.63968 7.5 5.44891 7.5 5.25Z" />
</svg>
