<svg xmlns="http://www.w3.org/2000/svg" viewBox="0 0 24 24">
  <path d="M16.4998 19.4289C17.0171 19.225 17.5185 18.9828 17.9998 18.7042V22.5001C17.9998 22.699 17.9207 22.8898 17.7801 23.0304C17.6394 23.1711 17.4487 23.2501 17.2498 23.2501C17.0509 23.2501 16.8601 23.1711 16.7194 23.0304C16.5788 22.8898 16.4998 22.699 16.4998 22.5001V19.4289ZM17.6023 11.1386L12.3523 8.33824C12.1771 8.24878 11.9738 8.2317 11.7862 8.29069C11.5985 8.34967 11.4416 8.48001 11.3491 8.65361C11.2567 8.82721 11.2361 9.03018 11.2919 9.2188C11.3476 9.40741 11.4753 9.56658 11.6473 9.66199L16.031 12.0001L17.6248 11.1507L17.6023 11.1386ZM23.6023 8.33824L12.3523 2.33824C12.2438 2.28046 12.1227 2.25024 11.9998 2.25024C11.8768 2.25024 11.7558 2.28046 11.6473 2.33824L0.397266 8.33824C0.27727 8.40219 0.176916 8.49756 0.106941 8.61415C0.036965 8.73073 0 8.86415 0 9.00012C0 9.13609 0.036965 9.26951 0.106941 9.38609C0.176916 9.50268 0.27727 9.59804 0.397266 9.66199L2.99977 11.0504V15.5898C2.99899 15.9582 3.13457 16.3139 3.38039 16.5882C4.60852 17.9561 7.36008 20.2501 11.9998 20.2501C13.5382 20.2628 15.065 19.9842 16.4998 19.4289V12.2504L16.031 12.0001L11.9998 14.1498L4.10883 9.93762L2.34352 9.00012L11.9998 3.85043L21.656 9.00012L19.8954 9.93762H19.8898L17.6248 11.1507C17.7388 11.2166 17.8335 11.3113 17.8993 11.4253C17.9652 11.5394 17.9998 11.6687 17.9998 11.8004V18.7042C18.9778 18.1396 19.8616 17.4257 20.6191 16.5882C20.865 16.3139 21.0005 15.9582 20.9998 15.5898V11.0504L23.6023 9.66199C23.7223 9.59804 23.8226 9.50268 23.8926 9.38609C23.9626 9.26951 23.9995 9.13609 23.9995 9.00012C23.9995 8.86415 23.9626 8.73073 23.8926 8.61415C23.8226 8.49756 23.7223 8.40219 23.6023 8.33824Z" />
</svg>
