<svg xmlns="http://www.w3.org/2000/svg" viewBox="0 0 24 24">
  <path d="M18.7497 6V18C18.7497 18.3978 18.5917 18.7794 18.3104 19.0607C18.0291 19.342 17.6475 19.5 17.2497 19.5H15.7497C15.3519 19.5 14.9703 19.342 14.689 19.0607C14.4077 18.7794 14.2497 18.3978 14.2497 18V12.75H9.74969V18C9.74969 18.3978 9.59166 18.7794 9.31035 19.0607C9.02905 19.342 8.64752 19.5 8.24969 19.5H6.74969C6.35187 19.5 5.97034 19.342 5.68903 19.0607C5.40773 18.7794 5.24969 18.3978 5.24969 18V6C5.24969 5.60218 5.40773 5.22064 5.68903 4.93934C5.97034 4.65804 6.35187 4.5 6.74969 4.5H8.24969C8.64752 4.5 9.02905 4.65804 9.31035 4.93934C9.59166 5.22064 9.74969 5.60218 9.74969 6V11.25H14.2497V6C14.2497 5.60218 14.4077 5.22064 14.689 4.93934C14.9703 4.65804 15.3519 4.5 15.7497 4.5H17.2497C17.6475 4.5 18.0291 4.65804 18.3104 4.93934C18.5917 5.22064 18.7497 5.60218 18.7497 6ZM3.37469 6.75H2.99969C2.60187 6.75 2.22034 6.90804 1.93903 7.18934C1.65773 7.47064 1.49969 7.85218 1.49969 8.25V11.25H0.775007C0.581194 11.2471 0.393487 11.3178 0.249645 11.4477C0.105803 11.5776 0.0164979 11.7572 -0.000305238 11.9503C-0.00711704 12.0529 0.00723737 12.1558 0.0418664 12.2526C0.0764954 12.3494 0.130659 12.4381 0.200994 12.5131C0.271329 12.5881 0.356332 12.6478 0.450723 12.6885C0.545115 12.7293 0.646879 12.7502 0.749695 12.75H1.49969V15.75C1.49969 16.1478 1.65773 16.5294 1.93903 16.8107C2.22034 17.092 2.60187 17.25 2.99969 17.25H3.37469C3.47415 17.25 3.56953 17.2105 3.63986 17.1402C3.71019 17.0698 3.74969 16.9745 3.74969 16.875V7.125C3.74969 7.02554 3.71019 6.93016 3.63986 6.85983C3.56953 6.78951 3.47415 6.75 3.37469 6.75ZM23.9997 11.9503C23.9829 11.7575 23.8939 11.5782 23.7504 11.4483C23.607 11.3185 23.4197 11.2476 23.2263 11.25H22.4997V8.25C22.4997 7.85218 22.3417 7.47064 22.0604 7.18934C21.7791 6.90804 21.3975 6.75 20.9997 6.75H20.6247C20.5252 6.75 20.4299 6.78951 20.3595 6.85983C20.2892 6.93016 20.2497 7.02554 20.2497 7.125V16.875C20.2497 16.9745 20.2892 17.0698 20.3595 17.1402C20.4299 17.2105 20.5252 17.25 20.6247 17.25H20.9997C21.3975 17.25 21.7791 17.092 22.0604 16.8107C22.3417 16.5294 22.4997 16.1478 22.4997 15.75V12.75H23.2497C23.3525 12.7502 23.4543 12.7293 23.5487 12.6885C23.6431 12.6478 23.7281 12.5881 23.7984 12.5131C23.8687 12.4381 23.9229 12.3494 23.9575 12.2526C23.9922 12.1558 24.0065 12.0529 23.9997 11.9503Z" />
</svg>
