<svg width="24" height="24" viewBox="0 0 24 24" fill="none" xmlns="http://www.w3.org/2000/svg">
<path d="M20.0307 15.5312C19.961 15.6009 19.8783 15.6563 19.7873 15.694C19.6962 15.7318 19.5986 15.7512 19.5001 15.7512C19.4015 15.7512 19.3039 15.7318 19.2128 15.694C19.1218 15.6563 19.0391 15.6009 18.9694 15.5312L12.0001 8.5609L5.03068 15.5312C4.88995 15.6719 4.69907 15.751 4.50005 15.751C4.30103 15.751 4.11016 15.6719 3.96943 15.5312C3.8287 15.3905 3.74963 15.1996 3.74963 15.0006C3.74963 14.8016 3.8287 14.6107 3.96943 14.47L11.4694 6.96996C11.5391 6.90023 11.6218 6.84491 11.7128 6.80717C11.8039 6.76943 11.9015 6.75 12.0001 6.75C12.0986 6.75 12.1962 6.76943 12.2873 6.80717C12.3783 6.84491 12.461 6.90023 12.5307 6.96996L20.0307 14.47C20.1004 14.5396 20.1557 14.6223 20.1935 14.7134C20.2312 14.8044 20.2506 14.902 20.2506 15.0006C20.2506 15.0992 20.2312 15.1967 20.1935 15.2878C20.1557 15.3788 20.1004 15.4616 20.0307 15.5312Z" fill="#2D2D2D"/>
</svg>
