<svg width="157" height="60" viewBox="0 0 157 60" fill="none" xmlns="http://www.w3.org/2000/svg">
<path fill-rule="evenodd" clip-rule="evenodd" d="M0.615234 36.6695L10.8031 22.0027L0.615234 7.33594H8.03388L18.2218 22.0027L8.03388 36.6695H0.615234Z" fill="#4FBA78"/>
<path fill-rule="evenodd" clip-rule="evenodd" d="M26.5809 0H19.1621V44H26.5809V0ZM27.5208 22L29.2285 19.5415L32.2161 15.2403L34.2815 12.2672L35.2039 10.9392L37.2691 7.96611L37.7087 7.33324H45.1273L38.2718 17.2026L35.2841 21.5037L34.9394 22L45.1273 36.6668H37.7087L36.3869 34.7639L33.3992 30.4628L30.4116 26.1617L27.5208 22Z" fill="#4FBA78"/>
<path fill-rule="evenodd" clip-rule="evenodd" d="M74.1062 27.9148H71.0566V39.951H74.1062V34.5793L77.8418 39.951H81.1787L76.9937 33.9327L81.1787 27.9148H77.8418L74.1062 33.2859V27.9148ZM74.7932 9.94784H71.0566L75.7429 16.6862L71.0566 23.4245H74.7932L78.9758 17.4101V23.4245H82.3907V17.4101L86.5734 23.4245H90.31L85.6237 16.6862L90.31 9.94784H86.5734L82.3907 15.9622V9.94784H78.9758V15.9622L74.7932 9.94784ZM94.9197 9.94784V16.8673L94.8929 18.2791L99.6908 9.94784H103.449V23.4245H100.034V16.487L100.058 15.2248L95.2599 23.4245H91.505V9.94784H94.9197ZM117.014 9.94784V23.4245H113.599V12.9937H111.016V16.8274C111.016 19.8056 110.725 23.5515 106.869 23.5515C106.292 23.5374 105.773 23.4452 105.199 23.3764L105.35 20.6146C105.781 20.6741 106.05 20.7011 106.429 20.7052C107.511 20.7052 107.767 19.2518 107.767 17.2729V9.94784H117.014ZM125.479 9.80297C127.281 9.80297 128.908 10.3473 130.239 11.568C131.697 12.9058 132.175 14.7776 132.175 16.6862C132.175 18.5929 131.699 20.4638 130.237 21.797C128.905 23.0117 127.277 23.5512 125.479 23.5512C123.68 23.5512 122.052 23.0117 120.721 21.797C119.259 20.4641 118.782 18.5929 118.782 16.6862C118.782 14.777 119.26 12.9058 120.719 11.568C122.049 10.3473 123.676 9.80297 125.479 9.80297ZM125.479 12.4136C124.787 12.4136 124.188 12.5783 123.651 13.027C122.497 13.994 122.344 15.2822 122.344 16.6862C122.344 18.0885 122.498 19.3802 123.651 20.3453C124.187 20.7943 124.788 20.9587 125.479 20.9587C126.169 20.9587 126.77 20.7943 127.307 20.3453C128.46 19.3805 128.614 18.0879 128.614 16.6862C128.614 15.2822 128.46 13.9937 127.306 13.027C126.771 12.578 126.169 12.4136 125.479 12.4136ZM137.358 9.94784V16.8673L137.331 18.2791L142.13 9.94784H145.887V23.4245H142.472V16.487L142.497 15.2248L137.698 23.4245H133.943V9.94784H137.358ZM144.246 6.31121C143.864 7.24509 143.55 7.84237 142.68 8.39891C141.992 8.84021 141.155 9.01244 140.342 9.01244C139.517 9.01244 138.716 8.85294 138.02 8.40619C137.123 7.82859 136.83 7.28561 136.44 6.31037L138.495 5.22656C138.867 6.14098 139.139 6.56474 140.342 6.56474C141.574 6.56474 141.82 6.13232 142.19 5.22656L144.246 6.31121ZM145.887 27.9148V39.951H142.837V30.6347H140.531V34.0591C140.531 36.7187 140.271 40.0639 136.827 40.0639C136.311 40.0517 135.848 39.9692 135.335 39.9076L135.47 37.4413C135.856 37.4942 136.095 37.5187 136.434 37.5218C137.4 37.5218 137.628 36.2243 137.628 34.4569V27.9148H145.887ZM128.861 30.3744L127.545 35.0842H130.172L128.861 30.3744ZM126.911 37.3802L126.196 39.951H122.961L126.849 27.9148H130.873L134.761 39.951H131.526L130.811 37.3802H126.911ZM123.621 27.9148V30.6347H120.312V39.951H117.262V30.6347H113.953V27.9148H123.621ZM108.478 27.9148C109.47 27.9148 110.643 28.0438 111.477 28.6196C112.623 29.411 113.212 30.3731 113.245 31.7494C113.278 33.0133 112.569 34.3647 111.488 35.0539C110.726 35.5396 109.798 35.6972 108.904 35.6972H107.775V39.951H104.725V27.9148H108.478ZM107.775 33.2038H108.478C109.38 33.2038 110.065 32.7165 110.065 31.7494C110.065 30.7605 109.357 30.4085 108.478 30.4085H107.775V33.2038ZM97.7489 30.3744L96.4327 35.0842H99.0595L97.7489 30.3744ZM95.7986 37.3802L95.0833 39.951H91.8487L95.7368 27.9148H99.7606L103.648 39.951H100.414L99.6987 37.3802H95.7986ZM82.8664 27.9148H86.6342C87.6421 27.9148 88.7725 28.0912 89.6145 28.6682C90.3824 29.1947 90.8127 29.9907 90.8127 31.0699C90.8127 32.117 90.4352 33.0105 89.5468 33.6137C89.943 33.7909 90.2975 34.0466 90.5952 34.3582C91.0903 34.8802 91.3183 35.5299 91.3494 36.2362C91.3868 37.094 91.1803 37.8605 90.5951 38.5174C89.4954 39.7515 88.0791 39.951 86.4867 39.951H82.5047V27.9148H82.8664ZM85.5545 35.0018V37.4572H86.4867C87.3103 37.4572 88.1724 37.1854 88.1724 36.2293C88.1724 35.2283 87.3221 35.0018 86.4867 35.0018H85.5545ZM85.5545 30.4085V32.5084H86.3227C87.0515 32.5084 87.7464 32.2211 87.7464 31.4587C87.7464 30.6056 86.9876 30.4085 86.2244 30.4085H85.5545Z" fill="#4FBA78"/>
<path fill-rule="evenodd" clip-rule="evenodd" d="M74.5709 46.0379L74.5077 46.7963C74.4034 46.7551 74.2977 46.7269 74.1904 46.7109C74.0834 46.6956 73.9698 46.6878 73.8493 46.6878C73.4575 46.6878 73.1496 46.8169 72.9248 47.0751C72.7001 47.3328 72.5876 47.6447 72.5876 48.0113C72.5876 48.4086 72.7026 48.7235 72.9326 48.9553C73.1624 49.1873 73.4447 49.3034 73.7786 49.3034C73.8888 49.3034 73.9944 49.2943 74.0965 49.2764C74.1983 49.2583 74.2883 49.2392 74.367 49.2184C74.4242 49.2029 74.4726 49.1873 74.512 49.1721C74.5509 49.1564 74.5783 49.1462 74.5941 49.141L74.6333 49.907C74.4034 49.9741 74.1955 50.0154 74.0103 50.0308C73.8243 50.0462 73.6848 50.0544 73.5909 50.0544C72.9429 50.0544 72.457 49.8865 72.1329 49.5511C71.8091 49.2159 71.6055 48.8446 71.5217 48.437C71.5063 48.3542 71.4943 48.2731 71.4864 48.1932C71.4786 48.1133 71.4749 48.0346 71.4749 47.9573C71.4749 47.9108 71.476 47.8652 71.4786 47.8217C71.4811 47.7778 71.4853 47.7329 71.4904 47.686C71.5479 47.2478 71.7505 46.8454 72.0976 46.4789C72.4449 46.1125 72.969 45.9298 73.6695 45.9298C73.7373 45.9298 73.8053 45.932 73.8731 45.9374C73.9407 45.9424 74.0116 45.9477 74.0847 45.9529C74.1682 45.9631 74.2506 45.9751 74.3314 45.9874C74.4124 46.0003 74.492 46.0171 74.5709 46.0379ZM75.1264 45.9914H78.732V46.7652H77.4622V50H76.3962V46.7652H75.1264V45.9914ZM80.3387 51.656H79.2725V45.9914H80.2054V46.6878H80.2207C80.3516 46.466 80.5296 46.2842 80.754 46.1423C80.9788 46.0007 81.2426 45.9298 81.5456 45.9298C82.063 45.9298 82.4769 46.102 82.7879 46.448C83.0985 46.7931 83.2543 47.3095 83.2543 47.9956C83.2543 48.6561 83.112 49.1413 82.8271 49.4507C82.5427 49.76 82.2306 49.9512 81.8902 50.0154C81.823 50.0281 81.7561 50.0349 81.6904 50.0424C81.6254 50.0503 81.5612 50.0544 81.4985 50.0544C81.2004 50.0544 80.9615 49.997 80.7811 49.8841C80.6016 49.7708 80.4622 49.6408 80.3622 49.4971C80.3579 49.4911 80.3516 49.4854 80.3465 49.4779C80.3412 49.4697 80.3356 49.4635 80.3308 49.4583H80.3149L80.3387 50.1163V51.656ZM80.3387 47.9956C80.3387 48.3878 80.4275 48.691 80.6047 48.9049C80.7824 49.1189 80.9941 49.2264 81.2398 49.2264C81.4855 49.2264 81.6976 49.1189 81.8746 48.9049C82.0523 48.691 82.1413 48.3878 82.1413 47.9956C82.1413 47.6035 82.0523 47.3001 81.8746 47.0866C81.6976 46.8724 81.4855 46.7652 81.2398 46.7652C80.9941 46.7652 80.7824 46.8724 80.6047 47.0866C80.4275 47.3001 80.3387 47.6035 80.3387 47.9956ZM83.8966 47.9956C83.8966 47.3817 84.0808 46.8834 84.4487 46.5023C84.8169 46.1206 85.3332 45.9298 85.9968 45.9298C86.6606 45.9298 87.1753 46.1206 87.5407 46.5023C87.9061 46.8841 88.0898 47.3817 88.0898 47.9956C88.0898 48.6099 87.9061 49.1061 87.5407 49.4854C87.1753 49.864 86.6606 50.0544 85.9968 50.0544C85.3332 50.0544 84.8169 49.8629 84.4487 49.4815C84.0808 49.1005 83.8966 48.6046 83.8966 47.9956ZM85.0094 47.9956C85.0094 48.4189 85.1065 48.7423 85.2995 48.967C85.4927 49.1911 85.725 49.3034 85.9968 49.3034C86.2631 49.3034 86.4934 49.1926 86.6866 48.971C86.8799 48.7494 86.9767 48.4236 86.9767 47.9956C86.9767 47.5673 86.8799 47.2422 86.6866 47.0207C86.4934 46.7984 86.2631 46.6878 85.9968 46.6878C85.725 46.6878 85.4927 46.7984 85.2995 47.0207C85.1063 47.2426 85.0094 47.5673 85.0094 47.9956ZM88.6854 45.9914H89.7517V48.0964L89.7199 48.8162H89.7359L91.4837 45.9914H92.6749V50H91.6091V47.9262L91.6406 47.1755H91.6167L89.8218 50H88.6854V45.9914ZM96.743 50H95.7316L94.932 47.6474L94.7284 46.9974H94.689L94.7128 47.717V50H93.6466V45.9914H95.1359L95.9745 48.2823L96.2018 48.994H96.2727L96.4998 48.2823L97.3383 45.9914H98.8274V50H97.7615V47.717L97.785 46.9974H97.746L97.5423 47.6474L96.743 50ZM101.887 45.9914H103.877C103.956 45.9914 104.048 45.9964 104.152 46.0028C104.255 46.0094 104.367 46.0259 104.481 46.0534C104.679 46.1009 104.862 46.199 105.025 46.3317C105.189 46.4646 105.272 46.6801 105.272 46.9742C105.272 47.2426 105.194 47.4505 105.041 47.5933C104.888 47.7364 104.713 47.8309 104.52 47.8718V47.8952C104.781 47.9155 105.003 48.0096 105.182 48.1734C105.362 48.3377 105.453 48.5738 105.453 48.8781C105.453 49.2084 105.323 49.4788 105.069 49.6868C104.814 49.8943 104.434 50 103.94 50H101.887V45.9914ZM102.952 48.251V49.3034H103.634C103.639 49.3034 103.646 49.3034 103.646 49.3034C103.646 49.3034 103.653 49.3034 103.658 49.3034C103.694 49.3034 103.742 49.3007 103.795 49.2995C103.849 49.2981 103.91 49.2879 103.971 49.2726C104.065 49.2489 104.15 49.1975 104.226 49.1254C104.302 49.0531 104.34 48.9372 104.34 48.7772C104.34 48.6171 104.297 48.5 104.214 48.4254C104.131 48.3504 104.037 48.3035 103.94 48.2823C103.883 48.2699 103.823 48.2564 103.768 48.2548C103.711 48.2537 103.661 48.251 103.627 48.251H102.952ZM102.952 46.6878V47.5544H103.611H103.614C103.617 47.5544 103.619 47.5544 103.619 47.5544C103.65 47.5544 103.691 47.552 103.736 47.5506C103.782 47.5491 103.832 47.5396 103.877 47.531C103.96 47.5167 104.039 47.477 104.109 47.4188C104.178 47.3609 104.214 47.2607 104.214 47.1212C104.214 46.9919 104.178 46.8955 104.109 46.8347C104.039 46.7742 103.963 46.7282 103.885 46.7109C103.835 46.6999 103.781 46.6928 103.733 46.6918C103.684 46.69 103.64 46.6878 103.611 46.6878H102.952ZM106.359 47.0207V46.1924C106.515 46.1309 106.668 46.0798 106.813 46.0454C106.957 46.0108 107.107 45.977 107.251 45.9606C107.349 45.9494 107.451 45.9424 107.55 45.9374C107.649 45.9327 107.748 45.9298 107.847 45.9298C108.417 45.9298 108.824 46.0242 109.07 46.2119C109.315 46.4001 109.481 46.6088 109.556 46.8347C109.592 46.9456 109.618 47.0626 109.626 47.1713C109.635 47.2808 109.642 47.3855 109.642 47.4694V50H108.6V49.4116H108.584C108.511 49.5564 108.418 49.6727 108.31 49.7566C108.202 49.8398 108.083 49.9048 107.965 49.946C107.841 49.9887 107.717 50.0237 107.6 50.0349C107.484 50.0459 107.387 50.0544 107.314 50.0544C106.844 50.0544 106.501 49.9521 106.288 49.7489C106.073 49.5454 105.942 49.3205 105.896 49.0791C105.888 49.04 105.877 48.9959 105.876 48.9594C105.875 48.9218 105.872 48.8807 105.872 48.8391C105.872 48.8289 105.872 48.8187 105.872 48.8082C105.872 48.7981 105.872 48.7842 105.872 48.7772C105.884 48.4632 106.035 48.1722 106.308 47.9108C106.58 47.6496 107.108 47.5161 107.887 47.5161C107.939 47.5161 107.99 47.5161 108.039 47.5161C108.089 47.5161 108.14 47.5139 108.192 47.5161C108.244 47.5182 108.294 47.5236 108.341 47.5236C108.389 47.5236 108.435 47.5236 108.482 47.5236H108.576L108.568 47.3534C108.557 47.111 108.462 46.9349 108.282 46.8271C108.103 46.7194 107.894 46.6644 107.659 46.6644C107.466 46.6644 107.263 46.6894 107.056 46.7342C106.848 46.7792 106.614 46.8763 106.359 47.0207ZM108.576 48.1814H108.396C108.389 48.1814 108.377 48.1814 108.368 48.1814C108.361 48.1814 108.354 48.1814 108.349 48.1814C108.271 48.1814 108.187 48.1814 108.098 48.1814C108.009 48.1814 107.918 48.1889 107.832 48.1967C107.614 48.2164 107.409 48.2735 107.228 48.3594C107.047 48.4453 106.954 48.6046 106.954 48.8314C106.954 48.8367 106.954 48.8405 106.954 48.8432V48.8545C106.955 48.9786 107.008 49.0937 107.099 49.1954C107.189 49.2976 107.359 49.3499 107.604 49.3499C107.86 49.3499 108.087 49.2715 108.282 49.1143C108.478 48.9569 108.576 48.679 108.576 48.2823V48.1814ZM110.51 45.9914H111.576V49.2264H112.619V45.9914H113.685V49.2264H114.728V45.9914H115.794V50H110.51V45.9914ZM116.546 45.9914H117.721L118.482 48.2049L118.709 48.971H118.748L118.999 48.1734L119.736 45.9914H120.817L119.1 50.4873C119.09 50.516 119.069 50.554 119.058 50.5884C119.046 50.6225 119.027 50.6597 119.015 50.6888C118.911 50.9398 118.75 51.1756 118.54 51.3856C118.331 51.5948 117.962 51.7028 117.439 51.7028C117.324 51.7028 117.214 51.6903 117.114 51.6717C117.014 51.6528 116.914 51.6252 116.82 51.5942L116.899 50.8204C116.967 50.8412 117.037 50.8611 117.106 50.8749C117.175 50.8879 117.246 50.8977 117.314 50.8977C117.513 50.8977 117.67 50.8622 117.78 50.7968C117.891 50.732 117.982 50.6138 118.051 50.4489L118.145 50.2246L116.546 45.9914ZM126.261 50H125.25L124.451 47.6474L124.247 46.9974H124.208L124.231 47.717V50H123.165V45.9914H124.654L125.493 48.2823L125.72 48.994H125.791L126.018 48.2823L126.857 45.9914H128.346V50H127.28V47.717L127.304 46.9974H127.264L127.061 47.6474L126.261 50ZM132.962 48.3132H130.195C130.217 48.6017 130.334 48.8416 130.541 49.0249C130.747 49.2084 131.037 49.3034 131.403 49.3034C131.549 49.3034 131.695 49.2908 131.834 49.2726C131.972 49.2543 132.115 49.2173 132.249 49.1798C132.319 49.1603 132.397 49.1331 132.464 49.1099C132.533 49.0866 132.604 49.0555 132.673 49.0249V49.8143C132.578 49.8503 132.482 49.8841 132.39 49.907C132.299 49.9303 132.2 49.9623 132.108 49.9767C131.97 49.9983 131.826 50.0157 131.685 50.0308C131.544 50.0462 131.405 50.0544 131.27 50.0544C131.264 50.0544 131.258 50.0544 131.258 50.0544H131.246C130.708 50.0544 130.21 49.8905 129.76 49.5859C129.311 49.2816 129.083 48.7491 129.083 47.9956C129.083 47.4074 129.27 46.9134 129.635 46.5215C130.001 46.1293 130.488 45.9298 131.089 45.9298C131.105 45.9298 131.122 45.9298 131.14 45.9298C131.158 45.9298 131.183 45.9295 131.199 45.9298C131.637 45.9444 132.044 46.1203 132.41 46.4329C132.776 46.7444 132.962 47.2994 132.962 48.0728V48.3132ZM130.195 47.5933H131.865C131.875 47.2836 131.792 47.0474 131.622 46.8931C131.452 46.7383 131.251 46.6568 131.026 46.6568C130.77 46.6568 130.567 46.756 130.423 46.9469C130.279 47.138 130.201 47.356 130.195 47.5933ZM133.542 45.9914H134.608V47.2685C134.608 47.2836 134.608 47.3109 134.608 47.3338C134.608 47.3571 134.614 47.3852 134.616 47.4074C134.624 47.5145 134.676 47.6194 134.757 47.7096C134.838 47.7996 135.008 47.8486 135.259 47.8486C135.363 47.8486 135.467 47.8435 135.568 47.8334C135.67 47.8231 135.763 47.8055 135.838 47.7946C135.898 47.7852 135.955 47.7751 135.999 47.7672C136.044 47.7597 136.071 47.7531 136.082 47.7479V45.9914H137.148V50H136.082V48.5215C135.998 48.5375 135.914 48.5518 135.831 48.5645C135.747 48.5774 135.661 48.5869 135.58 48.5919C135.494 48.5972 135.402 48.6121 135.321 48.6148C135.241 48.617 135.154 48.6226 135.071 48.6226C134.512 48.6226 134.132 48.5308 133.93 48.3478C133.73 48.1648 133.604 47.9604 133.566 47.7404C133.557 47.6874 133.549 47.6254 133.546 47.5664C133.544 47.5071 133.542 47.4515 133.542 47.3999V45.9914ZM137.688 45.9914H141.294V46.7652H140.024V50H138.959V46.7652H137.688V45.9914ZM141.615 45.9914H142.791L143.55 48.2049L143.778 48.971H143.817L144.067 48.1734L144.805 45.9914H145.886L144.17 50.4873C144.159 50.5143 144.137 50.5546 144.127 50.5884C144.116 50.6214 144.095 50.6608 144.084 50.6888C143.98 50.9393 143.819 51.1767 143.609 51.3856C143.4 51.5938 143.031 51.7028 142.508 51.7028C142.393 51.7028 142.282 51.6893 142.183 51.6717C142.083 51.6535 141.983 51.6252 141.889 51.5942L141.968 50.8204C142.035 50.8412 142.107 50.8619 142.175 50.8749C142.243 50.887 142.315 50.8977 142.382 50.8977C142.581 50.8977 142.739 50.8614 142.849 50.7968C142.959 50.7329 143.05 50.6138 143.12 50.4489L143.213 50.2246L141.615 45.9914Z" fill="#4FBA78"/>
<path d="M152.609 4.09543V5.00004H152.973C153.173 5.00004 153.318 4.95137 153.407 4.85408C153.495 4.75678 153.54 4.65274 153.54 4.54249C153.54 4.42917 153.5 4.3262 153.42 4.2338C153.341 4.14132 153.191 4.09543 152.973 4.09543H152.609ZM151.932 3.57812H153.115C153.537 3.57812 153.83 3.66485 153.993 3.83839C154.154 4.01192 154.236 4.22323 154.236 4.47247C154.236 4.69841 154.172 4.87277 154.046 4.99543C153.919 5.11787 153.768 5.19977 153.593 5.2403V5.24949C153.673 5.26872 153.741 5.30734 153.796 5.36548C153.85 5.42387 153.897 5.50118 153.94 5.59764L154.485 6.87367H153.726L153.297 5.82871C153.251 5.72007 153.195 5.64092 153.127 5.59142C153.059 5.54194 152.973 5.51734 152.866 5.51734H152.609V6.87367H151.932V3.57812Z" fill="#4FBA78"/>
<path d="M152.924 2.29323C151.324 2.29323 150.02 3.57975 150.02 5.16141C150.02 6.74283 151.324 8.02966 152.924 8.02966C154.526 8.02966 155.829 6.74283 155.829 5.16141C155.829 3.57975 154.526 2.29323 152.924 2.29323ZM152.924 8.64321C150.98 8.64321 149.398 7.08124 149.398 5.16141C149.398 3.24134 150.98 1.67969 152.924 1.67969C154.869 1.67969 156.452 3.24134 156.452 5.16141C156.452 7.08124 154.869 8.64321 152.924 8.64321Z" fill="#4FBA78"/>
</svg>
