<svg width="115" height="44" viewBox="0 0 115 44" fill="none" xmlns="http://www.w3.org/2000/svg">
<g clip-path="url(#clip0_5199_111878)">
<path fill-rule="evenodd" clip-rule="evenodd" d="M0.615234 36.6695L10.8031 22.0027L0.615234 7.33594H8.03388L18.2218 22.0027L8.03388 36.6695H0.615234Z" fill="#E32E25"/>
<path fill-rule="evenodd" clip-rule="evenodd" d="M26.5809 0H19.1621V44H26.5809V0ZM27.5208 22L29.2285 19.5415L32.2161 15.2403L34.2815 12.2672L35.2039 10.9392L37.2691 7.96611L37.7087 7.33324H45.1273L38.2718 17.2026L35.2841 21.5037L34.9394 22L45.1273 36.6668H37.7087L36.3869 34.7639L33.3992 30.4628L30.4116 26.1617L27.5208 22Z" fill="#237E44"/>
<path fill-rule="evenodd" clip-rule="evenodd" d="M54.2816 20.4662H52.0479V29.2927H54.2816V25.3535L57.0179 29.2927H59.4621L56.3967 24.8793L59.4621 20.4662H57.0179L54.2816 24.405V20.4662ZM54.7849 7.29039H52.0479L55.4805 12.2319L52.0479 17.1733H54.7849L57.8485 12.7627V17.1733H60.3498V12.7627L63.4136 17.1733H66.1506L62.718 12.2319L66.1506 7.29039H63.4136L60.3498 11.7009V7.29039H57.8485V11.7009L54.7849 7.29039ZM69.5271 7.29039V12.3647L69.5075 13.4L73.0219 7.29039H75.7744V17.1733H73.273V12.0858L73.291 11.1602L69.7764 17.1733H67.0259V7.29039H69.5271ZM85.7108 7.29039V17.1733H83.2096V9.52403H81.3178V12.3354C81.3178 14.5194 81.1046 17.2664 78.2802 17.2664C77.8571 17.2561 77.4769 17.1885 77.0563 17.138L77.1669 15.1127C77.4832 15.1563 77.6798 15.1761 77.9578 15.1791C78.7503 15.1791 78.9373 14.1133 78.9373 12.6621V7.29039H85.7108ZM91.9111 7.18415C93.2314 7.18415 94.4232 7.58334 95.3977 8.47848C96.4662 9.45958 96.8161 10.8322 96.8161 12.2319C96.8161 13.6301 96.4671 15.0021 95.3965 15.9798C94.4212 16.8706 93.2285 17.2662 91.9111 17.2662C90.5939 17.2662 89.4011 16.8706 88.426 15.9798C87.3552 15.0023 87.0061 13.6301 87.0061 12.2319C87.0061 10.8318 87.356 9.45958 88.4248 8.47848C89.3992 7.58334 90.591 7.18415 91.9111 7.18415ZM91.9111 9.09865C91.4048 9.09865 90.9657 9.21939 90.5724 9.54841C89.7274 10.2576 89.6149 11.2023 89.6149 12.2319C89.6149 13.2602 89.7276 14.2075 90.5724 14.9152C90.9651 15.2445 91.4052 15.365 91.9111 15.365C92.417 15.365 92.8572 15.2445 93.25 14.9152C94.0949 14.2077 94.2075 13.2598 94.2075 12.2319C94.2075 11.2023 94.0951 10.2574 93.2497 9.54841C92.8574 9.21917 92.4168 9.09865 91.9111 9.09865ZM100.613 7.29039V12.3647L100.593 13.4L104.108 7.29039H106.86V17.1733H104.358V12.0858L104.377 11.1602L100.862 17.1733H98.1115V7.29039H100.613ZM105.658 4.62353C105.378 5.30837 105.148 5.74638 104.511 6.15451C104.007 6.47813 103.394 6.60443 102.798 6.60443C102.194 6.60443 101.607 6.48746 101.097 6.15985C100.44 5.73627 100.226 5.33809 99.9404 4.62291L101.445 3.82812C101.718 4.49869 101.917 4.80946 102.798 4.80946C103.701 4.80946 103.881 4.49234 104.152 3.82812L105.658 4.62353ZM106.86 20.4662V29.2927H104.626V22.4608H102.937V24.972C102.937 26.9224 102.746 29.3755 100.224 29.3755C99.8457 29.3666 99.5062 29.3061 99.1305 29.2609L99.2293 27.4523C99.512 27.4911 99.6875 27.509 99.9358 27.5113C100.644 27.5113 100.811 26.5598 100.811 25.2637V20.4662H106.86ZM94.3885 22.2699L93.4246 25.7237H95.3487L94.3885 22.2699ZM92.9605 27.4075L92.4363 29.2927H90.0667L92.9149 20.4662H95.8623L98.7102 29.2927H96.341L95.8168 27.4075H92.9605ZM90.5501 20.4662V22.4608H88.1264V29.2927H85.8928V22.4608H83.4689V20.4662H90.5501ZM79.458 20.4662C80.185 20.4662 81.044 20.5608 81.6551 20.983C82.4944 21.5634 82.9257 22.2689 82.9502 23.2782C82.974 24.2051 82.4553 25.1961 81.6632 25.7015C81.105 26.0577 80.4251 26.1733 79.7702 26.1733H78.9433V29.2927H76.7093V20.4662H79.458ZM78.9433 24.3448H79.458C80.1195 24.3448 80.621 23.9874 80.621 23.2782C80.621 22.553 80.1023 22.2949 79.458 22.2949H78.9433V24.3448ZM71.5995 22.2699L70.6354 25.7237H72.5595L71.5995 22.2699ZM70.1709 27.4075L69.647 29.2927H67.2777L70.1256 20.4662H73.073L75.9207 29.2927H73.5516L73.0277 27.4075H70.1709ZM60.6983 20.4662H63.4582C64.1964 20.4662 65.0244 20.5955 65.6412 21.0187C66.2036 21.4048 66.5188 21.9885 66.5188 22.7799C66.5188 23.5478 66.2423 24.203 65.5916 24.6454C65.8818 24.7753 66.1415 24.9628 66.3596 25.1913C66.7222 25.5741 66.8892 26.0506 66.912 26.5685C66.9393 27.1976 66.7881 27.7597 66.3595 28.2414C65.5539 29.1464 64.5165 29.2927 63.3501 29.2927H60.4334V20.4662H60.6983ZM62.6673 25.6633V27.4639H63.3501C63.9534 27.4639 64.5849 27.2646 64.5849 26.5635C64.5849 25.8294 63.9621 25.6633 63.3501 25.6633H62.6673ZM62.6673 22.2949V23.8348H63.23C63.7638 23.8348 64.2729 23.6241 64.2729 23.065C64.2729 22.4394 63.717 22.2949 63.158 22.2949H62.6673Z" fill="#237E44"/>
<path fill-rule="evenodd" clip-rule="evenodd" d="M54.6223 33.7591L54.576 34.3152C54.4996 34.285 54.4221 34.2643 54.3436 34.2526C54.2652 34.2414 54.182 34.2357 54.0937 34.2357C53.8067 34.2357 53.5812 34.3303 53.4166 34.5197C53.252 34.7087 53.1696 34.9374 53.1696 35.2062C53.1696 35.4976 53.2538 35.7285 53.4223 35.8985C53.5906 36.0686 53.7974 36.1538 54.0419 36.1538C54.1226 36.1538 54.2 36.1471 54.2748 36.134C54.3494 36.1207 54.4153 36.1067 54.4729 36.0914C54.5149 36.0801 54.5503 36.0686 54.5792 36.0575C54.6077 36.046 54.6277 36.0385 54.6393 36.0347L54.668 36.5964C54.4996 36.6456 54.3473 36.6759 54.2117 36.6872C54.0754 36.6985 53.9732 36.7045 53.9044 36.7045C53.4298 36.7045 53.0739 36.5814 52.8365 36.3354C52.5993 36.0896 52.4502 35.8173 52.3888 35.5184C52.3775 35.4577 52.3687 35.3982 52.3629 35.3396C52.3572 35.281 52.3545 35.2233 52.3545 35.1666C52.3545 35.1325 52.3553 35.0991 52.3572 35.0672C52.3591 35.035 52.3621 35.0021 52.3659 34.9677C52.408 34.6463 52.5564 34.3512 52.8106 34.0825C53.065 33.8138 53.4489 33.6798 53.962 33.6798C54.0117 33.6798 54.0615 33.6814 54.1111 33.6854C54.1607 33.689 54.2126 33.6929 54.2661 33.6967C54.3273 33.7042 54.3877 33.713 54.4469 33.722C54.5062 33.7315 54.5645 33.7438 54.6223 33.7591ZM55.0292 33.725H57.6702V34.2924H56.7402V36.6646H55.9593V34.2924H55.0292V33.725ZM58.8471 37.879H58.0661V33.725H58.7495V34.2357H58.7607C58.8566 34.073 58.9869 33.9397 59.1513 33.8356C59.316 33.7318 59.5092 33.6798 59.7312 33.6798C60.1102 33.6798 60.4133 33.8061 60.6411 34.0598C60.8687 34.3129 60.9827 34.6916 60.9827 35.1947C60.9827 35.6791 60.8785 36.0349 60.6698 36.2618C60.4615 36.4886 60.2329 36.6288 59.9836 36.6759C59.9343 36.6852 59.8854 36.6902 59.8372 36.6957C59.7896 36.7015 59.7426 36.7045 59.6967 36.7045C59.4783 36.7045 59.3033 36.6624 59.1711 36.5796C59.0397 36.4965 58.9376 36.4012 58.8643 36.2958C58.8612 36.2914 58.8566 36.2872 58.8528 36.2817C58.8489 36.2757 58.8449 36.2712 58.8413 36.2674H58.8297L58.8471 36.7499V37.879ZM58.8471 35.1947C58.8471 35.4823 58.9121 35.7047 59.042 35.8615C59.1722 36.0185 59.3272 36.0973 59.5072 36.0973C59.6871 36.0973 59.8425 36.0185 59.9722 35.8615C60.1023 35.7047 60.1675 35.4823 60.1675 35.1947C60.1675 34.9072 60.1023 34.6847 59.9722 34.5281C59.8425 34.371 59.6871 34.2924 59.5072 34.2924C59.3272 34.2924 59.1722 34.371 59.042 34.5281C58.9121 34.6847 58.8471 34.9072 58.8471 35.1947ZM61.4532 35.1947C61.4532 34.7445 61.5882 34.3791 61.8577 34.0996C62.1274 33.8197 62.5055 33.6798 62.9916 33.6798C63.4778 33.6798 63.8548 33.8197 64.1224 34.0996C64.3901 34.3796 64.5246 34.7445 64.5246 35.1947C64.5246 35.6452 64.3901 36.0091 64.1224 36.2872C63.8548 36.5649 63.4778 36.7045 62.9916 36.7045C62.5055 36.7045 62.1274 36.5641 61.8577 36.2844C61.5882 36.005 61.4532 35.6413 61.4532 35.1947ZM62.2683 35.1947C62.2683 35.5051 62.3394 35.7423 62.4808 35.9071C62.6224 36.0714 62.7925 36.1538 62.9916 36.1538C63.1867 36.1538 63.3553 36.0725 63.4969 35.91C63.6384 35.7475 63.7094 35.5086 63.7094 35.1947C63.7094 34.8806 63.6384 34.6422 63.4969 34.4798C63.3553 34.3168 63.1867 34.2357 62.9916 34.2357C62.7925 34.2357 62.6224 34.3168 62.4808 34.4798C62.3393 34.6425 62.2683 34.8806 62.2683 35.1947ZM64.9609 33.725H65.742V35.2686L65.7187 35.7965H65.7304L67.0107 33.725H67.8832V36.6646H67.1025V35.1438L67.1256 34.5933H67.1081L65.7933 36.6646H64.9609V33.725ZM70.863 36.6646H70.1222L69.5365 34.9394L69.3873 34.4627H69.3585L69.3759 34.9904V36.6646H68.5949V33.725H69.6858L70.3001 35.405L70.4666 35.9269H70.5185L70.6849 35.405L71.2991 33.725H72.3898V36.6646H71.6091V34.9904L71.6263 34.4627H71.5977L71.4485 34.9394L70.863 36.6646ZM74.6306 33.725H76.0888C76.1461 33.725 76.214 33.7286 76.2897 33.7333C76.3655 33.7382 76.4478 33.7503 76.5308 33.7704C76.6763 33.8053 76.81 33.8772 76.9297 33.9745C77.0495 34.072 77.1106 34.23 77.1106 34.4457C77.1106 34.6425 77.0532 34.795 76.9413 34.8997C76.8292 35.0046 76.7011 35.0739 76.5598 35.1039V35.1211C76.7509 35.136 76.9133 35.205 77.0446 35.3251C77.176 35.4456 77.2427 35.6187 77.2427 35.8419C77.2427 36.0841 77.1481 36.2824 76.9614 36.4349C76.7749 36.5871 76.4963 36.6646 76.1349 36.6646H74.6306V33.725ZM75.4113 35.382V36.1538H75.9107C75.9145 36.1538 75.9193 36.1538 75.9193 36.1538C75.9193 36.1538 75.9243 36.1538 75.928 36.1538C75.9547 36.1538 75.9895 36.1518 76.0286 36.1509C76.0677 36.1499 76.1128 36.1424 76.1578 36.1312C76.2259 36.1138 76.2886 36.0761 76.3442 36.0232C76.3998 35.9702 76.4277 35.8852 76.4277 35.7679C76.4277 35.6505 76.3963 35.5646 76.3358 35.5099C76.2745 35.4549 76.2061 35.4205 76.1349 35.405C76.0931 35.3959 76.0493 35.386 76.0084 35.3848C75.9672 35.384 75.9302 35.382 75.9051 35.382H75.4113ZM75.4113 34.2357V34.8712H75.8937H75.8962C75.8983 34.8712 75.8995 34.8712 75.8995 34.8712C75.9224 34.8712 75.952 34.8694 75.9855 34.8684C76.0189 34.8673 76.0553 34.8603 76.0888 34.854C76.1491 34.8435 76.2072 34.8144 76.2582 34.7717C76.309 34.7293 76.3358 34.6558 76.3358 34.5535C76.3358 34.4587 76.3091 34.388 76.2582 34.3434C76.2074 34.299 76.1513 34.2653 76.0944 34.2526C76.0575 34.2445 76.018 34.2393 75.9827 34.2386C75.9472 34.2373 75.9147 34.2357 75.8937 34.2357H75.4113ZM77.9063 34.4798V33.8724C78.0211 33.8273 78.1332 33.7898 78.2389 33.7646C78.3447 33.7392 78.4544 33.7144 78.5601 33.7024C78.6319 33.6942 78.7065 33.689 78.7788 33.6854C78.8512 33.6819 78.9241 33.6798 78.9966 33.6798C79.4139 33.6798 79.7125 33.749 79.8923 33.8867C80.0719 34.0247 80.1937 34.1777 80.248 34.3434C80.2749 34.4247 80.294 34.5105 80.2999 34.5902C80.3062 34.6705 80.3114 34.7473 80.3114 34.8088V36.6646H79.5478V36.2331H79.5366C79.4829 36.3393 79.4149 36.4246 79.3356 36.4861C79.2563 36.5471 79.169 36.5948 79.0828 36.625C78.9921 36.6563 78.9012 36.682 78.8158 36.6902C78.7309 36.6983 78.6598 36.7045 78.6065 36.7045C78.2618 36.7045 78.0105 36.6295 77.8543 36.4805C77.6974 36.3312 77.6013 36.1663 77.5672 35.9893C77.5617 35.9606 77.5537 35.9283 77.5529 35.9015C77.5521 35.8739 77.5501 35.8438 77.5501 35.8133C77.5501 35.8058 77.5501 35.7983 77.5501 35.7906C77.5501 35.7832 77.5499 35.773 77.5501 35.7679C77.5589 35.5376 77.6689 35.3242 77.8689 35.1325C78.0682 34.941 78.4552 34.8431 79.0255 34.8431C79.0638 34.8431 79.1011 34.8431 79.1374 34.8431C79.1737 34.8431 79.2114 34.8415 79.2494 34.8431C79.287 34.8446 79.3238 34.8486 79.3585 34.8486C79.3932 34.8486 79.4273 34.8486 79.4618 34.8486H79.5308L79.5247 34.7238C79.5164 34.546 79.4472 34.4169 79.3155 34.3378C79.1837 34.2588 79.0311 34.2185 78.8588 34.2185C78.7173 34.2185 78.5685 34.2368 78.4167 34.2697C78.2649 34.3027 78.0936 34.3739 77.9063 34.4798ZM79.5308 35.331H79.3986C79.3934 35.331 79.3845 35.331 79.3784 35.331C79.3728 35.331 79.368 35.331 79.3643 35.331C79.3068 35.331 79.2455 35.331 79.1805 35.331C79.1155 35.331 79.0487 35.3365 78.9853 35.3422C78.826 35.3566 78.6758 35.3985 78.5432 35.4615C78.4105 35.5245 78.3421 35.6413 78.3421 35.8076C78.3421 35.8115 78.3421 35.8143 78.3421 35.8163V35.8246C78.3433 35.9156 78.3822 36 78.4484 36.0746C78.5144 36.1495 78.6387 36.1879 78.8183 36.1879C79.0062 36.1879 79.1721 36.1304 79.3155 36.0151C79.4586 35.8997 79.5308 35.6959 79.5308 35.405V35.331ZM80.9475 33.725H81.728V36.0973H82.492V33.725H83.2726V36.0973H84.0367V33.725H84.8174V36.6646H80.9475V33.725ZM85.3681 33.725H86.2292L86.7862 35.3482L86.9526 35.91H86.9815L87.1651 35.3251L87.705 33.725H88.4972L87.2395 37.022C87.2318 37.043 87.2163 37.0709 87.208 37.0961C87.1999 37.1211 87.1856 37.1484 87.1766 37.1697C87.1004 37.3538 86.9829 37.5267 86.8293 37.6807C86.6759 37.8341 86.4054 37.9133 86.0228 37.9133C85.9385 37.9133 85.8577 37.9042 85.7844 37.8905C85.711 37.8767 85.6378 37.8564 85.569 37.8337L85.6268 37.2662C85.6764 37.2815 85.7281 37.2961 85.7786 37.3062C85.829 37.3157 85.8813 37.3229 85.931 37.3229C86.0764 37.3229 86.1917 37.2969 86.2725 37.2489C86.3533 37.2014 86.42 37.1147 86.4708 36.9938L86.5393 36.8293L85.3681 33.725ZM92.4846 36.6646H91.7439L91.1584 34.9394L91.0092 34.4627H90.9803L90.9977 34.9904V36.6646H90.2168V33.725H91.3076L91.9219 35.405L92.0884 35.9269H92.1403L92.3068 35.405L92.9209 33.725H94.0117V36.6646H93.2309V34.9904L93.2484 34.4627H93.2195L93.0703 34.9394L92.4846 36.6646ZM97.393 35.4276H95.3664C95.3819 35.6392 95.4679 35.8151 95.6192 35.9495C95.77 36.0841 95.9828 36.1538 96.2507 36.1538C96.3578 36.1538 96.4648 36.1445 96.5663 36.1312C96.668 36.1178 96.7726 36.0906 96.8709 36.0631C96.922 36.0488 96.9788 36.0289 97.0284 36.0119C97.0784 35.9948 97.1309 35.972 97.1809 35.9495V36.5284C97.1117 36.5548 97.0409 36.5796 96.9742 36.5964C96.9072 36.6135 96.8346 36.637 96.7676 36.6475C96.6661 36.6634 96.5607 36.6761 96.4574 36.6872C96.3543 36.6985 96.2526 36.7045 96.1532 36.7045C96.1492 36.7045 96.1446 36.7045 96.1446 36.7045H96.136C95.7415 36.7045 95.3768 36.5843 95.0478 36.3609C94.7188 36.1378 94.5513 35.7473 94.5513 35.1947C94.5513 34.7634 94.6882 34.4011 94.956 34.1137C95.224 33.8261 95.5807 33.6798 96.0209 33.6798C96.0325 33.6798 96.0451 33.6798 96.0584 33.6798C96.0716 33.6798 96.0894 33.6796 96.1013 33.6798C96.4223 33.6905 96.7207 33.8195 96.9883 34.0487C97.2565 34.2772 97.393 34.6842 97.393 35.2513V35.4276ZM95.3664 34.8997H96.5893C96.5968 34.6726 96.5358 34.4994 96.4115 34.3862C96.2869 34.2727 96.1396 34.2129 95.9751 34.2129C95.7874 34.2129 95.6384 34.2857 95.5328 34.4257C95.4278 34.5658 95.3702 34.7257 95.3664 34.8997ZM97.8179 33.725H98.5984V34.6615C98.5984 34.6726 98.5984 34.6926 98.5984 34.7094C98.5984 34.7265 98.6031 34.7471 98.6043 34.7634C98.6105 34.8419 98.6486 34.9188 98.7077 34.985C98.7671 35.051 98.8916 35.0869 99.0751 35.0869C99.1519 35.0869 99.2275 35.0832 99.3021 35.0758C99.3767 35.0682 99.4445 35.0553 99.4998 35.0473C99.5437 35.0404 99.5854 35.033 99.6177 35.0272C99.6502 35.0217 99.6705 35.0169 99.6781 35.0131V33.725H100.459V36.6646H99.6781V35.5804C99.6165 35.5921 99.5554 35.6026 99.4942 35.6119C99.4331 35.6214 99.3696 35.6283 99.3105 35.632C99.2473 35.6359 99.1802 35.6468 99.121 35.6488C99.0619 35.6504 98.9987 35.6545 98.9373 35.6545C98.5279 35.6545 98.2496 35.5872 98.102 35.453C97.955 35.3188 97.8629 35.1689 97.8352 35.0076C97.8287 34.9687 97.8226 34.9232 97.8209 34.88C97.8189 34.8365 97.8179 34.7957 97.8179 34.7579V33.725ZM100.855 33.725H103.496V34.2924H102.566V36.6646H101.785V34.2924H100.855V33.725ZM103.731 33.725H104.592L105.149 35.3482L105.316 35.91H105.344L105.527 35.3251L106.068 33.725H106.86L105.603 37.022C105.595 37.0418 105.578 37.0713 105.571 37.0961C105.563 37.1203 105.548 37.1492 105.54 37.1697C105.463 37.3534 105.345 37.5275 105.191 37.6807C105.039 37.8334 104.768 37.9133 104.385 37.9133C104.301 37.9133 104.22 37.9034 104.147 37.8905C104.074 37.8772 104.001 37.8564 103.932 37.8337L103.99 37.2662C104.038 37.2815 104.091 37.2967 104.141 37.3062C104.191 37.3151 104.244 37.3229 104.293 37.3229C104.438 37.3229 104.554 37.2963 104.635 37.2489C104.715 37.2021 104.782 37.1147 104.833 36.9938L104.901 36.8293L103.731 33.725Z" fill="#6ACC48"/>
<path d="M111.784 3.00436V3.66774H112.05C112.197 3.66774 112.303 3.63205 112.368 3.5607C112.433 3.48935 112.466 3.41305 112.466 3.3322C112.466 3.2491 112.436 3.17359 112.378 3.10583C112.32 3.03801 112.21 3.00436 112.05 3.00436H111.784ZM111.288 2.625H112.154C112.464 2.625 112.678 2.6886 112.797 2.81586C112.915 2.94312 112.975 3.09808 112.975 3.28085C112.975 3.44654 112.929 3.57441 112.836 3.66436C112.743 3.75415 112.632 3.81421 112.504 3.84393V3.85067C112.563 3.86477 112.613 3.89309 112.653 3.93573C112.693 3.97855 112.727 4.03524 112.759 4.10598L113.158 5.04173H112.602L112.287 4.27543C112.254 4.19576 112.213 4.13772 112.163 4.10142C112.113 4.06513 112.05 4.04709 111.972 4.04709H111.784V5.04173H111.288V2.625Z" fill="#237E44"/>
<path d="M112.015 1.6843C110.842 1.6843 109.888 2.62775 109.888 3.78763C109.888 4.94734 110.842 5.89103 112.015 5.89103C113.188 5.89103 114.143 4.94734 114.143 3.78763C114.143 2.62775 113.188 1.6843 112.015 1.6843ZM112.015 6.34096C110.591 6.34096 109.432 5.19551 109.432 3.78763C109.432 2.37958 110.591 1.23438 112.015 1.23438C113.439 1.23438 114.599 2.37958 114.599 3.78763C114.599 5.19551 113.439 6.34096 112.015 6.34096Z" fill="#237E44"/>
</g>
<defs>
<clipPath id="clip0_5199_111878">
<rect width="115" height="44" fill="white"/>
</clipPath>
</defs>
</svg>
