<svg width="24" height="24" viewBox="0 0 24 24" fill="none" xmlns="http://www.w3.org/2000/svg">
<path d="M16.5 15.0001C15.9997 14.9999 15.5044 15.1001 15.0435 15.2948C14.5827 15.4895 14.1655 15.7747 13.8169 16.1335L9.49498 13.3557C9.83494 12.4839 9.83494 11.5162 9.49498 10.6444L13.8169 7.86664C14.466 8.53162 15.339 8.93187 16.2665 8.98979C17.194 9.0477 18.11 8.75915 18.8369 8.18009C19.5637 7.60102 20.0497 6.77269 20.2005 5.85569C20.3513 4.93869 20.1563 3.99835 19.6532 3.21698C19.1501 2.43562 18.3748 1.86889 17.4776 1.62668C16.5804 1.38447 15.6252 1.48403 14.7972 1.90606C13.9693 2.32809 13.3275 3.04252 12.9964 3.91085C12.6652 4.77917 12.6683 5.73951 13.005 6.6057L8.68311 9.38351C8.16267 8.84921 7.49472 8.48224 6.76464 8.32952C6.03457 8.1768 5.27553 8.24527 4.58457 8.52617C3.8936 8.80707 3.3021 9.28764 2.88568 9.90645C2.46926 10.5253 2.24683 11.2542 2.24683 12.0001C2.24683 12.746 2.46926 13.4749 2.88568 14.0937C3.3021 14.7125 3.8936 15.1931 4.58457 15.474C5.27553 15.7549 6.03457 15.8233 6.76464 15.6706C7.49472 15.5179 8.16267 15.1509 8.68311 14.6166L13.005 17.3944C12.7155 18.1412 12.6726 18.961 12.8827 19.7339C13.0928 20.5067 13.5449 21.192 14.1726 21.6894C14.8004 22.1867 15.5709 22.47 16.3713 22.4978C17.1718 22.5256 17.9601 22.2964 18.6208 21.8437C19.2815 21.3911 19.78 20.7388 20.0431 19.9823C20.3063 19.2259 20.3204 18.4051 20.0833 17.64C19.8463 16.875 19.3705 16.206 18.7257 15.731C18.0809 15.2559 17.3009 14.9998 16.5 15.0001ZM16.5 3.00007C16.945 3.00007 17.38 3.13203 17.75 3.37927C18.12 3.6265 18.4084 3.9779 18.5787 4.38904C18.749 4.80017 18.7936 5.25257 18.7067 5.68903C18.6199 6.12548 18.4056 6.5264 18.091 6.84106C17.7763 7.15573 17.3754 7.37002 16.9389 7.45684C16.5025 7.54366 16.0501 7.4991 15.6389 7.3288C15.2278 7.15851 14.8764 6.87012 14.6292 6.50011C14.3819 6.1301 14.25 5.69508 14.25 5.25007C14.25 4.65334 14.487 4.08104 14.909 3.65908C15.3309 3.23713 15.9032 3.00007 16.5 3.00007ZM5.99998 14.2501C5.55497 14.2501 5.11996 14.1181 4.74995 13.8709C4.37994 13.6236 4.09155 13.2722 3.92125 12.8611C3.75096 12.45 3.7064 11.9976 3.79321 11.5611C3.88003 11.1247 4.09432 10.7238 4.40899 10.4091C4.72366 10.0944 5.12457 9.88012 5.56103 9.79331C5.99749 9.70649 6.44989 9.75105 6.86102 9.92134C7.27215 10.0916 7.62355 10.38 7.87079 10.75C8.11802 11.1201 8.24998 11.5551 8.24998 12.0001C8.24998 12.5968 8.01293 13.1691 7.59097 13.5911C7.16901 14.013 6.59672 14.2501 5.99998 14.2501ZM16.5 21.0001C16.055 21.0001 15.62 20.8681 15.2499 20.6209C14.8799 20.3736 14.5915 20.0222 14.4213 19.6111C14.251 19.2 14.2064 18.7476 14.2932 18.3111C14.38 17.8747 14.5943 17.4738 14.909 17.1591C15.2237 16.8444 15.6246 16.6301 16.061 16.5433C16.4975 16.4565 16.9499 16.501 17.361 16.6713C17.7722 16.8416 18.1236 17.13 18.3708 17.5C18.618 17.8701 18.75 18.3051 18.75 18.7501C18.75 19.3468 18.5129 19.9191 18.091 20.3411C17.669 20.763 17.0967 21.0001 16.5 21.0001Z" fill="#2D2D2D"/>
</svg>
