<svg width="302" height="259" viewBox="0 0 302 259" fill="none" xmlns="http://www.w3.org/2000/svg">
<g opacity="0.1">
<path d="M301.024 78.029C301.047 88.2664 299.04 98.4066 295.119 107.863C291.198 117.32 285.441 125.905 278.181 133.123L158.184 254.893C157.183 255.909 155.991 256.716 154.676 257.266C153.361 257.817 151.95 258.1 150.524 258.1C149.099 258.1 147.687 257.817 146.373 257.266C145.058 256.716 143.865 255.909 142.865 254.893L22.8681 133.123C8.23851 118.511 0.0126144 98.6861 1.44961e-05 78.0094C-0.0125854 57.3326 8.18914 37.4977 22.8009 22.8681C37.4127 8.23851 57.2376 0.0126148 77.9143 1.44968e-05C98.5911 -0.0125858 118.426 8.18915 133.056 22.8009L150.524 39.1275L168.114 22.7472C179.031 11.8841 192.922 4.4991 208.033 1.52439C223.144 -1.45031 238.798 0.118666 253.018 6.03325C267.238 11.9478 279.387 21.9429 287.931 34.7565C296.475 47.5702 301.031 62.628 301.024 78.029Z" fill="#8F8F8F"/>
</g>
</svg>
