<svg width="237" height="301" viewBox="0 0 237 301" fill="none" xmlns="http://www.w3.org/2000/svg">
<g opacity="0.1">
<path d="M215 279.5H148.538C159.703 269.531 170.231 258.872 180.062 247.586C216.948 205.164 236.5 160.444 236.5 118.25C236.5 86.8882 224.042 56.8108 201.865 34.6346C179.689 12.4584 149.612 0 118.25 0C86.8882 0 56.8108 12.4584 34.6346 34.6346C12.4584 56.8108 0 86.8882 0 118.25C0 160.444 19.4978 205.164 56.4375 247.586C66.2685 258.872 76.7973 269.531 87.9619 279.5H21.5C18.6489 279.5 15.9146 280.633 13.8986 282.649C11.8826 284.665 10.75 287.399 10.75 290.25C10.75 293.101 11.8826 295.835 13.8986 297.851C15.9146 299.867 18.6489 301 21.5 301H215C217.851 301 220.585 299.867 222.601 297.851C224.617 295.835 225.75 293.101 225.75 290.25C225.75 287.399 224.617 284.665 222.601 282.649C220.585 280.633 217.851 279.5 215 279.5ZM118.25 75.25C126.755 75.25 135.068 77.7719 142.14 82.4968C149.211 87.2217 154.722 93.9374 157.977 101.795C161.231 109.652 162.083 118.298 160.424 126.639C158.765 134.98 154.669 142.642 148.656 148.656C142.642 154.669 134.98 158.765 126.639 160.424C118.298 162.083 109.652 161.231 101.795 157.977C93.9374 154.722 87.2217 149.211 82.4968 142.14C77.7719 135.068 75.25 126.755 75.25 118.25C75.25 106.846 79.7803 95.9085 87.8444 87.8444C95.9085 79.7803 106.846 75.25 118.25 75.25Z" fill="#8F8F8F"/>
</g>
</svg>
