<svg width="344" height="276" viewBox="0 0 344 276" fill="none" xmlns="http://www.w3.org/2000/svg">
<g opacity="0.1">
<path d="M236.5 231.125C236.5 234.314 235.554 237.432 233.782 240.084C232.011 242.735 229.492 244.802 226.546 246.023C223.599 247.243 220.357 247.562 217.229 246.94C214.101 246.318 211.228 244.782 208.973 242.527C206.718 240.272 205.182 237.399 204.56 234.271C203.938 231.143 204.257 227.901 205.477 224.954C206.698 222.008 208.765 219.489 211.416 217.718C214.068 215.946 217.186 215 220.375 215C224.652 215 228.753 216.699 231.777 219.723C234.801 222.747 236.5 226.848 236.5 231.125ZM123.625 129C126.814 129 129.932 128.054 132.584 126.282C135.235 124.511 137.302 121.992 138.523 119.046C139.743 116.099 140.062 112.857 139.44 109.729C138.818 106.601 137.282 103.728 135.027 101.473C132.772 99.2178 129.899 97.682 126.771 97.0598C123.643 96.4376 120.401 96.757 117.454 97.9774C114.508 99.1979 111.989 101.265 110.218 103.916C108.446 106.568 107.5 109.686 107.5 112.875C107.5 117.152 109.199 121.253 112.223 124.277C115.247 127.301 119.348 129 123.625 129ZM301 64.5V279.5C301 285.202 298.735 290.671 294.703 294.703C290.671 298.735 285.202 301 279.5 301H64.5C58.7978 301 53.3292 298.735 49.2972 294.703C45.2652 290.671 43 285.202 43 279.5V64.5C43 58.7978 45.2652 53.3292 49.2972 49.2972C53.3292 45.2652 58.7978 43 64.5 43H279.5C285.202 43 290.671 45.2652 294.703 49.2972C298.735 53.3292 301 58.7978 301 64.5ZM86 112.875C86 120.317 88.2067 127.591 92.341 133.778C96.4752 139.966 102.351 144.788 109.227 147.636C116.102 150.484 123.667 151.229 130.965 149.777C138.264 148.325 144.968 144.742 150.23 139.48C155.492 134.218 159.075 127.514 160.527 120.215C161.979 112.917 161.234 105.352 158.386 98.4765C155.538 91.6015 150.716 85.7252 144.528 81.591C138.341 77.4567 131.067 75.25 123.625 75.25C113.646 75.25 104.076 79.2141 97.0201 86.2701C89.9641 93.3262 86 102.896 86 112.875ZM258 231.125C258 223.683 255.793 216.409 251.659 210.222C247.525 204.034 241.649 199.212 234.773 196.364C227.898 193.516 220.333 192.771 213.035 194.223C205.736 195.675 199.032 199.258 193.77 204.52C188.508 209.782 184.925 216.486 183.473 223.785C182.021 231.083 182.766 238.648 185.614 245.523C188.462 252.399 193.284 258.275 199.472 262.409C205.659 266.543 212.933 268.75 220.375 268.75C230.354 268.75 239.924 264.786 246.98 257.73C254.036 250.674 258 241.104 258 231.125ZM254.856 89.1444C253.857 88.1449 252.672 87.352 251.367 86.811C250.062 86.27 248.663 85.9915 247.25 85.9915C245.837 85.9915 244.438 86.27 243.133 86.811C241.828 87.352 240.643 88.1449 239.644 89.1444L89.1444 239.644C87.1272 241.662 85.994 244.397 85.994 247.25C85.994 250.103 87.1272 252.838 89.1444 254.856C91.1615 256.873 93.8973 258.006 96.75 258.006C99.6027 258.006 102.338 256.873 104.356 254.856L254.856 104.356C255.855 103.357 256.648 102.172 257.189 100.867C257.73 99.5616 258.008 98.1627 258.008 96.75C258.008 95.3373 257.73 93.9384 257.189 92.6334C256.648 91.3284 255.855 90.1428 254.856 89.1444Z" fill="#8F8F8F"/>
</g>
</svg>
