<svg width="435" height="261" viewBox="0 0 435 261" fill="none" xmlns="http://www.w3.org/2000/svg">
<path d="M341.568 27.2415L302.448 16.7594C299.566 15.9871 296.495 16.3914 293.911 17.8833C291.327 19.3751 289.442 21.8323 288.669 24.7143L283.428 44.2743C282.965 46.0035 283.207 47.846 284.103 49.3963C284.998 50.9467 286.472 52.078 288.201 52.5413L301.241 56.0354L295.701 68.1398C295.649 68.254 295.607 68.3721 295.574 68.4931C294.956 70.7987 295.279 73.2553 296.473 75.3224C297.666 77.3896 299.632 78.898 301.938 79.5158C304.243 80.1336 306.7 79.8101 308.767 78.6167C310.834 77.4232 312.343 75.4574 312.96 73.1518C312.993 73.0307 313.015 72.9072 313.027 72.7825L314.281 59.5295L327.321 63.0235C329.05 63.4869 330.893 63.2443 332.443 62.3492C333.994 61.4541 335.125 59.9798 335.588 58.2505L343.159 29.9972C343.313 29.4208 343.232 28.8067 342.934 28.2899C342.636 27.7731 342.144 27.396 341.568 27.2415ZM301.283 21.106L329.536 28.6765L326.625 39.5432C326.47 40.1196 326.551 40.7337 326.849 41.2505C327.148 41.7673 327.639 42.1444 328.216 42.2988C328.792 42.4533 329.406 42.3724 329.923 42.0741C330.44 41.7757 330.817 41.2842 330.971 40.7078L333.883 29.8412L338.23 31.0059L332.989 50.5659L289.522 38.919L293.016 25.879C293.479 24.1498 294.611 22.6755 296.161 21.7804C297.711 20.8853 299.554 20.6427 301.283 21.106Z" fill="white"/>
<path d="M237.062 109.501C237.465 111.006 237.413 112.596 236.912 114.071C236.412 115.546 235.485 116.839 234.249 117.787C233.014 118.735 231.524 119.296 229.97 119.398C228.416 119.499 226.867 119.138 225.518 118.359C224.169 117.581 223.081 116.419 222.392 115.022C221.703 113.626 221.444 112.056 221.648 110.512C221.851 108.967 222.508 107.518 223.534 106.347C224.561 105.176 225.913 104.336 227.417 103.933C229.434 103.392 231.584 103.675 233.393 104.719C235.201 105.764 236.521 107.484 237.062 109.501ZM191.422 121.73C191.019 120.226 190.179 118.875 189.008 117.848C187.837 116.821 186.387 116.164 184.843 115.961C183.299 115.758 181.729 116.017 180.332 116.706C178.935 117.395 177.774 118.482 176.995 119.831C176.216 121.18 175.855 122.729 175.957 124.284C176.059 125.838 176.619 127.327 177.568 128.563C178.516 129.798 179.809 130.725 181.284 131.226C182.759 131.726 184.349 131.778 185.853 131.375C187.871 130.835 189.591 129.515 190.635 127.706C191.679 125.897 191.962 123.748 191.422 121.73ZM195.399 114.841C196.904 114.438 198.255 113.598 199.282 112.427C200.309 111.256 200.965 109.807 201.169 108.262C201.372 106.718 201.113 105.148 200.424 103.752C199.735 102.355 198.647 101.193 197.299 100.415C195.95 99.6359 194.4 99.2746 192.846 99.3764C191.292 99.4783 189.803 100.039 188.567 100.987C187.331 101.935 186.405 103.228 185.904 104.703C185.403 106.178 185.351 107.768 185.754 109.273C186.295 111.29 187.615 113.01 189.424 114.055C191.232 115.099 193.382 115.382 195.399 114.841ZM214.959 109.6C216.464 109.197 217.815 108.357 218.842 107.186C219.869 106.015 220.525 104.566 220.729 103.021C220.932 101.477 220.673 99.9074 219.984 98.5105C219.295 97.1136 218.207 95.9523 216.859 95.1735C215.51 94.3948 213.96 94.0335 212.406 94.1353C210.852 94.2372 209.363 94.7977 208.127 95.7458C206.891 96.694 205.965 97.9873 205.464 99.4621C204.963 100.937 204.911 102.527 205.314 104.032C205.855 106.049 207.175 107.769 208.984 108.813C210.792 109.858 212.942 110.141 214.959 109.6ZM225.67 124.451C224.403 124.138 223.21 123.578 222.16 122.803C221.109 122.028 220.222 121.054 219.549 119.936C218.16 117.644 216.065 115.865 213.579 114.866C211.093 113.867 208.35 113.702 205.762 114.396C203.174 115.089 200.881 116.604 199.228 118.712C197.574 120.82 196.65 123.408 196.593 126.087C196.548 128.712 195.464 131.212 193.578 133.038C191.761 134.758 190.568 137.035 190.19 139.508C189.812 141.982 190.268 144.511 191.489 146.695C192.709 148.88 194.622 150.595 196.927 151.571C199.231 152.546 201.795 152.725 204.213 152.079C205.662 151.695 207.019 151.022 208.201 150.099C211.983 147.206 216.756 145.927 221.477 146.542C224.353 146.972 227.283 146.272 229.654 144.589C232.024 142.906 233.651 140.37 234.194 137.514C234.736 134.658 234.151 131.702 232.563 129.267C230.974 126.833 228.504 125.107 225.671 124.454L225.67 124.451Z" fill="white"/>
<path d="M65.5082 79.3912L57.714 74.8912L61.089 69.0455L66.9347 72.4205C67.2308 72.5914 67.5619 72.6926 67.903 72.7163C68.2441 72.7401 68.5861 72.6858 68.903 72.5576C69.2199 72.4294 69.5035 72.2307 69.7322 71.9765C69.9608 71.7223 70.1285 71.4194 70.2226 71.0907L80.4283 35.4138C80.566 34.9315 80.5386 34.417 80.3504 33.9521C80.1622 33.4872 79.8241 33.0984 79.3897 32.8477C78.9554 32.5969 78.4497 32.4984 77.953 32.5679C77.4562 32.6374 76.997 32.8709 76.6481 33.2313L50.8539 59.9082C50.6163 60.154 50.4378 60.4507 50.332 60.7758C50.2261 61.1009 50.1958 61.4458 50.2433 61.7844C50.2907 62.123 50.4147 62.4463 50.6058 62.7298C50.7969 63.0133 51.0501 63.2495 51.3462 63.4205L57.1919 66.7955L53.8169 72.6412L38.2284 63.6412L40.4784 59.7441L42.427 60.8691C42.9438 61.1674 43.5579 61.2483 44.1343 61.0938C44.7107 60.9394 45.2022 60.5623 45.5005 60.0455C45.7989 59.5287 45.8797 58.9146 45.7253 58.3382C45.5709 57.7618 45.1938 57.2703 44.677 56.9719L42.7284 55.8469L44.9784 51.9498L46.927 53.0748C47.4438 53.3732 48.0579 53.4541 48.6343 53.2996C49.2107 53.1452 49.7022 52.7681 50.0005 52.2513C50.2989 51.7345 50.3797 51.1203 50.2253 50.5439C50.0709 49.9675 49.6938 49.4761 49.177 49.1777L27.7428 36.8027C27.226 36.5044 26.6119 36.4235 26.0355 36.5779C25.4591 36.7324 24.9676 37.1095 24.6693 37.6263C24.3709 38.1431 24.2901 38.7572 24.4445 39.3336C24.5989 39.91 24.976 40.4015 25.4928 40.6998L27.4414 41.8248L25.1914 45.7219L23.2428 44.5969C22.726 44.2986 22.1119 44.2177 21.5355 44.3722C20.9591 44.5266 20.4676 44.9037 20.1693 45.4205C19.8709 45.9373 19.7901 46.5514 19.9445 47.1278C20.0989 47.7043 20.476 48.1957 20.9928 48.4941L22.9414 49.6191L20.6914 53.5162L14.8457 50.1412C14.3289 49.8428 13.7148 49.762 13.1384 49.9164C12.562 50.0708 12.0705 50.4479 11.7722 50.9647C11.4738 51.4815 11.3929 52.0957 11.5474 52.6721C11.7018 53.2485 12.0789 53.7399 12.5957 54.0383L63.2582 83.2883C63.775 83.5867 64.3891 83.6675 64.9656 83.5131C65.542 83.3586 66.0334 82.9815 66.3318 82.4647C66.6301 81.9479 66.711 81.3338 66.5565 80.7574C66.4021 80.181 66.025 79.6895 65.5082 79.3912ZM34.3313 61.3912L24.5885 55.7662L26.8385 51.8691L36.5813 57.4941L34.3313 61.3912ZM38.8313 53.5969L29.0885 47.9719L31.3385 44.0748L41.0813 49.6998L38.8313 53.5969ZM50.7541 39.696C52.103 40.4748 53.6525 40.836 55.2067 40.7342C56.7609 40.6323 58.25 40.0719 59.4856 39.1237C60.7213 38.1755 61.6481 36.8822 62.1487 35.4074C62.6494 33.9325 62.7014 32.3423 62.2983 30.8378C61.8952 29.3334 61.055 27.9823 59.884 26.9553C58.713 25.9284 57.2637 25.2717 55.7195 25.0684C54.1753 24.8651 52.6055 25.1243 51.2086 25.8132C49.8117 26.502 48.6504 27.5897 47.8717 28.9385C46.8274 30.7473 46.5444 32.8968 47.085 34.9142C47.6255 36.9317 48.9454 38.6517 50.7541 39.696ZM56.3791 29.9532C56.9572 30.287 57.4233 30.7846 57.7186 31.3833C58.0138 31.982 58.1249 32.6548 58.0378 33.3166C57.9506 33.9784 57.6692 34.5995 57.2291 35.1013C56.789 35.6032 56.2099 35.9633 55.5651 36.136C54.9204 36.3088 54.2389 36.2865 53.6068 36.0719C52.9747 35.8574 52.4204 35.4602 52.0141 34.9306C51.6077 34.401 51.3675 33.7629 51.3239 33.0968C51.2802 32.4307 51.435 31.7666 51.7688 31.1885C52.2163 30.4134 52.9535 29.8477 53.8181 29.616C54.6827 29.3844 55.6039 29.5057 56.3791 29.9532Z" fill="white"/>
<path d="M399.732 185.844C394.722 182.951 388.966 181.609 383.194 181.988C377.421 182.366 371.89 184.448 367.3 187.969C362.711 191.491 359.268 196.295 357.409 201.773C355.549 207.251 355.356 213.157 356.853 218.745C358.351 224.333 361.471 229.352 365.821 233.166C370.17 236.981 375.553 239.42 381.289 240.175C387.024 240.93 392.855 239.967 398.044 237.409C403.232 234.85 407.545 230.81 410.438 225.8C414.308 219.08 415.355 211.099 413.348 203.608C411.34 196.117 406.444 189.728 399.732 185.844ZM380.838 198.318C381.416 198.652 381.882 199.15 382.178 199.748C382.473 200.347 382.584 201.02 382.497 201.682C382.41 202.343 382.128 202.965 381.688 203.466C381.248 203.968 380.669 204.328 380.024 204.501C379.379 204.674 378.698 204.652 378.066 204.437C377.434 204.222 376.879 203.825 376.473 203.296C376.067 202.766 375.827 202.128 375.783 201.462C375.739 200.796 375.894 200.132 376.228 199.554C376.675 198.778 377.413 198.213 378.277 197.981C379.142 197.749 380.063 197.871 380.838 198.318ZM392.597 224.593C387.589 227.479 381.989 227.561 377.232 224.815C372.475 222.068 369.744 217.179 369.741 211.397C369.728 211.094 369.776 210.791 369.884 210.507C369.991 210.223 370.154 209.964 370.364 209.745C370.574 209.525 370.826 209.351 371.105 209.232C371.384 209.113 371.684 209.051 371.988 209.051C372.291 209.051 372.591 209.112 372.871 209.231C373.15 209.35 373.402 209.524 373.612 209.743C373.822 209.962 373.986 210.221 374.093 210.505C374.201 210.789 374.249 211.091 374.237 211.395C374.241 215.589 376.103 218.967 379.482 220.918C382.86 222.868 386.718 222.79 390.351 220.698C390.608 220.536 390.894 220.427 391.194 220.378C391.493 220.329 391.799 220.341 392.094 220.413C392.389 220.486 392.666 220.617 392.908 220.8C393.151 220.982 393.354 221.211 393.506 221.474C393.657 221.737 393.754 222.028 393.79 222.329C393.827 222.631 393.802 222.936 393.717 223.227C393.632 223.519 393.489 223.79 393.297 224.025C393.104 224.259 392.866 224.453 392.597 224.593ZM395 214.289C394.422 213.955 393.956 213.458 393.661 212.859C393.365 212.26 393.254 211.587 393.342 210.926C393.429 210.264 393.71 209.643 394.15 209.141C394.59 208.639 395.169 208.279 395.814 208.106C396.459 207.933 397.14 207.956 397.773 208.17C398.405 208.385 398.959 208.782 399.365 209.312C399.772 209.841 400.012 210.479 400.055 211.145C400.099 211.811 399.944 212.476 399.61 213.054C399.163 213.829 398.426 214.394 397.561 214.626C396.697 214.858 395.775 214.736 395 214.289Z" fill="white"/>
<path d="M100.991 171.834C100.068 171.911 99.19 172.27 98.4785 172.864C97.767 173.458 97.2562 174.257 97.0159 175.152C97.0015 175.206 96.9906 175.255 96.981 175.306L95.5754 182.58C89.7081 182.372 83.9005 183.818 78.816 186.753C73.7315 189.689 69.5753 193.995 66.822 199.181L59.8074 196.768C59.7585 196.751 59.711 196.736 59.6572 196.722C58.7619 196.482 57.8144 196.525 56.9443 196.844C56.0742 197.163 55.3239 197.743 54.7959 198.505C54.3103 199.229 54.0399 200.076 54.016 200.947C53.992 201.819 54.2155 202.679 54.6605 203.429L66.9708 224.751C73.8614 236.686 89.3324 240.949 102.676 235.092C102.822 235.029 102.952 234.935 103.059 234.817C103.165 234.699 103.246 234.56 103.295 234.409C103.344 234.258 103.36 234.099 103.343 233.941C103.326 233.783 103.276 233.631 103.195 233.494L98.6953 225.699L93.538 224.315C92.9598 224.17 92.4603 223.806 92.1437 223.301C91.8271 222.796 91.7181 222.188 91.8393 221.604C91.9081 221.31 92.0352 221.034 92.213 220.79C92.3909 220.547 92.6158 220.341 92.8745 220.187C93.1332 220.032 93.4203 219.931 93.7189 219.889C94.0175 219.847 94.3214 219.866 94.6126 219.944L98.5852 221.009L99.6482 217.034C99.7262 216.742 99.8619 216.47 100.047 216.232C100.233 215.994 100.464 215.796 100.727 215.65C100.991 215.503 101.281 215.411 101.581 215.378C101.88 215.346 102.184 215.374 102.472 215.462C103.038 215.649 103.51 216.047 103.79 216.574C104.069 217.101 104.134 217.715 103.971 218.289L102.591 223.447L107.091 231.241C107.17 231.379 107.276 231.499 107.405 231.593C107.533 231.686 107.679 231.752 107.835 231.785C107.99 231.818 108.15 231.818 108.306 231.784C108.461 231.751 108.607 231.685 108.735 231.591C120.479 222.963 124.524 207.436 117.633 195.501L105.323 174.179C104.896 173.419 104.263 172.795 103.496 172.38C102.73 171.965 101.861 171.776 100.991 171.834ZM83.835 220.211C83.2569 220.544 82.5928 220.699 81.9267 220.655C81.2606 220.612 80.6225 220.372 80.0929 219.965C79.5633 219.559 79.1661 219.005 78.9516 218.373C78.737 217.74 78.7147 217.059 78.8875 216.414C79.0602 215.769 79.4203 215.19 79.9222 214.75C80.424 214.31 81.0451 214.029 81.7069 213.942C82.3687 213.854 83.0415 213.965 83.6402 214.261C84.2389 214.556 84.7365 215.022 85.0703 215.6C85.5179 216.375 85.6391 217.297 85.4075 218.161C85.1758 219.026 84.6101 219.763 83.835 220.211ZM79.7064 201.81C80.0047 202.326 80.0856 202.94 79.9311 203.517C79.7767 204.093 79.3996 204.585 78.8828 204.883C78.366 205.181 77.7519 205.262 77.1755 205.108C76.5991 204.953 76.1076 204.576 75.8092 204.06L73.1374 199.432C72.839 198.915 72.7581 198.301 72.9126 197.724C73.067 197.148 73.4441 196.657 73.9609 196.358C74.4777 196.06 75.0919 195.979 75.6683 196.133C76.2447 196.288 76.7361 196.665 77.0345 197.182L79.7064 201.81ZM87.5006 197.31C87.799 197.826 87.8798 198.44 87.7254 199.017C87.5709 199.593 87.1938 200.085 86.677 200.383C86.1602 200.681 85.5461 200.762 84.9697 200.608C84.3933 200.453 83.9018 200.076 83.6035 199.56L80.2285 193.714C79.9301 193.197 79.8492 192.583 80.0037 192.007C80.1581 191.43 80.5352 190.939 81.052 190.64C81.5688 190.342 82.183 190.261 82.7594 190.416C83.3358 190.57 83.8272 190.947 84.1256 191.464L87.5006 197.31ZM91.3977 195.06L88.7258 190.432C88.4275 189.915 88.3466 189.301 88.501 188.724C88.6555 188.148 89.0326 187.657 89.5494 187.358C90.0662 187.06 90.6803 186.979 91.2567 187.133C91.8331 187.288 92.3246 187.665 92.6229 188.182L95.2948 192.81C95.5932 193.326 95.674 193.94 95.5196 194.517C95.3651 195.093 94.988 195.585 94.4713 195.883C93.9545 196.181 93.3403 196.262 92.7639 196.108C92.1875 195.953 91.6961 195.576 91.3977 195.06ZM105.269 207.836C104.691 208.169 104.027 208.324 103.361 208.28C102.695 208.237 102.057 207.997 101.527 207.59C100.997 207.184 100.6 206.63 100.386 205.998C100.171 205.365 100.149 204.684 100.322 204.039C100.494 203.394 100.854 202.815 101.356 202.375C101.858 201.935 102.479 201.654 103.141 201.567C103.803 201.479 104.476 201.59 105.074 201.886C105.673 202.181 106.171 202.647 106.504 203.225C106.952 204 107.073 204.922 106.842 205.786C106.61 206.651 106.044 207.388 105.269 207.836Z" fill="white"/>
</svg>
