
<svg width="405" height="200" viewBox="0 0 405 200" fill="none" xmlns="http://www.w3.org/2000/svg">
<path d="M206.928 87.5389C206.755 88.1837 206.395 88.7628 205.893 89.2029C205.391 89.643 204.77 89.9244 204.108 90.0115C203.446 90.0987 202.773 89.9876 202.175 89.6924C201.576 89.3971 201.078 88.931 200.745 88.3529C200.411 87.7748 200.256 87.1108 200.3 86.4447C200.343 85.7786 200.584 85.1404 200.99 84.6109C201.396 84.0813 201.951 83.6841 202.583 83.4695C203.215 83.255 203.896 83.2327 204.541 83.4054C205.406 83.6371 206.143 84.2027 206.59 84.9779C207.038 85.7531 207.159 86.6743 206.928 87.5389ZM189.64 60.7777C190.285 60.9504 190.966 60.9281 191.598 60.7136C192.23 60.499 192.785 60.1018 193.191 59.5722C193.597 59.0427 193.837 58.4045 193.881 57.7384C193.925 57.0723 193.77 56.4083 193.436 55.8302C193.102 55.2521 192.605 54.786 192.006 54.4907C191.407 54.1955 190.735 54.0844 190.073 54.1715C189.411 54.2587 188.79 54.5401 188.288 54.9802C187.786 55.4203 187.426 55.9994 187.253 56.6442C187.022 57.5088 187.143 58.43 187.59 59.2052C188.038 59.9804 188.775 60.546 189.64 60.7777ZM228.994 57.3463L217.347 100.813C217.038 101.966 216.284 102.949 215.25 103.545C214.217 104.142 212.988 104.304 211.836 103.995L168.369 92.3481C167.216 92.0392 166.233 91.285 165.637 90.2515C165.04 89.2179 164.878 87.9896 165.187 86.8368L176.834 43.3701C177.143 42.2173 177.897 41.2344 178.931 40.6377C179.964 40.0409 181.192 39.8792 182.345 40.1881L225.812 51.835C226.965 52.1439 227.948 52.8981 228.544 53.9316C229.141 54.9652 229.303 56.1935 228.994 57.3463ZM182.907 55.4795C182.504 56.9839 182.556 58.5741 183.056 60.049C183.557 61.5239 184.484 62.8172 185.719 63.7653C186.955 64.7135 188.444 65.2739 189.998 65.3758C191.552 65.4777 193.102 65.1164 194.451 64.3376C195.8 63.5589 196.887 62.3976 197.576 61.0007C198.265 59.6038 198.524 58.034 198.321 56.4898C198.118 54.9456 197.461 53.4963 196.434 52.3253C195.407 51.1543 194.056 50.3141 192.552 49.911C190.534 49.3704 188.385 49.6534 186.576 50.6977C184.767 51.742 183.447 53.4621 182.907 55.4795ZM211.274 88.7036C211.677 87.1992 211.625 85.609 211.125 84.1341C210.624 82.6592 209.697 81.3659 208.462 80.4178C207.226 79.4696 205.737 78.9092 204.183 78.8073C202.628 78.7054 201.079 79.0667 199.73 79.8455C198.381 80.6242 197.294 81.7855 196.605 83.1824C195.916 84.5793 195.657 86.1491 195.86 87.6933C196.063 89.2375 196.72 90.6868 197.747 91.8578C198.774 93.0288 200.125 93.869 201.629 94.2721C203.647 94.8127 205.796 94.5297 207.605 93.4854C209.414 92.4411 210.734 90.721 211.274 88.7036ZM218.33 59.829C218.182 59.5728 217.985 59.3483 217.751 59.1682C217.516 58.9882 217.249 58.8561 216.963 58.7796C216.677 58.703 216.379 58.6836 216.086 58.7222C215.793 58.7609 215.511 58.857 215.255 59.005L176.675 81.2788C176.158 81.5774 175.781 82.0691 175.626 82.6458C175.472 83.2225 175.553 83.837 175.851 84.3541C176.15 84.8712 176.641 85.2485 177.218 85.403C177.795 85.5576 178.409 85.4767 178.926 85.1781L217.506 62.9043C217.762 62.7566 217.986 62.5598 218.167 62.3253C218.347 62.0908 218.479 61.823 218.555 61.5374C218.632 61.2518 218.651 60.9539 218.613 60.6608C218.574 60.3676 218.478 60.085 218.33 59.829Z" fill="white"/>
<path d="M340.552 23.8437C335.542 26.7363 331.502 31.0495 328.943 36.238C326.385 41.4265 325.422 47.2573 326.177 52.9929C326.932 58.7285 329.371 64.1114 333.186 68.4609C337 72.8103 342.019 75.931 347.606 77.4283C353.194 78.9256 359.101 78.7323 364.579 76.8727C370.057 75.0131 374.861 71.5709 378.383 66.9813C381.904 62.3916 383.986 56.8607 384.364 51.088C384.743 45.3153 383.401 39.56 380.508 34.55C376.624 27.838 370.235 22.9412 362.744 20.934C355.253 18.9269 347.272 19.9733 340.552 23.8437ZM364.177 64.7634C363.599 65.0972 362.935 65.252 362.269 65.2084C361.603 65.1647 360.964 64.9245 360.435 64.5182C359.905 64.1118 359.508 63.5576 359.294 62.9255C359.079 62.2934 359.057 61.6119 359.229 60.9671C359.402 60.3223 359.762 59.7433 360.264 59.3031C360.766 58.863 361.387 58.5816 362.049 58.4945C362.711 58.4074 363.384 58.5184 363.982 58.8137C364.581 59.1089 365.079 59.575 365.412 60.1531C365.86 60.9283 365.981 61.8495 365.749 62.7141C365.518 63.5787 364.952 64.3159 364.177 64.7634ZM359.274 51.7717L359.376 51.9471C359.674 52.4639 359.755 53.078 359.6 53.6544C359.446 54.2308 359.069 54.7223 358.552 55.0207C358.035 55.319 357.421 55.3999 356.845 55.2454C356.268 55.091 355.777 54.7139 355.478 54.1971L354.353 52.2485C354.055 51.7318 353.974 51.1176 354.129 50.5412C354.283 49.9648 354.66 49.4734 355.177 49.175C358.399 47.3145 359.757 43.6079 358.21 40.9286C356.663 38.2493 352.774 37.5717 349.552 39.4322C346.33 41.2927 344.972 44.9993 346.519 47.6786L347.081 48.6529C347.38 49.1697 347.461 49.7838 347.306 50.3602C347.152 50.9366 346.775 51.4281 346.258 51.7264C345.741 52.0248 345.127 52.1057 344.55 51.9512C343.974 51.7968 343.483 51.4197 343.184 50.9029L342.622 49.9286C339.83 45.0937 341.929 38.6373 347.302 35.5351C352.675 32.4329 359.316 33.8437 362.107 38.6786C364.551 42.9118 363.246 48.3908 359.274 51.7717Z" fill="white"/>
<path d="M107.836 123.185L64.3691 134.831C63.2163 135.14 62.2334 135.894 61.6367 136.928C61.04 137.962 60.8783 139.19 61.1871 140.343L72.834 183.809C73.1429 184.962 73.8971 185.945 74.9307 186.542C75.9642 187.139 77.1925 187.3 78.3454 186.991L121.812 175.345C122.965 175.036 123.948 174.281 124.544 173.248C125.141 172.214 125.303 170.986 124.994 169.833L113.347 126.367C113.038 125.214 112.284 124.231 111.25 123.634C110.217 123.037 108.989 122.876 107.836 123.185ZM102.637 138.554L96.562 140.182L94.2347 168.758L98.758 167.546C99.3344 167.391 99.9485 167.472 100.465 167.77C100.982 168.069 101.359 168.56 101.514 169.137C101.668 169.713 101.587 170.327 101.289 170.844C100.99 171.361 100.499 171.738 99.9226 171.892L84.7093 175.969C84.1329 176.123 83.5188 176.042 83.002 175.744C82.4852 175.446 82.1081 174.954 81.9536 174.378C81.7992 173.801 81.88 173.187 82.1784 172.67C82.4768 172.154 82.9682 171.776 83.5446 171.622L89.6191 169.994L91.9464 141.418L87.4232 142.63C86.8468 142.785 86.2326 142.704 85.7158 142.406C85.199 142.107 84.822 141.616 84.6675 141.039C84.5131 140.463 84.5939 139.849 84.8923 139.332C85.1907 138.815 85.6821 138.438 86.2585 138.284L101.472 134.207C102.048 134.053 102.662 134.134 103.179 134.432C103.696 134.73 104.073 135.222 104.228 135.798C104.382 136.375 104.301 136.989 104.003 137.506C103.704 138.022 103.213 138.399 102.637 138.554Z" fill="white"/>
<path d="M41.3665 26.176C40.9467 26.2055 40.5435 26.3522 40.2029 26.5994C39.8622 26.8466 39.5977 27.1844 39.4394 27.5744L30.0659 50.6239L19.0443 56.9872C18.0108 57.5839 17.2566 58.5668 16.9477 59.7196C16.6388 60.8724 16.8005 62.1007 17.3972 63.1343L26.3972 78.7227C26.994 79.7563 27.9769 80.5105 29.1297 80.8194C30.2825 81.1283 31.5108 80.9666 32.5443 80.3698L43.5659 74.0066L68.2141 77.4136C68.6312 77.4712 69.056 77.4106 69.4404 77.2387C69.8247 77.0668 70.1531 76.7906 70.3882 76.4414C70.6234 76.0921 70.7558 75.6839 70.7705 75.2632C70.7852 74.8424 70.6815 74.426 70.4713 74.0612L43.4713 27.2958C43.2606 26.9307 42.9515 26.6322 42.5794 26.4342C42.2073 26.2362 41.787 26.1467 41.3665 26.176ZM64.2735 72.3264L43.4193 69.4439C42.9237 69.3735 42.4188 69.4717 41.9857 69.7227L30.2943 76.4727L21.2943 60.8843L32.9857 54.1343C33.4196 53.8847 33.7571 53.4966 33.944 53.0322L41.8748 33.5306L64.2735 72.3264ZM63.339 39.2078L70.089 50.8992C70.3874 51.416 70.4683 52.0301 70.3138 52.6065C70.1594 53.1829 69.7823 53.6744 69.2655 53.9727C68.7487 54.2711 68.1345 54.352 67.5581 54.1975C66.9817 54.0431 66.4903 53.666 66.1919 53.1492L59.4419 41.4578C59.1436 40.941 59.0627 40.3269 59.2172 39.7505C59.3716 39.1741 59.7487 38.6826 60.2655 38.3843C60.7823 38.0859 61.3964 38.0051 61.9728 38.1595C62.5492 38.3139 63.0407 38.691 63.339 39.2078Z" fill="white"/>
<path d="M313.856 143.742C315.182 150.857 313.825 158.212 310.047 164.386C306.269 170.56 300.338 175.116 293.399 177.174C286.46 179.232 279.004 178.647 272.471 175.531C265.938 172.416 260.79 166.99 258.021 160.303C255.253 153.615 255.06 146.139 257.48 139.317C259.899 132.495 264.76 126.812 271.124 123.363C277.487 119.914 284.903 118.945 291.939 120.643C298.976 122.34 305.134 126.584 309.225 132.554L317.035 128.043C317.552 127.745 318.166 127.664 318.743 127.818C319.32 127.973 319.812 128.35 320.11 128.867C320.409 129.384 320.489 129.999 320.335 130.576C320.18 131.152 319.803 131.644 319.286 131.942L297.908 144.287L284.919 151.787L276.669 156.55C278.053 158.113 279.845 159.26 281.843 159.863C283.842 160.466 285.97 160.501 287.987 159.964C290.005 159.426 291.833 158.338 293.267 156.821C294.702 155.304 295.685 153.417 296.109 151.373C296.231 150.788 296.58 150.275 297.08 149.947C297.58 149.62 298.19 149.505 298.775 149.627C299.36 149.749 299.873 150.098 300.2 150.598C300.527 151.098 300.643 151.708 300.521 152.293C299.872 155.417 298.288 158.271 295.981 160.475C293.674 162.68 290.752 164.132 287.601 164.638C284.45 165.145 281.22 164.683 278.338 163.313C275.456 161.942 273.058 159.729 271.462 156.966C269.48 153.518 268.875 149.448 269.77 145.573C270.665 141.698 272.993 138.304 276.286 136.075C279.579 133.845 283.594 132.943 287.524 133.551C291.454 134.159 295.009 136.232 297.475 139.352L305.307 134.821C301.786 129.847 296.55 126.349 290.607 125C284.664 123.651 278.432 124.545 273.108 127.511C267.783 130.476 263.743 135.305 261.761 141.068C259.78 146.831 259.998 153.124 262.373 158.736C264.749 164.349 269.114 168.886 274.631 171.476C280.147 174.066 286.426 174.527 292.262 172.769C298.098 171.012 303.078 167.161 306.247 161.955C309.416 156.749 310.55 150.556 309.431 144.565C309.322 143.978 309.45 143.372 309.788 142.88C310.126 142.388 310.645 142.05 311.232 141.941C311.819 141.832 312.425 141.96 312.917 142.298C313.409 142.635 313.747 143.155 313.856 143.742Z" fill="white"/>
</svg>
