<svg width="24" height="24" viewBox="0 0 24 24" fill="none" xmlns="http://www.w3.org/2000/svg">
<path d="M20.9062 5.34352C19.8873 4.32714 18.5074 3.75557 17.0682 3.75381C15.629 3.75206 14.2477 4.32025 13.2262 5.33415L12 6.47321L10.7728 5.3304C9.75164 4.31209 8.36778 3.74115 6.92565 3.74317C5.48352 3.74519 4.10127 4.32001 3.08296 5.34118C2.06465 6.36235 1.49371 7.74621 1.49573 9.18833C1.49775 10.6305 2.07258 12.0127 3.09374 13.031L11.4703 21.5304C11.5401 21.6013 11.6233 21.6575 11.715 21.696C11.8068 21.7344 11.9052 21.7541 12.0047 21.7541C12.1041 21.7541 12.2026 21.7344 12.2943 21.696C12.3861 21.6575 12.4693 21.6013 12.5391 21.5304L20.9062 13.031C21.9253 12.0114 22.4977 10.6288 22.4977 9.18727C22.4977 7.74572 21.9253 6.36316 20.9062 5.34352ZM19.8422 11.9773L12 19.931L4.15312 11.9698C3.41466 11.2313 2.99979 10.2297 2.99979 9.1854C2.99979 8.14105 3.41466 7.13948 4.15312 6.40102C4.89158 5.66256 5.89315 5.2477 6.93749 5.2477C7.98184 5.2477 8.9834 5.66256 9.72187 6.40102L9.74062 6.41977L11.4891 8.04634C11.6278 8.17549 11.8104 8.2473 12 8.2473C12.1896 8.2473 12.3721 8.17549 12.5109 8.04634L14.2594 6.41977L14.2781 6.40102C15.0171 5.66306 16.0189 5.24887 17.0633 5.24957C18.1076 5.25027 19.1089 5.66581 19.8469 6.40477C20.5848 7.14373 20.999 8.14558 20.9983 9.18992C20.9976 10.2343 20.5821 11.2356 19.8431 11.9735L19.8422 11.9773Z" fill="#2D2D2D"/>
</svg>
