<svg width="24" height="24" viewBox="0 0 24 24" fill="none" xmlns="http://www.w3.org/2000/svg">
<path d="M8.60998 21.1774H1.93015V18.3547H8.59516V21.1774H8.60998ZM9.95476 16.936H0.600098V24H1.93015V22.5813H9.92524V16.936H9.95476ZM1.93015 4.24138L4.60503 1.41872V11.3054H1.93015V4.24138ZM0.600098 12.7094H5.92029V0H3.94L0.600098 3.53202V12.7094ZM8.60998 1.41872H11.2848V11.3054H8.60998V1.41872ZM7.2799 12.7094H12.6001V0H7.2799V12.7094ZM21.9252 12.7094H23.2553V0H21.2454V0.0147783L19.2356 2.12808V0H17.2257L13.9154 3.53202V12.7094H15.2454V4.24138L17.9203 1.41872V12.7094H19.2503V4.24138L21.9252 1.41872V12.7094ZM0.600098 15.532H23.27V14.1133H0.600098V15.532ZM17.9351 18.3547H21.9252V21.1774H17.9351V18.3547ZM16.605 21.1774H12.6001V18.3547H16.605V21.1774ZM17.9351 22.5813H23.27V16.936H11.2848V22.5813H16.605V24H17.9351V22.5813Z" fill="#384249"/>
</svg>
