<svg width="21" height="20" viewBox="0 0 21 20" fill="none" xmlns="http://www.w3.org/2000/svg">
<path fill-rule="evenodd" clip-rule="evenodd" d="M0.791748 10.0054C0.791748 4.48513 5.27851 0 10.7985 0C16.3061 0 20.7917 4.48513 20.7917 10.0054C20.7917 15.5143 16.3061 20 10.7985 20C5.27851 20 0.791748 15.5143 0.791748 10.0054ZM1.29169 10.0054C1.29169 15.2387 5.55629 19.4998 10.7985 19.4998C16.0302 19.4998 20.2918 15.2376 20.2918 10.0054C20.2918 4.76346 16.0318 0.500217 10.7985 0.500217C5.55466 0.500217 1.29169 4.76128 1.29169 10.0054ZM13.636 3.71853C12.0534 3.0127 9.10447 2.94271 6.68883 4.01855C6.88197 3.88021 7.08352 3.75543 7.29267 3.64366C7.42017 3.5753 7.55065 3.51183 7.6833 3.45378C8.44393 3.0995 9.6706 2.75608 11.1995 2.75608C11.2716 2.75608 11.3438 2.75662 11.4162 2.75825C12.7234 2.78158 14.2732 3.23296 15.2205 4.16992C15.3816 4.36632 15.4749 4.56217 15.5094 4.71354C16.261 5.09549 16.7 5.45356 16.9422 5.87023C17.0472 6.08941 17.0816 6.31999 17.0344 6.58637C17.281 6.72472 17.4948 6.91461 17.6611 7.14356C17.7633 7.31662 17.8444 7.51139 17.8683 7.68772C17.9022 7.91721 17.925 8.18305 17.6822 8.49609C17.9367 8.62359 18.1439 8.98058 18.1689 9.13249C18.2961 9.69727 17.925 10.2528 17.4516 10.682C17.0974 10.9912 16.471 11.3384 15.8056 11.6157C15.4274 11.773 15.0365 11.9081 14.676 12.0003C13.2869 12.3519 12.0057 12.5591 10.8843 12.7409C10.4209 12.8163 9.98473 12.8868 9.57945 12.9612C9.94892 13.0496 10.3957 13.1554 10.9843 13.2265C11.3896 13.2758 11.8622 13.3084 12.4234 13.3084C15.3699 13.3084 17.9717 11.9189 17.9717 11.9189C17.9717 11.9189 17.9144 12.0936 17.8556 12.2559C15.9833 13.3887 13.0129 13.8623 11.7401 13.8043C10.4567 13.7457 9.37058 13.5498 8.30667 13.2254C7.98169 13.3171 7.66159 13.425 7.34774 13.5498C8.9672 14.2898 10.1917 14.4526 11.5678 14.5557C12.9771 14.6609 15.3138 14.324 17.2772 13.6089C17.2333 13.6534 17.1996 13.7082 17.1668 13.7619C17.1307 13.8205 17.0952 13.8786 17.0472 13.9209C16.041 14.4526 13.9151 14.9848 12.8395 15.0309C11.7751 15.0776 10.4806 15.0309 9.34725 14.822C8.37611 14.6267 7.57723 14.324 6.74552 13.9556C6.5966 14.0696 6.52715 14.2101 6.49108 14.3723C9.74167 16.072 12.7687 16.1057 16.2271 15.0309L15.9138 15.332C12.1101 16.8821 9.13892 16.2798 6.83721 15.1693C6.75773 15.1345 6.66496 15.0993 6.5966 15.0537C6.8166 15.4243 8.57224 16.7079 10.5378 16.8701C11.2486 16.9309 12.0417 16.8956 12.7769 16.792C13.442 16.6981 14.06 16.5479 14.5266 16.3618L13.9488 16.6618C13.4743 16.8934 12.2145 17.4268 10.4562 17.3101C8.11 17.1474 6.79164 16.1062 6.20163 15.5637C5.9244 15.3076 5.79826 15.0195 5.71661 14.6609C5.18438 14.3831 4.84937 14.0929 4.57322 13.654C4.411 13.4115 4.44436 13.1228 4.47881 12.8781L4.55097 12.6725C4.29489 12.4854 4.02932 12.289 3.92543 12.0936C3.69268 11.677 3.83374 11.3178 3.99487 11.04C3.9436 10.9809 3.89396 10.9218 3.84893 10.8626C3.77135 10.7601 3.70733 10.6576 3.67234 10.555C3.60208 10.37 3.59123 10.1828 3.61211 9.97559C3.65932 9.62945 3.84432 9.30664 4.0871 9.02778C4.59492 8.4375 5.40601 7.97526 6.77998 7.52441C7.82761 7.17448 8.39022 7.05349 9.06242 6.90918C9.25909 6.86686 9.46498 6.82292 9.69501 6.77029C10.8856 6.49468 12.3079 6.403 13.4976 5.98633C10.1795 5.40853 6.73494 5.93967 3.92543 7.86947L4.10989 7.32639C6.62996 5.68468 9.41669 4.71354 14.1332 5.53494C14.3877 5.38411 14.5377 5.23329 14.6082 4.93327C13.4282 4.50575 12.1456 4.35547 10.4928 4.37771C9.01223 4.42491 6.34052 4.97776 4.90932 5.8252L5.3466 5.28049C6.34052 4.68859 8.94171 3.91493 10.8973 3.88021C12.2718 3.84603 12.9771 3.92632 14.6193 4.36632C14.4677 4.09017 14.1332 3.9502 13.636 3.71853ZM16.1561 6.12522C16.111 5.80132 15.741 5.48882 15.4166 5.28049C15.3865 5.38574 15.3037 5.5051 15.2175 5.61089C15.1708 5.6684 15.1231 5.72157 15.0821 5.7666C15.4405 5.85992 15.8105 5.99664 16.1561 6.12522ZM14.5738 6.2283C14.341 6.41385 14.0765 6.57498 13.6821 6.72689C14.331 6.84028 14.8165 7.02582 15.3699 7.17719C15.3756 7.1799 15.3821 7.18099 15.3884 7.18045C15.5088 7.18045 15.9049 6.81424 15.9732 6.71387C15.7589 6.62001 15.5183 6.52561 15.2603 6.43717C15.042 6.3623 14.8114 6.29123 14.5738 6.2283ZM17.0472 7.9286C17.1966 7.63943 17.1044 7.45443 16.7933 7.18804C16.6655 7.33995 16.5266 7.46582 16.3766 7.58138C16.4857 7.63346 16.5904 7.67849 16.6915 7.72624C16.815 7.78429 16.9332 7.84614 17.0472 7.9286ZM11.8456 7.31662C10.3195 7.50163 8.63056 7.82389 7.18606 8.2525L7.10902 8.27583C6.39206 8.49392 3.68102 9.31641 4.50431 10.4503L4.51408 10.4395C4.59275 10.3505 5.16431 9.70106 6.96552 9.17752C8.23261 8.80534 9.53171 8.56879 10.8512 8.32845C12.0363 8.11252 13.238 7.89334 14.4471 7.57053C13.7274 7.37902 13.237 7.26454 12.6233 7.264C12.3887 7.264 12.1361 7.28082 11.8456 7.31662ZM13.4985 8.71582C12.6779 8.92361 10.6884 9.21278 8.55054 9.67502C7.87942 9.8253 6.0405 10.2528 5.13881 11.0167C5.28339 11.1361 5.39841 11.2023 5.52157 11.2668C5.61461 11.3156 5.71254 11.3639 5.83162 11.4334C6.20163 11.1898 6.71107 10.9587 7.46384 10.7612C8.65118 10.446 9.57403 10.2941 10.6195 10.1221L10.9317 10.0705C12.0995 9.89366 14.3071 9.43142 15.5205 8.99197C15.7996 8.89757 16.0611 8.78038 16.2838 8.64421C16.385 8.58236 16.4781 8.51671 16.5611 8.44781C16.48 8.35666 15.6938 7.97526 15.6705 8.01053C15.1866 8.2411 14.4926 8.47168 13.4985 8.71582ZM14.3193 10.2886C11.8456 10.9587 10.0523 11.0498 8.01723 11.55C7.78285 11.6092 7.54495 11.6775 7.31247 11.7556C7.1432 11.8121 6.97664 11.8739 6.8166 11.9417C7.19664 12.1387 7.61331 12.3128 8.02889 12.475C8.86114 12.232 9.2561 12.1278 10.4562 11.9314L11.1227 11.8115C11.7583 11.6954 12.6459 11.531 13.3465 11.3889C15.1866 10.9939 17.88 10.1378 17.1633 9.02778C17.1275 9.05816 17.0917 9.08583 17.0559 9.1135C17.0106 9.14931 16.9655 9.18511 16.9205 9.22472C16.3766 9.63867 15.5094 9.97559 14.3193 10.2886ZM4.93102 12.1387C5.01104 12.0584 5.11602 11.9884 5.19713 11.9189C5.01104 11.8229 4.88355 11.7415 4.73733 11.6482L4.65324 11.5945C4.56047 11.805 4.7471 12.0334 4.93102 12.1387ZM7.08054 12.8098C6.74552 12.6595 6.38772 12.5103 6.0405 12.3481C5.87883 12.4523 5.72936 12.5553 5.61325 12.6595C5.89049 12.8217 6.15715 12.9709 6.43492 13.1234C6.63919 12.9975 6.85539 12.8923 7.08054 12.8098ZM5.72936 13.8862C5.76272 13.7695 5.82159 13.6778 5.9027 13.5623C5.81128 13.5135 5.72013 13.4652 5.62899 13.4147C5.52319 13.3556 5.41794 13.2943 5.31269 13.2254C5.29994 13.4462 5.43991 13.6426 5.72936 13.8862Z" fill="#476BF0"/>
</svg>
