<svg width="24" height="24" viewBox="0 0 24 24" fill="none" xmlns="http://www.w3.org/2000/svg">
<path d="M21.2111 4.66211C21.7736 5.39912 22.2498 6.19981 22.63 7.04812L11.844 15.1061L7.33618 12.2424V8.7971L11.844 11.6609L21.2111 4.66211Z" fill="#21A038"/>
<path d="M2.73556 11.9989C2.73556 11.8443 2.73928 11.6907 2.74672 11.538L0.0148781 11.4023C0.00557979 11.6002 3.3013e-06 11.8 3.3013e-06 12.0017C-0.00115902 13.5771 0.304613 15.1373 0.899786 16.5926C1.49495 18.0481 2.36781 19.37 3.46827 20.4828L5.40603 18.5199C4.55894 17.6648 3.88693 16.6485 3.42864 15.5295C2.97035 14.4104 2.73481 13.2105 2.73556 11.9989Z" fill="url(#paint0_linear_10933_158371)"/>
<path d="M11.8414 2.77245C11.9939 2.77245 12.1454 2.77811 12.296 2.78564L12.4327 0.0160966C12.2369 0.00667317 12.0397 0.00196203 11.8414 0.00196203C10.2861 3.98753e-05 8.74586 0.30948 7.30896 0.912513C5.87205 1.51555 4.56684 2.4003 3.46826 3.51596L5.40603 5.4798C6.24974 4.62103 7.25264 3.93973 8.35705 3.47511C9.46147 3.01049 10.6456 2.77169 11.8414 2.77245Z" fill="url(#paint1_linear_10933_158371)"/>
<path d="M11.8415 21.2279C11.6891 21.2279 11.5375 21.2279 11.386 21.2156L11.2493 23.9842C11.4458 23.9943 11.6432 23.9993 11.8415 23.9993C13.3962 24.0009 14.9357 23.6913 16.3718 23.0881C17.808 22.4849 19.1123 21.6 20.2101 20.4844L18.276 18.5215C17.4322 19.3798 16.4294 20.0607 15.3252 20.5252C14.221 20.9896 13.0371 21.2285 11.8415 21.2279Z" fill="url(#paint2_linear_10933_158371)"/>
<path d="M16.9743 4.38191L19.2766 2.66214C17.1723 0.935255 14.5456 -0.00479364 11.8379 1.83827e-05V2.77145C13.6714 2.76914 15.4624 3.3307 16.9743 4.38191Z" fill="url(#paint3_linear_10933_158371)"/>
<path d="M23.682 12C23.6835 11.2791 23.6213 10.5594 23.496 9.84961L20.9474 11.7531C20.9474 11.8352 20.9474 11.9171 20.9474 12C20.9481 13.2894 20.6814 14.5646 20.1647 15.7428C19.6479 16.921 18.8926 17.9761 17.9478 18.8395L19.7861 20.8986C21.0144 19.7748 21.996 18.4019 22.6671 16.869C23.3384 15.336 23.6841 13.6771 23.682 12Z" fill="#21A038"/>
<path d="M11.8414 21.2275C10.5691 21.2279 9.31078 20.9576 8.14803 20.4339C6.98534 19.9102 5.94411 19.1449 5.09178 18.1875L3.06104 20.0496C4.16982 21.2946 5.52444 22.2896 7.03706 22.97C8.54968 23.6503 10.1865 24.0009 11.8414 23.9989V21.2275Z" fill="url(#paint4_linear_10933_158371)"/>
<path d="M5.7352 5.16058L3.89785 3.10156C2.66915 4.22519 1.68721 5.59801 1.01571 7.13098C0.344218 8.66395 -0.00183072 10.3228 7.2835e-06 12.0001H2.73557C2.735 10.7108 3.00174 9.43561 3.51847 8.25738C4.03521 7.07919 4.79043 6.02412 5.7352 5.16058Z" fill="url(#paint5_linear_10933_158371)"/>
<defs>
<linearGradient id="paint0_linear_10933_158371" x1="4.02152" y1="20.1369" x2="0.960927" y2="11.4069" gradientUnits="userSpaceOnUse">
<stop offset="0.14" stop-color="#F1E813"/>
<stop offset="0.3" stop-color="#E6E418"/>
<stop offset="0.58" stop-color="#C9DA26"/>
<stop offset="0.89" stop-color="#A2CC39"/>
</linearGradient>
<linearGradient id="paint1_linear_10933_158371" x1="4.24931" y1="4.00598" x2="11.9732" y2="1.1016" gradientUnits="userSpaceOnUse">
<stop offset="0.06" stop-color="#0FA7DF"/>
<stop offset="0.54" stop-color="#0098F8"/>
<stop offset="0.92" stop-color="#0290EA"/>
</linearGradient>
<linearGradient id="paint2_linear_10933_158371" x1="11.0689" y1="22.3266" x2="19.7851" y2="20.3837" gradientUnits="userSpaceOnUse">
<stop offset="0.12" stop-color="#A2CC39"/>
<stop offset="0.28" stop-color="#86C239"/>
<stop offset="0.87" stop-color="#219F38"/>
</linearGradient>
<linearGradient id="paint3_linear_10933_158371" x1="11.2689" y1="0.928226" x2="18.7283" y2="3.19962" gradientUnits="userSpaceOnUse">
<stop offset="0.06" stop-color="#0290EA"/>
<stop offset="0.79" stop-color="#0C89CA"/>
</linearGradient>
<linearGradient id="paint4_linear_10933_158371" x1="3.74725" y1="19.7122" x2="11.8742" y2="22.7092" gradientUnits="userSpaceOnUse">
<stop offset="0.13" stop-color="#F1E813"/>
<stop offset="0.3" stop-color="#EAE616"/>
<stop offset="0.53" stop-color="#D8DF1F"/>
<stop offset="0.8" stop-color="#BAD52D"/>
<stop offset="0.98" stop-color="#A2CC39"/>
</linearGradient>
<linearGradient id="paint5_linear_10933_158371" x1="1.0191" y1="12.3356" x2="4.34722" y2="3.79289" gradientUnits="userSpaceOnUse">
<stop offset="0.07" stop-color="#A2CC39"/>
<stop offset="0.26" stop-color="#81C45E"/>
<stop offset="0.92" stop-color="#0FA7DF"/>
</linearGradient>
</defs>
</svg>
