<svg width="24" height="24" viewBox="0 0 24 24" fill="none" xmlns="http://www.w3.org/2000/svg">
<path d="M11.8611 24C5.98251 24 1.19995 19.2203 1.19995 13.3447C1.19995 9.9663 2.74956 6.8613 5.45047 4.82617L5.56385 4.74185V0H11.6809V2.68637C11.739 2.68637 11.8001 2.68346 11.8582 2.68346C17.7369 2.68346 22.5165 7.46604 22.5165 13.3447C22.5194 19.2203 17.7369 24 11.8611 24Z" fill="#19502E"/>
<path d="M10.3668 3.20138L10.6604 2.91356V0.689453H10.9948V3.98345L8.77647 6.16395V0.689453H9.11079V4.43119L9.40443 4.14336V0.689453H9.73881V3.81483L10.0324 3.52991V0.689453H10.3668V3.20138ZM8.13975 4.43119L7.84611 4.14337V0.689459H7.50891V3.81484L7.21815 3.52702V0.689459H6.88089V3.2014L6.58725 2.91357V0.689459H6.25293V3.98347L8.47413 6.16395V0.689459H8.13975V4.43119ZM8.77647 7.99269L10.9948 5.80926V4.41374L8.77647 6.58551V7.99269ZM8.77647 13.5166L10.9948 11.3361V9.85335L8.77647 12.0251V13.5166ZM10.9948 7.63797L8.77647 9.81849V8.41131L10.9948 6.24243V7.63797ZM10.9948 9.46671L8.77647 11.6472V10.24L10.9948 8.07117V9.46671ZM6.25293 11.3361L8.47413 13.5166V12.0251L6.25293 9.85335V11.3361ZM6.25293 5.81216L8.47413 7.99269V6.58551L6.25293 4.41374V5.81216ZM8.47413 9.81849L6.25293 7.63797V6.24243L8.47413 8.41131V9.81849ZM6.25293 9.46671L8.47413 11.6472V10.24L6.25293 8.06823V9.46671ZM14.3178 10.618H19.4812C19.6325 10.618 19.7604 10.7459 19.7574 10.9029V11.0773C19.7574 11.2343 19.6325 11.3623 19.4784 11.3623H18.6846V11.6065H19.08V11.9495H18.6846V12.3042H19.08V12.9584H18.6846V12.6618H18.0974V12.9584H17.702V12.3042H18.0974V11.9495H17.702V11.6065H18.0974V11.3623H14.0823C14.1957 11.5396 14.2626 11.7489 14.2626 11.9757C14.2626 12.6182 13.7392 13.1386 13.0968 13.1386C12.4542 13.1386 11.9338 12.6182 11.9338 11.9757C11.9338 11.7228 12.0152 11.4902 12.1519 11.3012C12.0501 11.2343 11.9832 11.121 11.9832 10.9901C11.9832 10.8593 12.0501 10.7459 12.1519 10.679C12.0152 10.4871 11.9338 10.2574 11.9338 10.0045C11.9338 9.36201 12.4542 8.84163 13.0968 8.84163C13.7392 8.84163 14.2626 9.36201 14.2626 10.0045C14.2626 10.2313 14.1957 10.4406 14.0823 10.618H14.3178ZM13.0968 12.5717C13.4282 12.5717 13.6986 12.3042 13.6986 11.9728C13.6986 11.7286 13.4166 11.1471 13.4166 11.1471V10.8302C13.4166 10.8302 13.6986 10.2459 13.6986 10.0016C13.6986 9.67017 13.4282 9.39981 13.0968 9.39981C12.7682 9.39981 12.4978 9.67017 12.4978 10.0016C12.4978 10.1237 12.5327 10.2371 12.5967 10.3302L12.7653 10.615C12.6606 10.7081 12.5967 10.8419 12.5967 10.9901C12.5967 11.1384 12.6606 11.2721 12.7653 11.3623L12.5967 11.6443C12.5327 11.7373 12.4978 11.8507 12.4978 11.9728C12.4978 12.3042 12.7682 12.5717 13.0968 12.5717Z" fill="#FFCB05"/>
<path d="M11.8613 3.37305C11.7014 3.37305 11.5415 3.37596 11.3845 3.38467V4.06499C11.5415 4.05627 11.7014 4.05336 11.8613 4.05336C16.9927 4.05336 21.1531 8.21376 21.1531 13.3481C21.1531 18.4766 16.9927 22.637 11.8613 22.637C6.72695 22.6341 2.56657 18.4737 2.56657 13.3452C2.56657 10.496 3.8487 7.94628 5.86639 6.24258V5.37619C3.4504 7.19616 1.88916 10.0861 1.88916 13.3452C1.88916 18.8488 6.35483 23.3115 11.8613 23.3115C17.3678 23.3115 21.8335 18.8488 21.8335 13.3452C21.8305 7.8387 17.3678 3.37305 11.8613 3.37305ZM4.23538 11.3624V9.91164C4.23538 9.91164 4.47088 10.714 5.36052 11.6095C5.64776 11.8967 5.97878 12.2179 6.39257 12.6194L6.39269 12.6195L6.39305 12.6199L6.39359 12.6203V12.6204L6.39407 12.6209C6.65423 12.8732 6.94709 13.1574 7.28225 13.4847C7.31345 13.5152 7.34717 13.547 7.38275 13.5806L7.38281 13.5807C7.77131 13.9475 8.38121 14.5235 8.38121 15.8339V17.4358C8.23589 17.0782 8.12537 16.8718 7.48289 16.2438C7.46831 16.2292 6.94469 15.7143 6.39935 15.1781C5.85439 14.6422 5.28781 14.0851 5.18608 13.9848C4.84011 13.6388 4.23538 12.7492 4.23538 11.3624ZM6.39257 16.2012L6.39299 16.2016C6.65339 16.4543 6.94661 16.7387 7.28225 17.0666C7.31255 17.0959 7.34525 17.1266 7.37963 17.1589L7.37969 17.1589C7.76801 17.5234 8.38145 18.0991 8.38415 19.4157V21.1136L8.37335 21.0871C8.23295 20.741 8.11235 20.4438 7.48577 19.8314C7.45961 19.8023 5.3896 17.7788 5.18608 17.5811C4.86628 17.2177 4.23538 16.3339 4.23538 14.95V13.697C4.23538 13.697 4.47088 14.2988 5.36052 15.1913C5.64775 15.4786 5.97877 15.7997 6.39257 16.2012ZM19.3535 17.8981C19.2169 18.1219 19.0686 18.3371 18.9145 18.5493V16.5578H19.3535V17.8981ZM20.1937 16.0723C20.2577 15.8804 20.3129 15.6856 20.3623 15.4879H18.9145V15.8455H19.1354C19.5192 15.8368 19.9495 15.8309 20.1937 16.0723ZM10.1663 15.4414H10.5589V19.4128H10.1663V15.4414ZM9.26507 14.6738H10.5589C10.8932 14.6738 11.1257 14.7436 11.2653 14.8744C11.402 15.0023 11.463 15.2378 11.463 15.5722V19.2848C11.463 19.6221 11.399 19.8547 11.2653 19.9855C11.0589 20.189 10.681 20.189 10.367 20.189C10.2972 20.1832 10.2303 20.1832 10.1693 20.1832V21.9421C10.2033 21.9482 10.2371 21.9544 10.2709 21.9607C10.367 21.9784 10.4628 21.9961 10.5617 22.009V20.5641C11.1577 20.5641 11.5502 20.3606 11.7334 19.9535V22.105H11.8613C11.9427 22.105 12.0271 22.105 12.1084 22.102V15.6419C12.1084 15.2989 12.1782 15.0605 12.3061 14.9239C12.437 14.7872 12.6695 14.7203 13.001 14.7203C13.0466 14.7203 13.0949 14.7194 13.1452 14.7185H13.1452C13.4667 14.7125 13.8638 14.7051 14.0825 14.9239C14.2133 15.0605 14.2744 15.3018 14.2744 15.6419V17.5463H13.3847V15.514H13.001V22.0381C13.1289 22.0235 13.2568 22.0032 13.3847 21.9799V17.9271H14.2744V21.7706C14.4575 21.7183 14.6378 21.6601 14.8151 21.5962V18.0783C14.8151 17.68 14.9111 17.3806 15.3152 17.2439L14.8675 14.7988H15.7658L15.917 17.4707H16.0275L16.1787 14.7988H17.1265L16.6206 17.2439C17.0451 17.3922 17.1265 17.6539 17.1265 18.0783V20.3518C17.3882 20.1541 17.6411 19.9419 17.8795 19.7152V14.7785H20.5106C20.528 14.6622 20.5455 14.5401 20.56 14.4209H14.4023L14.4895 14.8628C14.2948 14.5052 13.9255 14.3249 13.3847 14.3249H13.001C12.3497 14.3249 11.9515 14.5837 11.8003 15.1012C11.6607 14.5604 11.2479 14.2901 10.5617 14.2901H8.87549V21.5845C9.00341 21.6311 9.13421 21.6747 9.26507 21.7154V14.6738ZM17.4405 17.4823L17.016 17.0782L17.4405 14.8861V17.4823ZM16.1699 20.9769C16.0363 21.0525 15.9025 21.1223 15.7658 21.1921V17.9678H16.1699V20.9769Z" fill="white"/>
</svg>
