<svg viewBox="0 0 619 356" fill="none" xmlns="http://www.w3.org/2000/svg">
<path d="M520.95 0L0 0L0 356L520.95 356C578.356 356 607.059 356 616.425 337.828C625.792 319.656 609.028 296.492 575.501 250.163L551.519 217.022C537.888 198.187 531.073 188.769 531.073 178C531.073 167.23 537.888 157.813 551.519 138.978L575.501 105.837C609.028 59.5084 625.791 36.3439 616.425 18.172C607.059 0 578.356 0 520.95 0Z" fill="#F0F0F0"/>
<path d="M254.928 239.539C254.755 240.184 254.395 240.763 253.893 241.203C253.391 241.643 252.77 241.924 252.108 242.012C251.446 242.099 250.773 241.988 250.175 241.692C249.576 241.397 249.078 240.931 248.745 240.353C248.411 239.775 248.256 239.111 248.3 238.445C248.343 237.779 248.584 237.14 248.99 236.611C249.396 236.081 249.951 235.684 250.583 235.47C251.215 235.255 251.896 235.233 252.541 235.405C253.406 235.637 254.143 236.203 254.59 236.978C255.038 237.753 255.159 238.674 254.928 239.539ZM237.64 212.778C238.285 212.95 238.966 212.928 239.598 212.714C240.23 212.499 240.785 212.102 241.191 211.572C241.597 211.043 241.837 210.404 241.881 209.738C241.925 209.072 241.77 208.408 241.436 207.83C241.102 207.252 240.605 206.786 240.006 206.491C239.407 206.195 238.735 206.084 238.073 206.172C237.411 206.259 236.79 206.54 236.288 206.98C235.786 207.42 235.426 207.999 235.253 208.644C235.022 209.509 235.143 210.43 235.59 211.205C236.038 211.98 236.775 212.546 237.64 212.778ZM276.994 209.346L265.347 252.813C265.038 253.966 264.284 254.949 263.25 255.545C262.217 256.142 260.988 256.304 259.836 255.995L216.369 244.348C215.216 244.039 214.233 243.285 213.637 242.251C213.04 241.218 212.878 239.99 213.187 238.837L224.834 195.37C225.143 194.217 225.897 193.234 226.931 192.638C227.964 192.041 229.192 191.879 230.345 192.188L273.812 203.835C274.965 204.144 275.948 204.898 276.544 205.932C277.141 206.965 277.303 208.194 276.994 209.346ZM230.907 207.479C230.504 208.984 230.556 210.574 231.056 212.049C231.557 213.524 232.484 214.817 233.719 215.765C234.955 216.713 236.444 217.274 237.998 217.376C239.552 217.478 241.102 217.116 242.451 216.338C243.8 215.559 244.887 214.398 245.576 213.001C246.265 211.604 246.524 210.034 246.321 208.49C246.118 206.946 245.461 205.496 244.434 204.325C243.407 203.154 242.056 202.314 240.552 201.911C238.534 201.37 236.385 201.653 234.576 202.698C232.767 203.742 231.447 205.462 230.907 207.479ZM259.274 240.704C259.677 239.199 259.625 237.609 259.125 236.134C258.624 234.659 257.697 233.366 256.462 232.418C255.226 231.47 253.737 230.909 252.183 230.807C250.628 230.705 249.079 231.067 247.73 231.845C246.381 232.624 245.294 233.785 244.605 235.182C243.916 236.579 243.657 238.149 243.86 239.693C244.063 241.238 244.72 242.687 245.747 243.858C246.774 245.029 248.125 245.869 249.629 246.272C251.647 246.813 253.796 246.53 255.605 245.485C257.414 244.441 258.734 242.721 259.274 240.704ZM266.33 211.829C266.182 211.573 265.985 211.348 265.751 211.168C265.516 210.988 265.249 210.856 264.963 210.78C264.677 210.703 264.379 210.684 264.086 210.722C263.793 210.761 263.511 210.857 263.255 211.005L224.675 233.279C224.158 233.577 223.781 234.069 223.626 234.646C223.472 235.223 223.553 235.837 223.851 236.354C224.15 236.871 224.641 237.248 225.218 237.403C225.795 237.558 226.409 237.477 226.926 237.178L265.506 214.904C265.762 214.757 265.986 214.56 266.167 214.325C266.347 214.091 266.479 213.823 266.555 213.537C266.632 213.252 266.651 212.954 266.613 212.661C266.574 212.368 266.478 212.085 266.33 211.829Z" fill="white"/>
<path d="M388.552 175.844C383.542 178.736 379.502 183.05 376.943 188.238C374.385 193.427 373.422 199.257 374.177 204.993C374.932 210.728 377.371 216.111 381.186 220.461C385 224.81 390.019 227.931 395.606 229.428C401.194 230.926 407.101 230.732 412.579 228.873C418.057 227.013 422.861 223.571 426.383 218.981C429.904 214.392 431.986 208.861 432.364 203.088C432.743 197.315 431.401 191.56 428.508 186.55C424.624 179.838 418.235 174.941 410.744 172.934C403.253 170.927 395.272 171.973 388.552 175.844ZM412.177 216.763C411.599 217.097 410.935 217.252 410.269 217.208C409.603 217.165 408.964 216.925 408.435 216.518C407.905 216.112 407.508 215.558 407.294 214.925C407.079 214.293 407.057 213.612 407.229 212.967C407.402 212.322 407.762 211.743 408.264 211.303C408.766 210.863 409.387 210.582 410.049 210.494C410.711 210.407 411.384 210.518 411.982 210.814C412.581 211.109 413.079 211.575 413.412 212.153C413.86 212.928 413.981 213.85 413.749 214.714C413.518 215.579 412.952 216.316 412.177 216.763ZM407.274 203.772L407.376 203.947C407.674 204.464 407.755 205.078 407.6 205.654C407.446 206.231 407.069 206.722 406.552 207.021C406.035 207.319 405.421 207.4 404.845 207.245C404.268 207.091 403.777 206.714 403.478 206.197L402.353 204.249C402.055 203.732 401.974 203.118 402.129 202.541C402.283 201.965 402.66 201.473 403.177 201.175C406.399 199.315 407.757 195.608 406.21 192.929C404.663 190.249 400.774 189.572 397.552 191.432C394.33 193.293 392.972 196.999 394.519 199.679L395.081 200.653C395.38 201.17 395.461 201.784 395.306 202.36C395.152 202.937 394.775 203.428 394.258 203.726C393.741 204.025 393.127 204.106 392.55 203.951C391.974 203.797 391.483 203.42 391.184 202.903L390.622 201.929C387.83 197.094 389.929 190.637 395.302 187.535C400.675 184.433 407.316 185.844 410.107 190.679C412.551 194.912 411.246 200.391 407.274 203.772Z" fill="white"/>
<path d="M155.836 275.185L112.369 286.831C111.216 287.14 110.233 287.894 109.637 288.928C109.04 289.962 108.878 291.19 109.187 292.343L120.834 335.809C121.143 336.962 121.897 337.945 122.931 338.542C123.964 339.139 125.193 339.3 126.345 338.991L169.812 327.345C170.965 327.036 171.948 326.281 172.544 325.248C173.141 324.214 173.303 322.986 172.994 321.833L161.347 278.367C161.038 277.214 160.284 276.231 159.25 275.634C158.217 275.037 156.989 274.876 155.836 275.185ZM150.637 290.554L144.562 292.182L142.235 320.758L146.758 319.546C147.334 319.391 147.949 319.472 148.465 319.77C148.982 320.069 149.359 320.56 149.514 321.137C149.668 321.713 149.587 322.327 149.289 322.844C148.99 323.361 148.499 323.738 147.923 323.892L132.709 327.969C132.133 328.123 131.519 328.042 131.002 327.744C130.485 327.446 130.108 326.954 129.954 326.378C129.799 325.801 129.88 325.187 130.178 324.67C130.477 324.154 130.968 323.776 131.545 323.622L137.619 321.994L139.946 293.418L135.423 294.63C134.847 294.785 134.233 294.704 133.716 294.406C133.199 294.107 132.822 293.616 132.668 293.039C132.513 292.463 132.594 291.849 132.892 291.332C133.191 290.815 133.682 290.438 134.258 290.284L149.472 286.207C150.048 286.053 150.662 286.134 151.179 286.432C151.696 286.73 152.073 287.222 152.228 287.798C152.382 288.375 152.301 288.989 152.003 289.506C151.704 290.022 151.213 290.399 150.637 290.554Z" fill="white"/>
<path d="M89.3665 178.176C88.9467 178.205 88.5435 178.352 88.2029 178.599C87.8622 178.847 87.5977 179.184 87.4394 179.574L78.0659 202.624L67.0443 208.987C66.0108 209.584 65.2566 210.567 64.9477 211.72C64.6388 212.872 64.8005 214.101 65.3972 215.134L74.3972 230.723C74.994 231.756 75.9769 232.511 77.1297 232.819C78.2825 233.128 79.5108 232.967 80.5443 232.37L91.5659 226.007L116.214 229.414C116.631 229.471 117.056 229.411 117.44 229.239C117.825 229.067 118.153 228.791 118.388 228.441C118.623 228.092 118.756 227.684 118.77 227.263C118.785 226.842 118.681 226.426 118.471 226.061L91.4713 179.296C91.2606 178.931 90.9515 178.632 90.5794 178.434C90.2073 178.236 89.787 178.147 89.3665 178.176ZM112.274 224.326L91.4193 221.444C90.9237 221.374 90.4188 221.472 89.9857 221.723L78.2943 228.473L69.2943 212.884L80.9857 206.134C81.4196 205.885 81.7571 205.497 81.944 205.032L89.8748 185.531L112.274 224.326ZM111.339 191.208L118.089 202.899C118.387 203.416 118.468 204.03 118.314 204.607C118.159 205.183 117.782 205.674 117.265 205.973C116.749 206.271 116.135 206.352 115.558 206.198C114.982 206.043 114.49 205.666 114.192 205.149L107.442 193.458C107.144 192.941 107.063 192.327 107.217 191.75C107.372 191.174 107.749 190.683 108.265 190.384C108.782 190.086 109.396 190.005 109.973 190.16C110.549 190.314 111.041 190.691 111.339 191.208Z" fill="white"/>
<path d="M361.856 295.742C363.182 302.857 361.825 310.212 358.047 316.386C354.269 322.56 348.338 327.116 341.399 329.174C334.46 331.232 327.004 330.647 320.471 327.531C313.938 324.416 308.79 318.99 306.021 312.303C303.253 305.615 303.06 298.139 305.48 291.317C307.899 284.495 312.76 278.812 319.124 275.363C325.487 271.914 332.903 270.945 339.939 272.643C346.976 274.34 353.134 278.584 357.225 284.554L365.035 280.043C365.552 279.745 366.166 279.664 366.743 279.818C367.32 279.973 367.812 280.35 368.11 280.867C368.409 281.384 368.489 281.999 368.335 282.576C368.18 283.152 367.803 283.644 367.286 283.942L345.908 296.287L332.919 303.787L324.669 308.55C326.053 310.113 327.845 311.26 329.843 311.863C331.842 312.466 333.97 312.501 335.987 311.964C338.005 311.426 339.833 310.338 341.267 308.821C342.702 307.304 343.685 305.417 344.109 303.373C344.231 302.788 344.58 302.275 345.08 301.947C345.58 301.62 346.19 301.505 346.775 301.627C347.36 301.749 347.873 302.098 348.2 302.598C348.527 303.098 348.643 303.708 348.521 304.293C347.872 307.417 346.288 310.271 343.981 312.475C341.674 314.68 338.752 316.132 335.601 316.638C332.45 317.145 329.22 316.683 326.338 315.313C323.456 313.942 321.058 311.729 319.462 308.966C317.48 305.518 316.875 301.448 317.77 297.573C318.665 293.698 320.993 290.304 324.286 288.075C327.579 285.845 331.594 284.943 335.524 285.551C339.454 286.159 343.009 288.232 345.475 291.352L353.307 286.821C349.786 281.847 344.55 278.349 338.607 277C332.664 275.651 326.432 276.545 321.108 279.511C315.783 282.476 311.743 287.305 309.761 293.068C307.78 298.831 307.998 305.124 310.373 310.736C312.749 316.349 317.114 320.886 322.631 323.476C328.147 326.066 334.426 326.527 340.262 324.769C346.098 323.012 351.078 319.161 354.247 313.955C357.416 308.749 358.55 302.556 357.431 296.565C357.322 295.978 357.45 295.372 357.788 294.88C358.126 294.388 358.645 294.05 359.232 293.941C359.819 293.832 360.425 293.96 360.917 294.298C361.409 294.635 361.747 295.155 361.856 295.742Z" fill="white"/>
</svg>
