<svg viewBox="0 0 16 16" xmlns="http://www.w3.org/2000/svg">
<path d="M12.8535 7.35366C12.8071 7.40014 12.752 7.43702 12.6913 7.46218C12.6306 7.48735 12.5655 7.5003 12.4998 7.5003C12.4341 7.5003 12.369 7.48735 12.3083 7.46218C12.2476 7.43702 12.1925 7.40014 12.146 7.35366L8.49979 3.70678V13.4999C8.49979 13.6325 8.44711 13.7597 8.35334 13.8535C8.25958 13.9472 8.1324 13.9999 7.99979 13.9999C7.86718 13.9999 7.74 13.9472 7.64624 13.8535C7.55247 13.7597 7.49979 13.6325 7.49979 13.4999V3.70678L3.85354 7.35366C3.75972 7.44748 3.63247 7.50018 3.49979 7.50018C3.36711 7.50018 3.23986 7.44748 3.14604 7.35366C3.05222 7.25984 2.99951 7.13259 2.99951 6.99991C2.99951 6.86722 3.05222 6.73997 3.14604 6.64615L7.64604 2.14615C7.69248 2.09967 7.74762 2.06279 7.80832 2.03763C7.86902 2.01246 7.93408 1.99951 7.99979 1.99951C8.0655 1.99951 8.13056 2.01246 8.19126 2.03763C8.25196 2.06279 8.3071 2.09967 8.35354 2.14615L12.8535 6.64615C12.9 6.69259 12.9369 6.74774 12.9621 6.80843C12.9872 6.86913 13.0002 6.9342 13.0002 6.99991C13.0002 7.06561 12.9872 7.13068 12.9621 7.19138C12.9369 7.25207 12.9 7.30722 12.8535 7.35366Z"/>
</svg>
