<svg viewBox="0 0 24 24" xmlns="http://www.w3.org/2000/svg">
<path d="M20.9996 12C20.9996 12.1989 20.9206 12.3897 20.7799 12.5303C20.6393 12.671 20.4485 12.75 20.2496 12.75H5.55993L11.0302 18.2194C11.0999 18.2891 11.1552 18.3718 11.1929 18.4628C11.2306 18.5539 11.25 18.6515 11.25 18.75C11.25 18.8485 11.2306 18.9461 11.1929 19.0372C11.1552 19.1282 11.0999 19.2109 11.0302 19.2806C10.9606 19.3503 10.8778 19.4056 10.7868 19.4433C10.6957 19.481 10.5982 19.5004 10.4996 19.5004C10.4011 19.5004 10.3035 19.481 10.2124 19.4433C10.1214 19.4056 10.0387 19.3503 9.96899 19.2806L3.21899 12.5306C3.14926 12.461 3.09394 12.3783 3.05619 12.2872C3.01845 12.1962 2.99902 12.0986 2.99902 12C2.99902 11.9014 3.01845 11.8038 3.05619 11.7128C3.09394 11.6217 3.14926 11.539 3.21899 11.4694L9.96899 4.71938C10.1097 4.57865 10.3006 4.49958 10.4996 4.49958C10.6986 4.49958 10.8895 4.57865 11.0302 4.71938C11.171 4.86011 11.25 5.05098 11.25 5.25C11.25 5.44902 11.171 5.6399 11.0302 5.78063L5.55993 11.25H20.2496C20.4485 11.25 20.6393 11.329 20.7799 11.4697C20.9206 11.6103 20.9996 11.8011 20.9996 12Z" />
</svg>
