<svg viewBox="0 0 32 32" xmlns="http://www.w3.org/2000/svg">
  <path d="M3 12.9994H6V20.9994H4C3.73478 20.9994 3.48043 21.1047 3.29289 21.2923C3.10536 21.4798 3 21.7342 3 21.9994C3 22.2646 3.10536 22.5189 3.29289 22.7065C3.48043 22.894 3.73478 22.9994 4 22.9994H28C28.2652 22.9994 28.5196 22.894 28.7071 22.7065C28.8946 22.5189 29 22.2646 29 21.9994C29 21.7342 28.8946 21.4798 28.7071 21.2923C28.5196 21.1047 28.2652 20.9994 28 20.9994H26V12.9994H29C29.2176 12.9992 29.4292 12.928 29.6026 12.7966C29.7761 12.6653 29.902 12.481 29.9612 12.2716C30.0205 12.0622 30.0098 11.8393 29.9308 11.6365C29.8519 11.4338 29.709 11.2623 29.5238 11.1481L16.5238 3.14813C16.3662 3.05128 16.1849 3 16 3C15.8151 3 15.6338 3.05128 15.4762 3.14813L2.47625 11.1481C2.29103 11.2623 2.14811 11.4338 2.06916 11.6365C1.99021 11.8393 1.97955 12.0622 2.03878 12.2716C2.09801 12.481 2.22391 12.6653 2.39738 12.7966C2.57085 12.928 2.78242 12.9992 3 12.9994ZM8 12.9994H12V20.9994H8V12.9994ZM18 12.9994V20.9994H14V12.9994H18ZM24 20.9994H20V12.9994H24V20.9994ZM16 5.17313L25.4675 10.9994H6.5325L16 5.17313ZM31 25.9994C31 26.2646 30.8946 26.5189 30.7071 26.7065C30.5196 26.894 30.2652 26.9994 30 26.9994H2C1.73478 26.9994 1.48043 26.894 1.29289 26.7065C1.10536 26.5189 1 26.2646 1 25.9994C1 25.7342 1.10536 25.4798 1.29289 25.2923C1.48043 25.1047 1.73478 24.9994 2 24.9994H30C30.2652 24.9994 30.5196 25.1047 30.7071 25.2923C30.8946 25.4798 31 25.7342 31 25.9994Z" />
</svg>
