<svg viewBox="0 0 32 32" xmlns="http://www.w3.org/2000/svg">
<path d="M30 26.0001H28V12.0001C28 11.4696 27.7893 10.9609 27.4142 10.5859C27.0391 10.2108 26.5304 10.0001 26 10.0001H18V4.00008C18.0002 3.63791 17.9021 3.28247 17.7161 2.9717C17.5301 2.66094 17.2633 2.40651 16.944 2.23557C16.6247 2.06463 16.265 1.9836 15.9032 2.00112C15.5415 2.01865 15.1913 2.13407 14.89 2.33508L4.89 9.00008C4.61567 9.1831 4.39086 9.43112 4.23558 9.72206C4.0803 10.013 3.99937 10.3378 4 10.6676V26.0001H2C1.73478 26.0001 1.48043 26.1054 1.29289 26.293C1.10536 26.4805 1 26.7349 1 27.0001C1 27.2653 1.10536 27.5197 1.29289 27.7072C1.48043 27.8947 1.73478 28.0001 2 28.0001H30C30.2652 28.0001 30.5196 27.8947 30.7071 27.7072C30.8946 27.5197 31 27.2653 31 27.0001C31 26.7349 30.8946 26.4805 30.7071 26.293C30.5196 26.1054 30.2652 26.0001 30 26.0001ZM26 12.0001V26.0001H18V12.0001H26ZM6 10.6676L16 4.00008V26.0001H6V10.6676ZM14 14.0001V16.0001C14 16.2653 13.8946 16.5197 13.7071 16.7072C13.5196 16.8947 13.2652 17.0001 13 17.0001C12.7348 17.0001 12.4804 16.8947 12.2929 16.7072C12.1054 16.5197 12 16.2653 12 16.0001V14.0001C12 13.7349 12.1054 13.4805 12.2929 13.293C12.4804 13.1054 12.7348 13.0001 13 13.0001C13.2652 13.0001 13.5196 13.1054 13.7071 13.293C13.8946 13.4805 14 13.7349 14 14.0001ZM10 14.0001V16.0001C10 16.2653 9.89464 16.5197 9.70711 16.7072C9.51957 16.8947 9.26522 17.0001 9 17.0001C8.73478 17.0001 8.48043 16.8947 8.29289 16.7072C8.10536 16.5197 8 16.2653 8 16.0001V14.0001C8 13.7349 8.10536 13.4805 8.29289 13.293C8.48043 13.1054 8.73478 13.0001 9 13.0001C9.26522 13.0001 9.51957 13.1054 9.70711 13.293C9.89464 13.4805 10 13.7349 10 14.0001ZM10 21.0001V23.0001C10 23.2653 9.89464 23.5197 9.70711 23.7072C9.51957 23.8947 9.26522 24.0001 9 24.0001C8.73478 24.0001 8.48043 23.8947 8.29289 23.7072C8.10536 23.5197 8 23.2653 8 23.0001V21.0001C8 20.7349 8.10536 20.4805 8.29289 20.293C8.48043 20.1054 8.73478 20.0001 9 20.0001C9.26522 20.0001 9.51957 20.1054 9.70711 20.293C9.89464 20.4805 10 20.7349 10 21.0001ZM14 21.0001V23.0001C14 23.2653 13.8946 23.5197 13.7071 23.7072C13.5196 23.8947 13.2652 24.0001 13 24.0001C12.7348 24.0001 12.4804 23.8947 12.2929 23.7072C12.1054 23.5197 12 23.2653 12 23.0001V21.0001C12 20.7349 12.1054 20.4805 12.2929 20.293C12.4804 20.1054 12.7348 20.0001 13 20.0001C13.2652 20.0001 13.5196 20.1054 13.7071 20.293C13.8946 20.4805 14 20.7349 14 21.0001Z"/>
</svg>
