<svg xmlns="http://www.w3.org/2000/svg" viewBox="0 0 24 24">
  <path d="M8.25 9.75C8.25 9.55109 8.32902 9.36032 8.46967 9.21967C8.61032 9.07902 8.80109 9 9 9H15C15.1989 9 15.3897 9.07902 15.5303 9.21967C15.671 9.36032 15.75 9.55109 15.75 9.75C15.75 9.94891 15.671 10.1397 15.5303 10.2803C15.3897 10.421 15.1989 10.5 15 10.5H9C8.80109 10.5 8.61032 10.421 8.46967 10.2803C8.32902 10.1397 8.25 9.94891 8.25 9.75ZM9 13.5H15C15.1989 13.5 15.3897 13.421 15.5303 13.2803C15.671 13.1397 15.75 12.9489 15.75 12.75C15.75 12.5511 15.671 12.3603 15.5303 12.2197C15.3897 12.079 15.1989 12 15 12H9C8.80109 12 8.61032 12.079 8.46967 12.2197C8.32902 12.3603 8.25 12.5511 8.25 12.75C8.25 12.9489 8.32902 13.1397 8.46967 13.2803C8.61032 13.421 8.80109 13.5 9 13.5ZM21.75 5.25V17.25C21.75 17.6478 21.592 18.0294 21.3107 18.3107C21.0294 18.592 20.6478 18.75 20.25 18.75H14.6747L13.2834 21.0272C13.1495 21.2484 12.9607 21.4312 12.7353 21.5579C12.5099 21.6846 12.2556 21.7509 11.997 21.7503C11.7384 21.7497 11.4844 21.6823 11.2596 21.5547C11.0347 21.427 10.8467 21.2433 10.7137 21.0216L9.32531 18.75H3.75C3.35218 18.75 2.97064 18.592 2.68934 18.3107C2.40804 18.0294 2.25 17.6478 2.25 17.25V5.25C2.25 4.85218 2.40804 4.47064 2.68934 4.18934C2.97064 3.90804 3.35218 3.75 3.75 3.75H20.25C20.6478 3.75 21.0294 3.90804 21.3107 4.18934C21.592 4.47064 21.75 4.85218 21.75 5.25ZM20.25 5.25H3.75V17.25H9.32531C9.58354 17.2507 9.83727 17.3177 10.0622 17.4446C10.2871 17.5715 10.4756 17.754 10.6097 17.9747L12 20.25L13.3894 17.97C13.5241 17.75 13.713 17.5682 13.938 17.4422C14.1631 17.3161 14.4167 17.2499 14.6747 17.25H20.25V5.25Z" />
</svg>
