<svg  viewBox="0 0 33 32"  xmlns="http://www.w3.org/2000/svg">
<path d="M22.2075 12.2925C22.3005 12.3854 22.3742 12.4957 22.4246 12.6171C22.4749 12.7385 22.5008 12.8686 22.5008 13C22.5008 13.1314 22.4749 13.2615 22.4246 13.3829C22.3742 13.5043 22.3005 13.6146 22.2075 13.7075L15.2075 20.7075C15.1146 20.8005 15.0043 20.8742 14.8829 20.9246C14.7615 20.9749 14.6314 21.0008 14.5 21.0008C14.3686 21.0008 14.2385 20.9749 14.1171 20.9246C13.9957 20.8742 13.8854 20.8005 13.7925 20.7075L10.7925 17.7075C10.6049 17.5199 10.4994 17.2654 10.4994 17C10.4994 16.7346 10.6049 16.4801 10.7925 16.2925C10.9801 16.1049 11.2346 15.9994 11.5 15.9994C11.7654 15.9994 12.0199 16.1049 12.2075 16.2925L14.5 18.5863L20.7925 12.2925C20.8854 12.1995 20.9957 12.1258 21.1171 12.0754C21.2385 12.0251 21.3686 11.9992 21.5 11.9992C21.6314 11.9992 21.7615 12.0251 21.8829 12.0754C22.0043 12.1258 22.1146 12.1995 22.2075 12.2925ZM29.5 16C29.5 18.5712 28.7376 21.0846 27.3091 23.2224C25.8807 25.3603 23.8503 27.0265 21.4749 28.0104C19.0995 28.9944 16.4856 29.2518 13.9638 28.7502C11.4421 28.2486 9.1257 27.0105 7.30762 25.1924C5.48953 23.3743 4.25141 21.0579 3.7498 18.5362C3.24819 16.0144 3.50563 13.4006 4.48957 11.0251C5.47351 8.64968 7.13975 6.61935 9.27759 5.1909C11.4154 3.76244 13.9288 3 16.5 3C19.9467 3.00364 23.2512 4.37445 25.6884 6.81163C28.1256 9.24882 29.4964 12.5533 29.5 16ZM27.5 16C27.5 13.8244 26.8549 11.6977 25.6462 9.88873C24.4375 8.07979 22.7195 6.66989 20.7095 5.83733C18.6995 5.00476 16.4878 4.78692 14.354 5.21136C12.2202 5.6358 10.2602 6.68345 8.72183 8.22183C7.18345 9.7602 6.13581 11.7202 5.71137 13.854C5.28693 15.9878 5.50477 18.1995 6.33733 20.2095C7.16989 22.2195 8.57979 23.9375 10.3887 25.1462C12.1977 26.3549 14.3244 27 16.5 27C19.4164 26.9967 22.2123 25.8367 24.2745 23.7745C26.3367 21.7123 27.4967 18.9164 27.5 16Z" />
</svg>
