<svg viewBox="0 0 16 16" xmlns="http://www.w3.org/2000/svg">
<path d="M14.354 4.85375L6.35403 12.8538C6.30759 12.9002 6.25245 12.9371 6.19175 12.9623C6.13105 12.9874 6.06599 13.0004 6.00028 13.0004C5.93457 13.0004 5.86951 12.9874 5.80881 12.9623C5.74811 12.9371 5.69296 12.9002 5.64653 12.8538L2.14653 9.35375C2.05271 9.25993 2 9.13269 2 9C2 8.86732 2.05271 8.74007 2.14653 8.64625C2.24035 8.55243 2.3676 8.49972 2.50028 8.49972C2.63296 8.49972 2.76021 8.55243 2.85403 8.64625L6.00028 11.7931L13.6465 4.14625C13.7403 4.05243 13.8676 3.99973 14.0003 3.99973C14.133 3.99973 14.2602 4.05243 14.354 4.14625C14.4478 4.24007 14.5006 4.36732 14.5006 4.5C14.5006 4.63269 14.4478 4.75993 14.354 4.85375Z" />
</svg>
