<svg  viewBox="0 0 24 24" xmlns="http://www.w3.org/2000/svg">
<path d="M3.75 12.75C3.75 12.3358 4.08579 12 4.5 12C4.91421 12 5.25 12.3358 5.25 12.75V20.25C5.25 20.6642 4.91421 21 4.5 21C4.08579 21 3.75 20.6642 3.75 20.25V12.75ZM18.75 8.75002C18.75 8.33581 19.0858 8.00002 19.5 8.00002C19.9142 8.00001 20.25 8.3358 20.25 8.75002V20.25C20.25 20.6642 19.9142 21 19.5 21C19.0858 21 18.75 20.6642 18.75 20.25V8.75002ZM11.25 2.75C11.25 2.33579 11.5858 2 12 2C12.4142 2 12.75 2.33579 12.75 2.75V20.25C12.75 20.6642 12.4142 21 12 21C11.5858 21 11.25 20.6642 11.25 20.25V2.75Z"/>
</svg>
