<svg viewBox="0 0 24 24"  xmlns="http://www.w3.org/2000/svg">
<path d="M20.0306 9.53063L12.5306 17.0306C12.4609 17.1004 12.3782 17.1557 12.2871 17.1934C12.1961 17.2312 12.0985 17.2506 11.9999 17.2506C11.9014 17.2506 11.8038 17.2312 11.7127 17.1934C11.6217 17.1557 11.539 17.1004 11.4693 17.0306L3.9693 9.53063C3.82857 9.3899 3.74951 9.19903 3.74951 9.00001C3.74951 8.80098 3.82857 8.61011 3.9693 8.46938C4.11003 8.32865 4.30091 8.24959 4.49993 8.24959C4.69895 8.24959 4.88982 8.32865 5.03055 8.46938L11.9999 15.4397L18.9693 8.46938C19.039 8.3997 19.1217 8.34442 19.2128 8.30671C19.3038 8.269 19.4014 8.24959 19.4999 8.24959C19.5985 8.24959 19.6961 8.269 19.7871 8.30671C19.8781 8.34442 19.9609 8.3997 20.0306 8.46938C20.1002 8.53906 20.1555 8.62179 20.1932 8.71283C20.2309 8.80388 20.2503 8.90146 20.2503 9.00001C20.2503 9.09855 20.2309 9.19613 20.1932 9.28718C20.1555 9.37822 20.1002 9.46095 20.0306 9.53063Z" />
</svg>
