<svg xmlns="http://www.w3.org/2000/svg" viewBox="0 0 24 24">
  <path d="M21.3113 6.87821L17.1216 2.68946C16.9823 2.55014 16.8169 2.43962 16.6349 2.36421C16.4529 2.28881 16.2578 2.25 16.0608 2.25C15.8638 2.25 15.6687 2.28881 15.4867 2.36421C15.3047 2.43962 15.1393 2.55014 15 2.68946L3.4397 14.2498C3.2998 14.3886 3.18889 14.5538 3.11341 14.7358C3.03792 14.9178 2.99938 15.113 3.00001 15.3101V19.4998C3.00001 19.8976 3.15804 20.2791 3.43935 20.5604C3.72065 20.8417 4.10218 20.9998 4.50001 20.9998H20.25C20.4489 20.9998 20.6397 20.9208 20.7803 20.7801C20.921 20.6395 21 20.4487 21 20.2498C21 20.0509 20.921 19.8601 20.7803 19.7194C20.6397 19.5788 20.4489 19.4998 20.25 19.4998H10.8113L21.3113 8.99977C21.4506 8.86048 21.5611 8.69511 21.6365 8.5131C21.7119 8.33108 21.7507 8.136 21.7507 7.93899C21.7507 7.74198 21.7119 7.5469 21.6365 7.36489C21.5611 7.18288 21.4506 7.0175 21.3113 6.87821ZM12.75 7.06009L14.3147 8.62477L6.37501 16.5645L4.81032 14.9998L12.75 7.06009ZM4.50001 19.4998V16.8101L7.1897 19.4998H4.50001ZM9.00001 19.1895L7.43626 17.6248L15.375 9.68508L16.9397 11.2498L9.00001 19.1895ZM18 10.1895L13.8113 5.99977L16.0613 3.74977L20.25 7.93946L18 10.1895Z" />
</svg>
