<svg viewBox="0 0 24 24" xmlns="http://www.w3.org/2000/svg">
<path d="M13.4419 1.67329C13.3494 1.59642 13.2398 1.5429 13.1224 1.51726C13.0049 1.49161 12.883 1.49459 12.7669 1.52593C12.6508 1.55727 12.544 1.61606 12.4554 1.69734C12.3668 1.77862 12.299 1.88002 12.2578 1.99297L10.1953 7.65641L7.93031 5.46172C7.85425 5.38795 7.76341 5.33113 7.66379 5.29501C7.56417 5.25889 7.45802 5.24429 7.35235 5.25217C7.24667 5.26005 7.14387 5.29024 7.05071 5.34074C6.95755 5.39124 6.87615 5.46091 6.81188 5.54516C4.78125 8.20579 3.75 10.8823 3.75 13.4998C3.75 15.6879 4.61919 17.7863 6.16637 19.3335C7.71354 20.8807 9.81196 21.7498 12 21.7498C14.188 21.7498 16.2865 20.8807 17.8336 19.3335C19.3808 17.7863 20.25 15.6879 20.25 13.4998C20.25 7.92641 15.4884 3.37485 13.4419 1.67329ZM12 20.2498C10.2104 20.2479 8.49466 19.5361 7.22922 18.2706C5.96378 17.0052 5.25199 15.2894 5.25 13.4998C5.25 11.4373 6.00844 9.30079 7.50562 7.13985L9.97781 9.53797C10.0676 9.62517 10.1778 9.68851 10.2983 9.72222C10.4188 9.75593 10.5459 9.75895 10.6679 9.73099C10.7899 9.70303 10.9029 9.64499 10.9967 9.56215C11.0906 9.47931 11.1621 9.37431 11.205 9.25672L13.2928 3.53141C15.3947 5.44485 18.75 9.17891 18.75 13.4998C18.748 15.2894 18.0362 17.0052 16.7708 18.2706C15.5053 19.5361 13.7896 20.2479 12 20.2498Z" />
</svg>
