<svg xmlns="http://www.w3.org/2000/svg" viewBox="0 0 32 32">
  <path d="M30 23.9996H29V12.3334C29 12.0042 28.9188 11.6802 28.7635 11.39C28.6083 11.0997 28.3838 10.8523 28.11 10.6696L17.11 3.33588C16.7815 3.11687 16.3955 3 16.0006 3C15.6058 3 15.2198 3.11687 14.8912 3.33588L3.89125 10.6696C3.61722 10.8522 3.3925 11.0995 3.23702 11.3898C3.08154 11.68 3.00013 12.0041 3 12.3334V23.9996H2C1.73478 23.9996 1.48043 24.105 1.29289 24.2925C1.10536 24.4801 1 24.7344 1 24.9996C1 25.2648 1.10536 25.5192 1.29289 25.7067C1.48043 25.8943 1.73478 25.9996 2 25.9996H30C30.2652 25.9996 30.5196 25.8943 30.7071 25.7067C30.8946 25.5192 31 25.2648 31 24.9996C31 24.7344 30.8946 24.4801 30.7071 24.2925C30.5196 24.105 30.2652 23.9996 30 23.9996ZM5 12.3334L16 4.99963L27 12.3321V23.9996H24V16.9996C24 16.7344 23.8946 16.4801 23.7071 16.2925C23.5196 16.105 23.2652 15.9996 23 15.9996H9C8.73478 15.9996 8.48043 16.105 8.29289 16.2925C8.10536 16.4801 8 16.7344 8 16.9996V23.9996H5V12.3334ZM22 17.9996V19.9996H17V17.9996H22ZM15 19.9996H10V17.9996H15V19.9996ZM10 21.9996H15V23.9996H10V21.9996ZM17 21.9996H22V23.9996H17V21.9996Z" />
</svg>
