<svg viewBox="0 0 24 24"  xmlns="http://www.w3.org/2000/svg">
<path d="M20.25 6.75009H16.9613C16.9978 6.71915 17.0353 6.68915 17.0709 6.65634C17.3557 6.40338 17.5851 6.09439 17.745 5.7487C17.9049 5.40301 17.9917 5.02805 18 4.64728C18.0123 4.23072 17.9394 3.81604 17.7856 3.4287C17.6319 3.04136 17.4006 2.68953 17.106 2.39481C16.8113 2.10008 16.4596 1.86869 16.0723 1.71483C15.685 1.56097 15.2703 1.4879 14.8538 1.50009C14.4728 1.50829 14.0977 1.59504 13.7518 1.75491C13.406 1.91477 13.0968 2.14431 12.8438 2.42915C12.4936 2.83499 12.2089 3.293 12 3.78665C11.7911 3.293 11.5064 2.83499 11.1562 2.42915C10.9032 2.14431 10.594 1.91477 10.2482 1.75491C9.90232 1.59504 9.52718 1.50829 9.14625 1.50009C8.72969 1.4879 8.31503 1.56097 7.92774 1.71483C7.54044 1.86869 7.18868 2.10008 6.89405 2.39481C6.59941 2.68953 6.36812 3.04136 6.21438 3.4287C6.06064 3.81604 5.98768 4.23072 6 4.64728C6.00833 5.02805 6.09514 5.40301 6.255 5.7487C6.41486 6.09439 6.64434 6.40338 6.92906 6.65634C6.96469 6.68728 7.00219 6.71728 7.03875 6.75009H3.75C3.35218 6.75009 2.97064 6.90812 2.68934 7.18943C2.40804 7.47073 2.25 7.85226 2.25 8.25009V11.2501C2.25 11.6479 2.40804 12.0294 2.68934 12.3107C2.97064 12.5921 3.35218 12.7501 3.75 12.7501V18.7501C3.75 19.1479 3.90804 19.5294 4.18934 19.8107C4.47064 20.0921 4.85218 20.2501 5.25 20.2501H18.75C19.1478 20.2501 19.5294 20.0921 19.8107 19.8107C20.092 19.5294 20.25 19.1479 20.25 18.7501V12.7501C20.6478 12.7501 21.0294 12.5921 21.3107 12.3107C21.592 12.0294 21.75 11.6479 21.75 11.2501V8.25009C21.75 7.85226 21.592 7.47073 21.3107 7.18943C21.0294 6.90812 20.6478 6.75009 20.25 6.75009ZM13.9688 3.4229C14.0875 3.29176 14.2321 3.18659 14.3934 3.11399C14.5547 3.04139 14.7293 3.00293 14.9062 3.00103H14.9522C15.1595 3.00232 15.3645 3.04499 15.5552 3.12653C15.7458 3.20807 15.9183 3.32684 16.0624 3.47588C16.2066 3.62493 16.3195 3.80124 16.3947 3.9945C16.4698 4.18776 16.5056 4.39407 16.5 4.60134C16.4981 4.77824 16.4596 4.95284 16.387 5.11417C16.3144 5.27551 16.2093 5.42009 16.0781 5.53884C15.1884 6.32634 13.7119 6.60384 12.7969 6.70134C12.9094 5.70853 13.2188 4.26571 13.9688 3.4229ZM7.96031 3.45665C8.25088 3.16611 8.64441 3.00203 9.05531 3.00009H9.10125C9.27815 3.002 9.45275 3.04046 9.61409 3.11306C9.77542 3.18566 9.92 3.29083 10.0388 3.42196C10.8253 4.31071 11.1028 5.78446 11.2003 6.69571C10.2891 6.60196 8.81531 6.32071 7.92656 5.53415C7.79543 5.4154 7.69026 5.27082 7.61766 5.10949C7.54506 4.94815 7.5066 4.77355 7.50469 4.59665C7.49887 4.38593 7.53593 4.17623 7.61361 3.98027C7.69128 3.7843 7.80796 3.60616 7.95656 3.45665H7.96031ZM3.75 8.25009H11.25V11.2501H3.75V8.25009ZM5.25 12.7501H11.25V18.7501H5.25V12.7501ZM18.75 18.7501H12.75V12.7501H18.75V18.7501ZM20.25 11.2501H12.75V8.25009H20.25V11.2501Z" />
</svg>
