<svg viewBox="0 0 24 24"  xmlns="http://www.w3.org/2000/svg">
<path d="M11.2275 20.4319C11.187 20.5941 11.0933 20.7382 10.9615 20.8411C10.8297 20.944 10.6673 21 10.5 21C10.4368 21.0003 10.3738 20.9927 10.3125 20.9775L7.31251 20.2275C7.22899 20.2065 7.14971 20.1713 7.07814 20.1234L4.82814 18.6234C4.66267 18.513 4.54783 18.3414 4.50889 18.1463C4.46994 17.9513 4.51009 17.7487 4.62048 17.5833C4.73088 17.4178 4.90249 17.303 5.09755 17.264C5.29262 17.2251 5.49517 17.2652 5.66064 17.3756L7.80189 18.8034L10.6763 19.5225C10.7723 19.5458 10.8628 19.5878 10.9425 19.6462C11.0223 19.7045 11.0897 19.7781 11.1409 19.8626C11.1921 19.9471 11.2262 20.0409 11.241 20.1386C11.2559 20.2363 11.2513 20.3359 11.2275 20.4319ZM23.6672 11.3887C23.6057 11.5757 23.5077 11.7485 23.379 11.8974C23.2502 12.0462 23.0933 12.1681 22.9172 12.2559L20.6972 13.3659L15.5335 18.5306C15.4418 18.6222 15.328 18.6884 15.2031 18.7229C15.0783 18.7574 14.9466 18.759 14.8209 18.7275L8.82095 17.2275C8.72971 17.2046 8.64354 17.1648 8.56689 17.1103L3.36189 13.394L1.08564 12.2559C0.72989 12.0781 0.459333 11.7662 0.333457 11.389C0.207581 11.0117 0.236691 10.5999 0.414388 10.244L2.74408 5.58561C2.92191 5.22986 3.23375 4.9593 3.61103 4.83343C3.98831 4.70755 4.40013 4.73666 4.75595 4.91436L6.82408 5.94561L11.7928 4.52623C11.9276 4.48768 12.0705 4.48768 12.2053 4.52623L17.1741 5.94561L19.2422 4.91436C19.598 4.73666 20.0098 4.70755 20.3871 4.83343C20.7644 4.9593 21.0762 5.22986 21.2541 5.58561L23.5838 10.244C23.6726 10.4199 23.7257 10.6116 23.7401 10.808C23.7544 11.0045 23.7296 11.2019 23.6672 11.3887ZM19.3378 12.6019L16.7869 7.49998H13.8038L9.75001 11.4375C10.9369 12.1959 12.7978 12.405 14.4675 10.7222C14.5979 10.5907 14.7723 10.5122 14.9572 10.5016C15.142 10.4911 15.3242 10.5492 15.4688 10.665L18.6947 13.2497L19.3378 12.6019ZM1.75595 10.9144L3.41439 11.744L5.74408 7.08561L4.08564 6.25592L1.75595 10.9144ZM17.625 14.3119L15.0272 12.2315C13.1953 13.7315 10.8694 13.9294 8.94189 12.7003C8.75229 12.5797 8.5922 12.418 8.47347 12.2272C8.35473 12.0365 8.28038 11.8214 8.2559 11.5981C8.23142 11.3747 8.25744 11.1487 8.33204 10.9367C8.40664 10.7247 8.52791 10.5322 8.68689 10.3734C8.68915 10.3707 8.69166 10.3682 8.69439 10.3659L12.9 6.28686L12 6.02998L7.27314 7.38092L4.7072 12.5119L9.3197 15.8072L14.7703 17.1694L17.625 14.3119ZM22.2413 10.9144L19.9144 6.25592L18.256 7.08561L20.5856 11.744L22.2413 10.9144Z" />
</svg>
