<svg  viewBox="0 0 24 24"  xmlns="http://www.w3.org/2000/svg">
<path d="M22.5002 9.18754C22.5018 9.90177 22.3618 10.6092 22.0882 11.269C21.8147 11.9288 21.413 12.5277 20.9065 13.0313L12.5346 21.5269C12.4648 21.5978 12.3816 21.6541 12.2899 21.6925C12.1982 21.7309 12.0997 21.7507 12.0002 21.7507C11.9008 21.7507 11.8023 21.7309 11.7106 21.6925C11.6188 21.6541 11.5356 21.5978 11.4659 21.5269L3.09398 13.0313C2.07332 12.0119 1.49942 10.6287 1.49854 9.18617C1.49766 7.7436 2.06987 6.35977 3.0893 5.3391C4.10872 4.31843 5.49185 3.74453 6.93442 3.74365C8.37698 3.74277 9.76081 4.31499 10.7815 5.33441L12.0002 6.47348L13.2274 5.33066C13.9891 4.57278 14.9582 4.05754 16.0125 3.85001C17.0667 3.64247 18.1588 3.75193 19.1509 4.16458C20.143 4.57722 20.9906 5.27455 21.5867 6.16853C22.1828 7.0625 22.5007 8.11305 22.5002 9.18754Z" />
</svg>
