<svg viewBox="0 0 64 64" xmlns="http://www.w3.org/2000/svg">
<path d="M54.7075 25.9422L34.7075 7.07215C34.6977 7.06362 34.6885 7.05444 34.68 7.04465C33.9436 6.37499 32.9841 6.00391 31.9888 6.00391C30.9934 6.00391 30.0339 6.37499 29.2975 7.04465L29.27 7.07215L9.2925 25.9422C8.88499 26.3169 8.55971 26.7721 8.33723 27.279C8.11475 27.786 7.99992 28.3336 8 28.8872V51.9997C8 53.0605 8.42143 54.0779 9.17157 54.8281C9.92172 55.5782 10.9391 55.9997 12 55.9997H24C25.0609 55.9997 26.0783 55.5782 26.8284 54.8281C27.5786 54.0779 28 53.0605 28 51.9997V39.9997H36V51.9997C36 53.0605 36.4214 54.0779 37.1716 54.8281C37.9217 55.5782 38.9391 55.9997 40 55.9997H52C53.0609 55.9997 54.0783 55.5782 54.8284 54.8281C55.5786 54.0779 56 53.0605 56 51.9997V28.8872C56.0001 28.3336 55.8853 27.786 55.6628 27.279C55.4403 26.7721 55.115 26.3169 54.7075 25.9422ZM52 51.9997H40V39.9997C40 38.9388 39.5786 37.9214 38.8284 37.1712C38.0783 36.4211 37.0609 35.9997 36 35.9997H28C26.9391 35.9997 25.9217 36.4211 25.1716 37.1712C24.4214 37.9214 24 38.9388 24 39.9997V51.9997H12V28.8872L12.0275 28.8622L32 9.99965L51.975 28.8572L52.0025 28.8822L52 51.9997Z"/>
</svg>
