<svg viewBox="0 0 24 25" xmlns="http://www.w3.org/2000/svg">
<path d="M20.5153 10.2268L13.0153 3.15059C13.0116 3.14739 13.0082 3.14395 13.005 3.14028C12.7289 2.88916 12.369 2.75 11.9958 2.75C11.6225 2.75 11.2627 2.88916 10.9866 3.14028L10.9763 3.15059L3.48469 10.2268C3.33187 10.3674 3.20989 10.5381 3.12646 10.7282C3.04303 10.9183 2.99997 11.1236 3 11.3312V19.9984C3 20.3962 3.15804 20.7778 3.43934 21.0591C3.72064 21.3404 4.10218 21.4984 4.5 21.4984H19.5C19.8978 21.4984 20.2794 21.3404 20.5607 21.0591C20.842 20.7778 21 20.3962 21 19.9984V11.3312C21 11.1236 20.957 10.9183 20.8735 10.7282C20.7901 10.5381 20.6681 10.3674 20.5153 10.2268ZM19.5 19.9984H4.5V11.3312L4.51031 11.3218L12 4.24841L19.4906 11.32L19.5009 11.3293L19.5 19.9984Z"/>
</svg>
