
<svg viewBox="0 0 16 17" xmlns="http://www.w3.org/2000/svg">
<path d="M13.5 2H4.5C3.83696 2 3.20107 2.26339 2.73223 2.73223C2.26339 3.20107 2 3.83696 2 4.5V9C2 9.39782 2.15804 9.77936 2.43934 10.0607C2.72064 10.342 3.10218 10.5 3.5 10.5H6.5L6.00688 13.4169C6.00239 13.4444 6.00009 13.4722 6 13.5C6 14.0304 6.21071 14.5391 6.58579 14.9142C6.96086 15.2893 7.46957 15.5 8 15.5C8.53043 15.5 9.03914 15.2893 9.41421 14.9142C9.78929 14.5391 10 14.0304 10 13.5C9.99991 13.4722 9.99761 13.4444 9.99312 13.4169L9.5 10.5H12.5C12.8978 10.5 13.2794 10.342 13.5607 10.0607C13.842 9.77936 14 9.39782 14 9V2.5C14 2.36739 13.9473 2.24021 13.8536 2.14645C13.7598 2.05268 13.6326 2 13.5 2ZM4.5 3H11V5.5C11 5.63261 11.0527 5.75979 11.1464 5.85355C11.2402 5.94732 11.3674 6 11.5 6C11.6326 6 11.7598 5.94732 11.8536 5.85355C11.9473 5.75979 12 5.63261 12 5.5V3H13V7H3V4.5C3 4.10218 3.15804 3.72064 3.43934 3.43934C3.72064 3.15804 4.10218 3 4.5 3ZM12.5 9.5H9.5C9.35674 9.5 9.21515 9.53077 9.08482 9.59025C8.95449 9.64972 8.83846 9.73651 8.74459 9.84472C8.65071 9.95294 8.58118 10.0801 8.54071 10.2175C8.50024 10.3549 8.48976 10.4994 8.51 10.6412V10.6538L9 13.5375C9 13.8027 8.89464 14.0571 8.70711 14.2446C8.51957 14.4321 8.26522 14.5375 8 14.5375C7.73478 14.5375 7.48043 14.4321 7.29289 14.2446C7.10536 14.0571 7 13.8027 7 13.5375L7.4875 10.6538V10.6412C7.50771 10.4996 7.49729 10.3553 7.45697 10.2181C7.41664 10.0808 7.34734 9.95384 7.25373 9.84567C7.16013 9.73749 7.04441 9.65066 6.91438 9.59103C6.78436 9.53139 6.64305 9.50035 6.5 9.5H3.5C3.36739 9.5 3.24021 9.44732 3.14645 9.35355C3.05268 9.25979 3 9.13261 3 9V8H13V9C13 9.13261 12.9473 9.25979 12.8536 9.35355C12.7598 9.44732 12.6326 9.5 12.5 9.5Z"/>
</svg>
