<svg viewBox="0 0 24 24"  xmlns="http://www.w3.org/2000/svg">
<path d="M21.311 2.689C21.1224 2.5005 20.8869 2.36569 20.6289 2.29846C20.3708 2.23122 20.0995 2.234 19.8429 2.3065H19.8288L1.83445 7.7665C1.54153 7.85074 1.28123 8.02221 1.0882 8.25808C0.895167 8.49395 0.77857 8.78303 0.753933 9.08682C0.729296 9.39061 0.797788 9.6947 0.950288 9.95859C1.10279 10.2225 1.33206 10.4337 1.60757 10.564L9.63445 14.3656L13.436 22.3924C13.556 22.6495 13.7471 22.8668 13.9866 23.0188C14.2262 23.1708 14.5042 23.2511 14.7879 23.2502C14.831 23.2502 14.8741 23.2484 14.9173 23.2446C15.22 23.2201 15.508 23.1036 15.7426 22.9107C15.9772 22.7178 16.1472 22.4578 16.2298 22.1656L21.686 4.17119C21.686 4.1665 21.686 4.16181 21.686 4.15712C21.7595 3.90115 21.7634 3.63024 21.6975 3.37223C21.6316 3.11421 21.4982 2.8784 21.311 2.689ZM14.7963 21.7362L14.7916 21.7493L11.1016 13.9596L15.5304 9.52994C15.6651 9.38814 15.7391 9.19933 15.7366 9.00376C15.7341 8.80819 15.6553 8.62133 15.517 8.48303C15.3787 8.34473 15.1918 8.26592 14.9963 8.26342C14.8007 8.26092 14.6119 8.33491 14.4701 8.46962L10.0404 12.8984L2.24976 9.20837H2.26289L20.2498 3.75025L14.7963 21.7362Z" />
</svg>
