<svg viewBox="0 0 32 32" xmlns="http://www.w3.org/2000/svg">
  <path d="M25.7076 7.70521L7.70755 25.7052C7.51991 25.8929 7.26541 25.9983 7.00005 25.9983C6.73468 25.9983 6.48019 25.8929 6.29255 25.7052C6.10491 25.5176 5.99949 25.2631 5.99949 24.9977C5.99949 24.7324 6.10491 24.4779 6.29255 24.2902L24.2925 6.29021C24.48 6.10257 24.7344 5.99709 24.9996 5.99698C25.2649 5.99686 25.5193 6.10211 25.7069 6.28959C25.8946 6.47706 26 6.7314 26.0002 6.99665C26.0003 7.26189 25.895 7.51632 25.7076 7.70396V7.70521ZM6.31755 12.6802C5.47366 11.8362 4.99964 10.6915 4.99976 9.4979C4.99987 8.30435 5.47412 7.15973 6.31817 6.31584C7.16222 5.47195 8.30694 4.99793 9.50049 4.99805C10.694 4.99816 11.8387 5.47241 12.6825 6.31646C13.5264 7.16052 14.0005 8.30523 14.0003 9.49878C14.0002 10.6923 13.526 11.837 12.6819 12.6808C11.8379 13.5247 10.6932 13.9987 9.49961 13.9986C8.30606 13.9985 7.16143 13.5243 6.31755 12.6802ZM7.00005 9.50021C7.00037 9.91127 7.10205 10.3159 7.29608 10.6783C7.49011 11.0407 7.7705 11.3496 8.11243 11.5778C8.45436 11.806 8.84727 11.9463 9.25637 11.9863C9.66547 12.0264 10.0781 11.965 10.4578 11.8075C10.8375 11.65 11.1725 11.4013 11.4332 11.0835C11.6938 10.7656 11.8721 10.3884 11.9522 9.98521C12.0322 9.58203 12.0116 9.16532 11.8922 8.77199C11.7728 8.37865 11.5583 8.02083 11.2675 7.73021C10.9178 7.38054 10.4721 7.14247 9.98701 7.04613C9.5019 6.94979 8.99911 6.99951 8.54226 7.189C8.08541 7.37848 7.69502 7.69922 7.4205 8.11063C7.14598 8.52204 6.99966 9.00563 7.00005 9.50021ZM27 22.5002C26.9998 23.5413 26.6386 24.5501 25.978 25.3547C25.3173 26.1593 24.3981 26.71 23.377 26.9129C22.3559 27.1158 21.296 26.9583 20.3779 26.4674C19.4599 25.9764 18.7405 25.1823 18.3423 24.2204C17.944 23.2585 17.8917 22.1883 18.1941 21.1921C18.4965 20.1959 19.1349 19.3354 20.0007 18.7571C20.8664 18.1789 21.9058 17.9187 22.9419 18.0209C23.978 18.1231 24.9465 18.5814 25.6826 19.3177C26.1017 19.7347 26.434 20.2307 26.6601 20.777C26.8863 21.3233 27.0018 21.909 27 22.5002ZM25 22.5002C25.0002 21.9218 24.7997 21.3613 24.4329 20.9141C24.0661 20.4669 23.5555 20.1608 22.9883 20.0478C22.421 19.9349 21.8321 20.0221 21.322 20.2947C20.8118 20.5672 20.412 21.0082 20.1905 21.5426C19.9691 22.0769 19.9398 22.6715 20.1076 23.225C20.2754 23.7785 20.6299 24.2567 21.1108 24.5781C21.5916 24.8995 22.1691 25.0443 22.7447 24.9877C23.3203 24.9311 23.8585 24.6766 24.2675 24.2677C24.5004 24.0362 24.6851 23.7607 24.8108 23.4573C24.9366 23.1539 25.0009 22.8286 25 22.5002Z" />
</svg>
