<svg xmlns="http://www.w3.org/2000/svg" viewBox="0 0 32 32">
  <path d="M28.8648 26.5034C26.9611 23.2122 24.0273 20.8521 20.6036 19.7334C22.2971 18.7252 23.6129 17.189 24.3489 15.3606C25.0848 13.5323 25.2002 11.5129 24.6774 9.6126C24.1546 7.71229 23.0224 6.03614 21.4548 4.84156C19.8872 3.64697 17.9708 3 15.9999 3C14.0289 3 12.1125 3.64697 10.5449 4.84156C8.97725 6.03614 7.84509 7.71229 7.32228 9.6126C6.79946 11.5129 6.91489 13.5323 7.65083 15.3606C8.38678 17.189 9.70256 18.7252 11.3961 19.7334C7.97235 20.8509 5.0386 23.2109 3.13485 26.5034C3.06504 26.6172 3.01873 26.7439 2.99866 26.8759C2.97859 27.0079 2.98517 27.1426 3.01801 27.2721C3.05084 27.4015 3.10927 27.5231 3.18984 27.6296C3.27041 27.7361 3.3715 27.8253 3.48713 27.8921C3.60277 27.9589 3.73061 28.0019 3.86311 28.0185C3.99561 28.035 4.1301 28.0249 4.25863 27.9887C4.38716 27.9525 4.50713 27.8909 4.61146 27.8075C4.71579 27.7242 4.80238 27.6208 4.8661 27.5034C7.2211 23.4334 11.3836 21.0034 15.9999 21.0034C20.6161 21.0034 24.7786 23.4334 27.1336 27.5034C27.1973 27.6208 27.2839 27.7242 27.3882 27.8075C27.4926 27.8909 27.6125 27.9525 27.7411 27.9887C27.8696 28.0249 28.0041 28.035 28.1366 28.0185C28.2691 28.0019 28.3969 27.9589 28.5126 27.8921C28.6282 27.8253 28.7293 27.7361 28.8099 27.6296C28.8904 27.5231 28.9489 27.4015 28.9817 27.2721C29.0145 27.1426 29.0211 27.0079 29.001 26.8759C28.981 26.7439 28.9347 26.6172 28.8648 26.5034ZM8.99985 12.0034C8.99985 10.6189 9.41039 9.26555 10.1796 8.11441C10.9487 6.96327 12.042 6.06606 13.3211 5.53624C14.6001 5.00643 16.0076 4.86781 17.3655 5.1379C18.7234 5.408 19.9706 6.07469 20.9496 7.05365C21.9286 8.03262 22.5953 9.2799 22.8653 10.6378C23.1354 11.9956 22.9968 13.4031 22.467 14.6822C21.9372 15.9613 21.04 17.0545 19.8888 17.8237C18.7377 18.5929 17.3843 19.0034 15.9999 19.0034C14.1439 19.0014 12.3646 18.2633 11.0523 16.951C9.73997 15.6386 9.00184 13.8593 8.99985 12.0034Z" />
</svg>
