<svg viewBox="0 0 32 32" xmlns="http://www.w3.org/2000/svg">
<path d="M26.3474 4.90527L10.0662 2.03027C9.54387 1.93836 9.00645 2.05766 8.57209 2.36192C8.13773 2.66618 7.84199 3.1305 7.74992 3.65277L4.03117 24.7778C3.98568 25.0366 3.99164 25.3018 4.0487 25.5583C4.10576 25.8148 4.21281 26.0575 4.36372 26.2726C4.51463 26.4877 4.70645 26.671 4.92821 26.8119C5.14998 26.9529 5.39734 27.0487 5.65617 27.094L21.9374 29.969C22.1963 30.0147 22.4617 30.0089 22.7183 29.9519C22.9749 29.8949 23.2178 29.7879 23.4331 29.637C23.6483 29.4861 23.8317 29.2942 23.9727 29.0723C24.1137 28.8505 24.2096 28.603 24.2549 28.344L27.9737 7.21902C28.0648 6.69656 27.9446 6.15929 27.6397 5.7254C27.3347 5.2915 26.8699 4.9965 26.3474 4.90527ZM22.2824 27.999L5.99992 25.124L9.71867 3.99902L25.9999 6.87402L22.2824 27.999ZM11.1674 7.30152C11.2137 7.04049 11.3618 6.80853 11.5791 6.65664C11.7964 6.50475 12.0651 6.44536 12.3262 6.49152L22.7012 8.32277C22.9477 8.36597 23.1691 8.50007 23.3216 8.69859C23.4741 8.89711 23.5466 9.1456 23.5248 9.39497C23.503 9.64435 23.3884 9.87647 23.2038 10.0455C23.0191 10.2145 22.7777 10.3081 22.5274 10.3078C22.4688 10.3077 22.4102 10.3027 22.3524 10.2928L11.9774 8.46027C11.7164 8.41395 11.4844 8.26587 11.3325 8.04858C11.1806 7.8313 11.1213 7.56259 11.1674 7.30152ZM10.4749 11.2415C10.4977 11.1122 10.5458 10.9886 10.6163 10.8778C10.6869 10.767 10.7786 10.6712 10.8862 10.5958C10.9938 10.5205 11.1152 10.4671 11.2435 10.4387C11.3717 10.4103 11.5043 10.4074 11.6337 10.4303L22.0087 12.2628C22.257 12.3043 22.4805 12.438 22.6346 12.6371C22.7886 12.8362 22.8619 13.0861 22.8398 13.3368C22.8178 13.5876 22.7019 13.8208 22.5154 13.9899C22.3288 14.159 22.0854 14.2516 21.8337 14.249C21.7745 14.2491 21.7155 14.2437 21.6574 14.2328L11.2824 12.4015C11.0216 12.3546 10.79 12.2061 10.6386 11.9886C10.4872 11.7711 10.4283 11.5024 10.4749 11.2415ZM9.78117 15.1803C9.82836 14.9199 9.9768 14.6889 10.194 14.5378C10.4112 14.3867 10.6794 14.3278 10.9399 14.374L16.1249 15.2853C16.3714 15.3285 16.5927 15.4625 16.7452 15.6608C16.8977 15.8592 16.9703 16.1076 16.9486 16.3569C16.9269 16.6061 16.8126 16.8382 16.6282 17.0073C16.4438 17.1764 16.2026 17.2703 15.9524 17.2703C15.8938 17.2702 15.8352 17.2652 15.7774 17.2553L10.5899 16.339C10.3291 16.2924 10.0975 16.1442 9.94583 15.927C9.7942 15.7097 9.73498 15.4412 9.78117 15.1803Z"/>
</svg>
