<svg viewBox="0 0 24 24" xmlns="http://www.w3.org/2000/svg">
<path d="M16.4992 14.9991C15.9989 14.9989 15.5037 15.0992 15.0428 15.2939C14.5819 15.4885 14.1648 15.7737 13.8161 16.1325L9.49425 13.3547C9.83421 12.4829 9.83421 11.5153 9.49425 10.6435L13.8161 7.86566C14.4653 8.53065 15.3383 8.9309 16.2658 8.98881C17.1933 9.04672 18.1093 8.75818 18.8361 8.17911C19.563 7.60004 20.0489 6.77171 20.1998 5.85471C20.3506 4.93771 20.1555 3.99737 19.6525 3.21601C19.1494 2.43464 18.3741 1.86792 17.4768 1.6257C16.5796 1.38349 15.6245 1.48306 14.7965 1.90509C13.9685 2.32712 13.3268 3.04155 12.9956 3.90987C12.6645 4.77819 12.6676 5.73854 13.0042 6.60472L8.68237 9.38253C8.16194 8.84823 7.49399 8.48126 6.76391 8.32854C6.03383 8.17583 5.2748 8.24429 4.58384 8.52519C3.89287 8.80609 3.30137 9.28666 2.88495 9.90547C2.46852 10.5243 2.24609 11.2532 2.24609 11.9991C2.24609 12.745 2.46852 13.4739 2.88495 14.0927C3.30137 14.7115 3.89287 15.1921 4.58384 15.473C5.2748 15.7539 6.03383 15.8224 6.76391 15.6697C7.49399 15.5169 8.16194 15.15 8.68237 14.6157L13.0042 17.3935C12.7147 18.1402 12.6719 18.96 12.882 19.7329C13.0921 20.5058 13.5441 21.191 14.1719 21.6884C14.7997 22.1858 15.5702 22.4691 16.3706 22.4968C17.171 22.5246 17.9593 22.2954 18.6201 21.8427C19.2808 21.3901 19.7792 20.7378 20.0424 19.9813C20.3056 19.2249 20.3197 18.4041 20.0826 17.6391C19.8455 16.8741 19.3697 16.205 18.7249 15.73C18.0801 15.2549 17.3002 14.9988 16.4992 14.9991ZM16.4992 2.9991C16.9443 2.9991 17.3793 3.13106 17.7493 3.37829C18.1193 3.62552 18.4077 3.97693 18.578 4.38806C18.7483 4.79919 18.7928 5.25159 18.706 5.68805C18.6192 6.12451 18.4049 6.52542 18.0902 6.84009C17.7756 7.15476 17.3747 7.36905 16.9382 7.45586C16.5017 7.54268 16.0493 7.49812 15.6382 7.32783C15.2271 7.15753 14.8757 6.86914 14.6284 6.49913C14.3812 6.12912 14.2492 5.69411 14.2492 5.2491C14.2492 4.65236 14.4863 4.08006 14.9083 3.65811C15.3302 3.23615 15.9025 2.9991 16.4992 2.9991ZM5.99925 14.2491C5.55424 14.2491 5.11923 14.1171 4.74922 13.8699C4.37921 13.6227 4.09082 13.2713 3.92052 12.8601C3.75022 12.449 3.70567 11.9966 3.79248 11.5601C3.8793 11.1237 4.09359 10.7228 4.40826 10.4081C4.72293 10.0934 5.12384 9.87915 5.5603 9.79233C5.99675 9.70551 6.44915 9.75007 6.86029 9.92037C7.27142 10.0907 7.62282 10.3791 7.87006 10.7491C8.11729 11.1191 8.24925 11.5541 8.24925 11.9991C8.24925 12.5958 8.0122 13.1681 7.59024 13.5901C7.16828 14.012 6.59599 14.2491 5.99925 14.2491ZM16.4992 20.9991C16.0542 20.9991 15.6192 20.8671 15.2492 20.6199C14.8792 20.3727 14.5908 20.0213 14.4205 19.6101C14.2502 19.199 14.2057 18.7466 14.2925 18.3101C14.3793 17.8737 14.5936 17.4728 14.9083 17.1581C15.2229 16.8434 15.6238 16.6291 16.0603 16.5423C16.4968 16.4555 16.9492 16.5001 17.3603 16.6704C17.7714 16.8407 18.1228 17.1291 18.3701 17.4991C18.6173 17.8691 18.7492 18.3041 18.7492 18.7491C18.7492 19.3458 18.5122 19.9181 18.0902 20.3401C17.6683 20.762 17.096 20.9991 16.4992 20.9991Z" />
</svg>
