<svg width="24" height="24" viewBox="0 0 24 24" fill="none" xmlns="http://www.w3.org/2000/svg">
<g clip-path="url(#clip0_4914_99320)">
<path d="M21.2797 10.8773C21.621 10.4361 21.8919 10.0821 22.092 9.81499C23.5331 7.899 24.1578 6.67505 23.9663 6.14144L23.8912 6.01646C23.8413 5.9414 23.7119 5.87246 23.5038 5.81007C23.2955 5.74772 23.029 5.73775 22.7042 5.77891L19.1055 5.8043C19.0223 5.79601 18.9383 5.79794 18.8555 5.81007C18.7722 5.82274 18.7182 5.83545 18.693 5.84758C18.6679 5.86029 18.6472 5.87048 18.6307 5.87878L18.5807 5.91629C18.5391 5.94113 18.4933 5.98499 18.4434 6.04766C18.3934 6.11028 18.3514 6.18287 18.3184 6.26646C17.9268 7.27436 17.4812 8.21166 16.9813 9.07804C16.673 9.59457 16.3897 10.0427 16.1318 10.4212C15.8735 10.8006 15.6569 11.0796 15.4819 11.2583C15.307 11.4374 15.1486 11.5814 15.0071 11.6893C14.8653 11.798 14.7571 11.8436 14.6824 11.827C14.6113 11.8115 14.5404 11.7948 14.4699 11.7768C14.3532 11.702 14.2594 11.6002 14.1888 11.4708C14.1179 11.342 14.0702 11.1794 14.045 10.9835C14.0202 10.7879 14.0053 10.6191 14.0014 10.4772C13.997 10.3357 13.9992 10.1359 14.0078 9.87739C14.0161 9.6191 14.0202 9.44449 14.0202 9.35261C14.0202 9.03638 14.0265 8.69262 14.039 8.3218C14.0514 7.95125 14.0619 7.65739 14.0702 7.44076C14.0785 7.22445 14.0826 6.99515 14.0826 6.75345C14.0826 6.5123 14.0679 6.32245 14.0386 6.18481C14.0092 6.04729 13.9652 5.91327 13.9076 5.785C13.8491 5.65615 13.7638 5.55597 13.6512 5.48537C13.5387 5.41445 13.3993 5.35846 13.2327 5.31649C12.7909 5.21631 12.2286 5.16279 11.5458 5.154C9.99621 5.138 9.00071 5.23786 8.55924 5.45417C8.38431 5.54605 8.22593 5.67076 8.08441 5.82914C7.93433 6.01263 7.91363 6.11276 8.02206 6.12877C8.522 6.20383 8.87578 6.38318 9.08407 6.66626L9.15913 6.81608C9.21733 6.92477 9.27558 7.11629 9.33406 7.39108C9.39231 7.66591 9.42982 7.96996 9.44663 8.30327C9.48829 8.91137 9.48829 9.43177 9.44663 9.86526C9.40498 10.2987 9.36553 10.6359 9.32802 10.877C9.29046 11.1187 9.2342 11.3144 9.1594 11.4642C9.08434 11.6145 9.03443 11.7061 9.00932 11.7395C8.9842 11.7726 8.96351 11.7936 8.94696 11.8019C8.83929 11.8433 8.7249 11.8644 8.60955 11.8642C8.49283 11.8642 8.35127 11.8057 8.18464 11.689C8.01796 11.5729 7.84497 11.4123 7.66617 11.2081C7.48682 11.0042 7.28512 10.7187 7.05996 10.3519C6.83508 9.98581 6.60164 9.55233 6.36021 9.05266L6.16044 8.69009C6.03547 8.45723 5.86465 8.11757 5.64806 7.67196C5.43148 7.22634 5.23969 6.79538 5.07333 6.37849C5.00656 6.20383 4.90665 6.07056 4.77343 5.97868L4.71108 5.94117C4.66942 5.90804 4.60265 5.87246 4.51104 5.83518C4.41852 5.79747 4.32209 5.77018 4.22354 5.7538L0.799704 5.77864C0.44985 5.77864 0.212572 5.85813 0.0875987 6.01646L0.0376453 6.09126C0.0123982 6.13319 0 6.19996 0 6.2913C0 6.38318 0.0251119 6.49548 0.0750652 6.62848C0.575004 7.80333 1.11858 8.93625 1.70572 10.0272C2.29316 11.1187 2.80334 11.9978 3.23651 12.6641C3.66968 13.331 4.11114 13.9595 4.56117 14.5511C5.0112 15.1426 5.30889 15.5214 5.45456 15.6878C5.60023 15.8548 5.71474 15.9798 5.7981 16.0628L6.11045 16.363C6.31021 16.5628 6.60407 16.8022 6.99148 17.0815C7.37885 17.3607 7.80764 17.6355 8.27864 17.9059C8.74909 18.1769 9.29704 18.3973 9.92169 18.5684C10.5464 18.7395 11.1545 18.8081 11.746 18.7745H13.183C13.4747 18.7496 13.6953 18.6583 13.8452 18.4997L13.8951 18.4373C13.9282 18.3876 13.9597 18.3104 13.9889 18.2063C14.0179 18.1023 14.0329 17.9875 14.0329 17.8628C14.0243 17.5047 14.0516 17.1813 14.114 16.8944C14.1763 16.6069 14.2472 16.3906 14.3265 16.2444C14.4056 16.0989 14.495 15.9759 14.5951 15.8757C14.6951 15.7755 14.7657 15.7157 14.8076 15.6947C14.8493 15.6743 14.8827 15.6597 14.9076 15.6508C15.1073 15.5843 15.3426 15.6489 15.6136 15.8445C15.8843 16.0407 16.1384 16.2818 16.3759 16.5693C16.6132 16.8568 16.8985 17.1794 17.2318 17.5378C17.5649 17.8959 17.8565 18.1624 18.1065 18.3374L18.3564 18.4878C18.523 18.5873 18.7394 18.679 19.0062 18.7626C19.2727 18.8456 19.5062 18.8666 19.7059 18.8249L22.9049 18.7747C23.2214 18.7747 23.4672 18.7229 23.6422 18.6185C23.8171 18.5151 23.9212 18.3997 23.9545 18.275C23.9876 18.1501 23.9898 18.0091 23.9609 17.8504C23.9317 17.6923 23.9024 17.5819 23.8735 17.5196C23.8442 17.4572 23.8171 17.4048 23.792 17.3634C23.3754 16.6137 22.5799 15.693 21.4053 14.6018L21.3802 14.5769L21.3678 14.5643L21.3554 14.5521H21.3429C20.8095 14.0438 20.4723 13.7022 20.3308 13.527C20.0726 13.1943 20.0141 12.8569 20.1559 12.5153C20.2552 12.2563 20.6299 11.7106 21.2797 10.8773Z" fill="#2D2D2D"/>
</g>
<defs>
<clipPath id="clip0_4914_99320">
<rect width="24" height="24" fill="white"/>
</clipPath>
</defs>
</svg>
