<svg viewBox="0 0 24 24" xmlns="http://www.w3.org/2000/svg">
<path d="M18.9701 4.75275C18.4993 4.34147 16.5939 3.03031 12.3457 3.01274C12.3457 3.01274 7.33757 2.72801 4.89837 4.85118C3.54161 6.13773 3.0634 8.02539 3.01151 10.363C2.95961 12.7006 2.89659 17.0805 7.34869 18.2686H7.3524L7.34869 20.0825C7.34869 20.0825 7.31904 20.8171 7.8306 20.9648C8.44596 21.1476 8.80925 20.5886 9.39866 19.9876C9.72117 19.6571 10.166 19.172 10.5033 18.8029C13.5505 19.0455 15.8896 18.4901 16.1565 18.4092C16.7719 18.2194 20.2527 17.7976 20.8162 13.4177C21.4019 8.89715 20.5345 6.04282 18.9701 4.75275ZM19.4854 13.0872C19.0072 16.743 16.1862 16.975 15.6672 17.1332C15.4448 17.2 13.3874 17.6851 10.8036 17.5269C10.8036 17.5269 8.87597 19.7309 8.27544 20.3039C8.07897 20.4902 7.86396 20.4727 7.86767 20.1036C7.86767 19.861 7.8825 17.091 7.8825 17.091C7.87879 17.091 7.87879 17.091 7.8825 17.091C4.10878 16.0998 4.3312 12.3702 4.37197 10.4192C4.41275 8.4683 4.80199 6.86889 5.95115 5.79325C8.01595 4.01808 12.2679 4.28172 12.2679 4.28172C15.86 4.29578 17.58 5.32221 17.9804 5.6667C19.3038 6.74234 19.9784 9.31546 19.4854 13.0872ZM14.3327 10.247C14.3475 10.5493 13.8693 10.5704 13.8545 10.2681C13.8137 9.49473 13.4319 9.11861 12.646 9.07643C12.3272 9.05885 12.3568 8.60539 12.6719 8.62297C13.7062 8.6757 14.2808 9.23812 14.3327 10.247ZM15.0852 10.6442C15.1223 9.15376 14.1399 7.98672 12.2753 7.85666C11.9602 7.83557 11.9936 7.38211 12.3087 7.4032C14.4587 7.55084 15.6042 8.95339 15.5634 10.6547C15.5597 10.957 15.0778 10.943 15.0852 10.6442ZM16.8275 11.1152C16.8312 11.4175 16.3493 11.4211 16.3493 11.1187C16.327 8.25387 14.3141 6.69313 11.8712 6.67556C11.5561 6.67204 11.5561 6.2221 11.8712 6.2221C14.6033 6.23967 16.8015 8.0289 16.8275 11.1152ZM16.4086 14.5636V14.5707C16.0082 15.2385 15.2594 15.9767 14.4884 15.7412L14.481 15.7307C13.6988 15.5233 11.8564 14.6234 10.6924 13.7446C10.0919 13.2946 9.54323 12.7639 9.12064 12.2542C8.73881 11.8007 8.35329 11.2629 7.97888 10.6161C7.18929 9.26273 7.01506 8.65812 7.01506 8.65812C6.76669 7.92696 7.54146 7.21689 8.24949 6.83725H8.25691C8.59795 6.66853 8.92416 6.72477 9.14288 6.97435C9.14288 6.97435 9.60255 7.49459 9.79902 7.7512C9.98437 7.99023 10.2327 8.37339 10.3625 8.58782C10.5886 8.97097 10.4477 9.36116 10.2253 9.52285L9.78048 9.86031C9.55435 10.0326 9.58401 10.3524 9.58401 10.3524C9.58401 10.3524 10.2439 12.7182 12.709 13.3157C12.709 13.3157 13.0463 13.3439 13.228 13.1294L13.5839 12.7076C13.7544 12.4967 14.1659 12.3631 14.5699 12.5775C15.1148 12.8693 15.8081 13.3228 16.2677 13.734C16.5272 13.9344 16.5865 14.2402 16.4086 14.5636Z" />
</svg>
