<svg viewBox="0 0 24 24"  xmlns="http://www.w3.org/2000/svg">
<path d="M4.09992 11.5965C8.39488 9.76188 11.2589 8.55241 12.6919 7.96805C16.7834 6.29959 17.6335 6.00976 18.1877 6.00009C18.3095 5.99809 18.582 6.0277 18.7586 6.16813C18.9076 6.2867 18.9486 6.44688 18.9683 6.5593C18.9879 6.67172 19.0123 6.92782 18.9929 7.12792C18.7712 9.41192 17.8118 14.9546 17.3237 17.5127C17.1172 18.5951 16.7105 18.958 16.3168 18.9936C15.6393 19.0547 15.0909 18.6714 14.4805 18.2447C14.3201 18.1326 14.1554 18.0175 13.9829 17.9067C13.306 17.4716 12.7829 17.1223 12.2584 16.7721C11.7781 16.4515 11.2967 16.13 10.695 15.7414C9.44309 14.9325 9.96716 14.4372 10.666 13.7767C10.7791 13.6698 10.8969 13.5585 11.0124 13.4409C11.0639 13.3884 11.3161 13.1586 11.6716 12.8345C12.8121 11.7949 15.0163 9.78589 15.0719 9.55341C15.0811 9.51527 15.0895 9.3731 15.0034 9.29804C14.9172 9.22297 14.7901 9.24864 14.6983 9.26905C14.5683 9.29799 12.4968 10.6403 8.48389 13.2961C7.89591 13.692 7.36333 13.8848 6.88616 13.8747C6.36012 13.8636 5.34822 13.5831 4.59598 13.3434C4.48551 13.3082 4.37775 13.2749 4.27375 13.2429C3.50915 13.0072 2.94767 12.8341 3.00388 12.3945C3.03713 12.1344 3.40248 11.8684 4.09992 11.5965Z" />
</svg>
