<svg  viewBox="0 0 24 24"  xmlns="http://www.w3.org/2000/svg">
<path d="M11.0306 15.97C11.1003 16.0396 11.1556 16.1223 11.1933 16.2134C11.2311 16.3044 11.2505 16.402 11.2505 16.5006C11.2505 16.5992 11.2311 16.6967 11.1933 16.7878C11.1556 16.8788 11.1003 16.9616 11.0306 17.0312L8.03055 20.0312C7.9609 20.1009 7.87818 20.1563 7.78713 20.194C7.69609 20.2318 7.59849 20.2512 7.49993 20.2512C7.40137 20.2512 7.30377 20.2318 7.21272 20.194C7.12168 20.1563 7.03896 20.1009 6.9693 20.0312L3.9693 17.0312C3.89962 16.9615 3.84435 16.8788 3.80663 16.7878C3.76892 16.6967 3.74951 16.5991 3.74951 16.5006C3.74951 16.402 3.76892 16.3045 3.80663 16.2134C3.84435 16.1224 3.89962 16.0396 3.9693 15.97C4.11003 15.8292 4.30091 15.7502 4.49993 15.7502C4.59847 15.7502 4.69606 15.7696 4.7871 15.8073C4.87815 15.845 4.96087 15.9003 5.03055 15.97L6.74993 17.6903V4.50059C6.74993 4.30168 6.82895 4.11091 6.9696 3.97026C7.11025 3.82961 7.30102 3.75059 7.49993 3.75059C7.69884 3.75059 7.88961 3.82961 8.03026 3.97026C8.17091 4.11091 8.24993 4.30168 8.24993 4.50059V17.6903L9.9693 15.97C10.039 15.9002 10.1217 15.8449 10.2127 15.8072C10.3038 15.7694 10.4014 15.75 10.4999 15.75C10.5985 15.75 10.6961 15.7694 10.7871 15.8072C10.8782 15.8449 10.9609 15.9002 11.0306 15.97ZM20.0306 6.96996L17.0306 3.96997C16.9609 3.90023 16.8782 3.84491 16.7871 3.80717C16.6961 3.76943 16.5985 3.75 16.4999 3.75C16.4014 3.75 16.3038 3.76943 16.2127 3.80717C16.1217 3.84491 16.039 3.90023 15.9693 3.96997L12.9693 6.96996C12.8286 7.1107 12.7495 7.30157 12.7495 7.50059C12.7495 7.69961 12.8286 7.89048 12.9693 8.03122C13.11 8.17195 13.3009 8.25101 13.4999 8.25101C13.699 8.25101 13.8898 8.17195 14.0306 8.03122L15.7499 6.3109V19.5006C15.7499 19.6995 15.8289 19.8903 15.9696 20.0309C16.1103 20.1716 16.301 20.2506 16.4999 20.2506C16.6988 20.2506 16.8896 20.1716 17.0303 20.0309C17.1709 19.8903 17.2499 19.6995 17.2499 19.5006V6.3109L18.9693 8.03122C19.11 8.17195 19.3009 8.25101 19.4999 8.25101C19.699 8.25101 19.8898 8.17195 20.0306 8.03122C20.1713 7.89048 20.2503 7.69961 20.2503 7.50059C20.2503 7.30157 20.1713 7.1107 20.0306 6.96996Z" />
</svg>
