<svg viewBox="0 0 24 24" xmlns="http://www.w3.org/2000/svg">
<path d="M21 20.25C21 20.4489 20.921 20.6397 20.7803 20.7803C20.6397 20.921 20.4489 21 20.25 21H3.75C3.55109 21 3.36032 20.921 3.21967 20.7803C3.07902 20.6397 3 20.4489 3 20.25C3 20.0511 3.07902 19.8603 3.21967 19.7197C3.36032 19.579 3.55109 19.5 3.75 19.5H20.25C20.4489 19.5 20.6397 19.579 20.7803 19.7197C20.921 19.8603 21 20.0511 21 20.25ZM7.5 16.5C7.59852 16.5001 7.69609 16.4807 7.78714 16.4431C7.87818 16.4055 7.96092 16.3503 8.03063 16.2806L17.25 7.06031V14.25C17.25 14.4489 17.329 14.6397 17.4697 14.7803C17.6103 14.921 17.8011 15 18 15C18.1989 15 18.3897 14.921 18.5303 14.7803C18.671 14.6397 18.75 14.4489 18.75 14.25V5.25C18.75 5.05109 18.671 4.86032 18.5303 4.71967C18.3897 4.57902 18.1989 4.5 18 4.5H9C8.80109 4.5 8.61032 4.57902 8.46967 4.71967C8.32902 4.86032 8.25 5.05109 8.25 5.25C8.25 5.44891 8.32902 5.63968 8.46967 5.78033C8.61032 5.92098 8.80109 6 9 6H16.1897L6.96937 15.2194C6.86437 15.3243 6.79284 15.458 6.76385 15.6035C6.73487 15.7491 6.74972 15.9 6.80653 16.0371C6.86335 16.1742 6.95957 16.2914 7.08301 16.3738C7.20646 16.4562 7.35158 16.5001 7.5 16.5Z" />
</svg>
