<svg width="32" height="32" viewBox="0 0 32 32" fill="none" xmlns="http://www.w3.org/2000/svg">
<mask id="mask0_4127_113244" style="mask-type:alpha" maskUnits="userSpaceOnUse" x="0" y="0" width="32" height="32">
<path d="M32 16C32 24.8366 24.8366 32 16 32C7.16344 32 0 24.8366 0 16C0 7.16344 7.16344 0 16 0C24.8366 0 32 7.16344 32 16Z" fill="#D9D9D9"/>
</mask>
<g mask="url(#mask0_4127_113244)">
<path d="M0 16H16V32H5.69778C3.71556 32 2.99556 31.7956 2.27556 31.4044C1.55637 31.0271 0.967756 30.4416 0.586667 29.7244C0.213333 29.0044 0 28.2844 0 26.3111V16Z" fill="#F2F1ED"/>
<path d="M16 16H32V26.3022C32 28.2844 31.7956 29.0044 31.4044 29.7244C31.0271 30.4436 30.4416 31.0322 29.7244 31.4133C29.0044 31.7956 28.2844 32 26.3022 32H16V16Z" fill="black"/>
<path d="M5.69778 0H26.3022C28.2844 0 29.0044 0.204445 29.7244 0.595556C30.4436 0.972855 31.0322 1.55837 31.4133 2.27556C31.7956 2.99556 32 3.71556 32 5.69778V16H0V5.69778C0 3.71556 0.204445 2.99556 0.595556 2.27556C0.972855 1.55637 1.55837 0.967756 2.27556 0.586667C2.99556 0.213333 3.71556 0 5.68889 0H5.69778Z" fill="#FFDD33"/>
</g>
</svg>
